Facade-SemiBoldItalic.ufo
<glyph name="exclam" format="2">
  <advance width="480.0"/>
  <unicode hex="0021"/>
  <outline>
    <contour>
      <point x="182.75" y="322.5" type="line"/>
      <point x="305.75" y="322.5" type="line"/>
      <point x="480.0" y="900.0" type="line"/>
      <point x="300.0" y="900.0" type="line"/>
    </contour>
    <contour>
      <point x="173.5" y="-18.0" type="curve" smooth="yes"/>
      <point x="232.0" y="-18.0"/>
      <point x="283.0" y="33.0"/>
      <point x="283.0" y="91.5" type="curve" smooth="yes"/>
      <point x="283.0" y="140.0"/>
      <point x="246.25" y="177.0"/>
      <point x="197.5" y="177.0" type="curve" smooth="yes"/>
      <point x="139.0" y="177.0"/>
      <point x="88.0" y="126.0"/>
      <point x="88.0" y="68.25" type="curve" smooth="yes"/>
      <point x="88.0" y="18.5"/>
      <point x="127.0" y="-18.0"/>
    </contour>
  </outline>
</glyph>
<glyph name="numbersign" format="2">
  <advance width="750.0"/>
  <unicode hex="0023"/>
  <outline>
    <contour>
      <point x="10.5" y="0.0" type="line"/>
      <point x="142.5" y="0.0" type="line"/>
      <point x="232.0" y="216.0" type="line"/>
      <point x="397.0" y="216.0" type="line"/>
      <point x="307.5" y="0.0" type="line"/>
      <point x="439.5" y="0.0" type="line"/>
      <point x="529.0" y="216.0" type="line"/>
      <point x="636.5" y="216.0" type="line"/>
      <point x="685.75" y="336.0" type="line"/>
      <point x="578.25" y="336.0" type="line"/>
      <point x="672.75" y="564.0" type="line"/>
      <point x="776.25" y="564.0" type="line"/>
      <point x="825.5" y="684.0" type="line"/>
      <point x="722.0" y="684.0" type="line"/>
      <point x="811.5" y="900.0" type="line"/>
      <point x="679.5" y="900.0" type="line"/>
      <point x="590.0" y="684.0" type="line"/>
      <point x="425.0" y="684.0" type="line"/>
      <point x="514.5" y="900.0" type="line"/>
      <point x="382.5" y="900.0" type="line"/>
      <point x="293.0" y="684.0" type="line"/>
      <point x="187.5" y="684.0" type="line"/>
      <point x="138.25" y="564.0" type="line"/>
      <point x="243.75" y="564.0" type="line"/>
      <point x="149.25" y="336.0" type="line"/>
      <point x="47.75" y="336.0" type="line"/>
      <point x="-1.5" y="216.0" type="line"/>
      <point x="100.0" y="216.0" type="line"/>
    </contour>
    <contour>
      <point x="271.5" y="329.0" type="line"/>
      <point x="371.5" y="571.0" type="line"/>
      <point x="550.5" y="571.0" type="line"/>
      <point x="450.5" y="329.0" type="line"/>
    </contour>
  </outline>
</glyph>
<glyph name="dollar" format="2">
  <advance width="750.0"/>
  <unicode hex="0024"/>
  <outline>
    <contour>
      <point x="326.25" y="-16.5" type="curve" smooth="yes"/>
      <point x="497.75" y="-16.5"/>
      <point x="639.25" y="118.5"/>
      <point x="639.25" y="281.25" type="curve" smooth="yes"/>
      <point x="639.25" y="367.25"/>
      <point x="600.0" y="433.5"/>
      <point x="511.75" y="499.5" type="curve" smooth="yes"/>
      <point x="419.5" y="569.25" type="line" smooth="yes"/>
      <point x="372.5" y="604.75"/>
      <point x="353.75" y="631.75"/>
      <point x="353.75" y="666.25" type="curve" smooth="yes"/>
      <point x="353.75" y="726.5"/>
      <point x="404.25" y="771.75"/>
      <point x="469.25" y="771.75" type="curve" smooth="yes"/>
      <point x="543.5" y="771.75"/>
      <point x="619.25" y="715.75"/>
      <point x="657.0" y="634.0" type="curve"/>
      <point x="743.25" y="807.0" type="line"/>
      <point x="682.0" y="874.25"/>
      <point x="582.25" y="916.5"/>
      <point x="485.25" y="916.5" type="curve" smooth="yes"/>
      <point x="321.75" y="916.5"/>
      <point x="193.75" y="797.0"/>
      <point x="193.75" y="645.25" type="curve" smooth="yes"/>
      <point x="193.75" y="567.0"/>
      <point x="228.0" y="512.0"/>
      <point x="317.0" y="441.25" type="curve" smooth="yes"/>
      <point x="408.0" y="369.25" type="line" smooth="yes"/>
      <point x="456.75" y="331.0"/>
      <point x="479.5" y="297.25"/>
      <point x="479.5" y="255.5" type="curve" smooth="yes"/>
      <point x="479.5" y="186.75"/>
      <point x="416.5" y="130.25"/>
      <point x="340.0" y="130.25" type="curve" smooth="yes"/>
      <point x="252.25" y="130.25"/>
      <point x="163.5" y="205.0"/>
      <point x="138.5" y="298.5" type="curve"/>
      <point x="49.25" y="122.25" type="line"/>
      <point x="102.0" y="40.0"/>
      <point x="215.75" y="-16.5"/>
    </contour>
    <contour>
      <point x="220.75" y="-120.0" type="line"/>
      <point x="322.75" y="-120.0" type="line"/>
      <point x="367.75" y="60.0" type="line"/>
      <point x="265.75" y="60.0" type="line"/>
    </contour>
    <contour>
      <point x="458.5" y="840.0" type="line"/>
      <point x="560.5" y="840.0" type="line"/>
      <point x="597.5" y="990.0" type="line"/>
      <point x="495.5" y="990.0" type="line"/>
    </contour>
  </outline>
</glyph>
<glyph name="ampersand" format="2">
  <advance width="800.0"/>
  <unicode hex="0026"/>
  <outline>
    <contour>
      <point x="321.0" y="-16.5" type="curve" smooth="yes"/>
      <point x="391.5" y="-16.5"/>
      <point x="465.25" y="7.75"/>
      <point x="539.0" y="51.75" type="curve"/>
      <point x="485.5" y="80.0" type="line"/>
      <point x="520.25" y="0.0" type="line"/>
      <point x="689.25" y="0.0" type="line"/>
      <point x="638.0" y="112.75" type="line"/>
      <point x="681.5" y="144.0"/>
      <point x="723.0" y="184.5"/>
      <point x="753.75" y="231.0" type="curve"/>
      <point x="687.75" y="382.0" type="line"/>
      <point x="670.25" y="326.75"/>
      <point x="635.0" y="272.75"/>
      <point x="589.75" y="230.0" type="curve"/>
      <point x="477.0" y="486.5" type="line"/>
      <point x="501.25" y="495.5" type="line" smooth="yes"/>
      <point x="630.5" y="542.5"/>
      <point x="706.0" y="620.75"/>
      <point x="706.0" y="719.5" type="curve" smooth="yes"/>
      <point x="706.0" y="830.25"/>
      <point x="619.5" y="916.5"/>
      <point x="493.75" y="916.5" type="curve" smooth="yes"/>
      <point x="360.0" y="916.5"/>
      <point x="248.0" y="806.75"/>
      <point x="248.0" y="681.0" type="curve" smooth="yes"/>
      <point x="248.0" y="646.0"/>
      <point x="258.0" y="615.75"/>
      <point x="277.75" y="560.25" type="curve" smooth="yes"/>
      <point x="282.25" y="549.25" type="line"/>
      <point x="135.5" y="489.75"/>
      <point x="49.25" y="376.0"/>
      <point x="49.25" y="246.25" type="curve" smooth="yes"/>
      <point x="49.25" y="93.0"/>
      <point x="165.5" y="-16.5"/>
    </contour>
    <contour>
      <point x="354.25" y="117.5" type="curve" smooth="yes"/>
      <point x="270.0" y="117.5"/>
      <point x="207.5" y="179.25"/>
      <point x="207.5" y="264.75" type="curve" smooth="yes"/>
      <point x="207.5" y="337.75"/>
      <point x="255.0" y="403.5"/>
      <point x="330.75" y="435.75" type="curve"/>
      <point x="456.75" y="147.25" type="line"/>
      <point x="428.5" y="129.0"/>
      <point x="390.75" y="117.5"/>
    </contour>
    <contour>
      <point x="427.0" y="596.25" type="line"/>
      <point x="413.75" y="627.75" type="line" smooth="yes"/>
      <point x="398.25" y="664.0"/>
      <point x="393.5" y="683.75"/>
      <point x="393.5" y="700.5" type="curve" smooth="yes"/>
      <point x="393.5" y="752.5"/>
      <point x="436.0" y="793.75"/>
      <point x="486.75" y="793.75" type="curve" smooth="yes"/>
      <point x="529.5" y="793.75"/>
      <point x="560.0" y="764.0"/>
      <point x="560.0" y="720.75" type="curve" smooth="yes"/>
      <point x="560.0" y="674.5"/>
      <point x="525.5" y="635.75"/>
      <point x="464.0" y="611.0" type="curve" smooth="yes"/>
    </contour>
  </outline>
</glyph>
<glyph name="quotesingle" format="2">
  <advance width="285.0"/>
  <unicode hex="0027"/>
  <outline>
    <contour>
      <point x="163.0" y="547.5" type="line"/>
      <point x="236.5" y="547.5" type="line"/>
      <point x="382.0" y="900.0" type="line"/>
      <point x="194.5" y="900.0" type="line"/>
    </contour>
  </outline>
</glyph>
<glyph name="parenleft" format="2">
  <advance width="480.0"/>
  <unicode hex="0028"/>
  <outline>
    <contour>
      <point x="142.75" y="-180.0" type="curve"/>
      <point x="295.0" y="-180.0" type="line"/>
      <point x="254.0" y="-79.25"/>
      <point x="233.0" y="30.75"/>
      <point x="233.0" y="147.0" type="curve" smooth="yes"/>
      <point x="233.0" y="428.25"/>
      <point x="357.25" y="736.5"/>
      <point x="597.5" y="960.0" type="curve"/>
      <point x="418.25" y="960.0" type="line"/>
      <point x="205.0" y="730.75"/>
      <point x="85.25" y="440.25"/>
      <point x="85.25" y="154.25" type="curve" smooth="yes"/>
      <point x="85.25" y="37.0"/>
      <point x="105.25" y="-75.5"/>
    </contour>
  </outline>
</glyph>
<glyph name="parenright" format="2">
  <advance width="480.0"/>
  <unicode hex="0029"/>
  <outline>
    <contour>
      <point x="276.0" y="675.0" type="curve"/>
      <point x="186.0" y="675.0" type="line"/>
      <point x="270.25" y="656.0"/>
      <point x="317.25" y="646.5"/>
      <point x="317.25" y="632.5" type="curve" smooth="yes"/>
      <point x="317.25" y="452.75"/>
      <point x="220.75" y="248.0"/>
      <point x="30.25" y="105.0" type="curve"/>
      <point x="147.25" y="105.0" type="line"/>
      <point x="317.25" y="252.5"/>
      <point x="411.0" y="442.5"/>
      <point x="411.0" y="626.25" type="curve" smooth="yes"/>
      <point x="411.0" y="642.0"/>
      <point x="363.25" y="651.0"/>
    </contour>
  </outline>
</glyph>
<glyph name="asterisk" format="2">
  <advance width="600.0"/>
  <unicode hex="002A"/>
  <outline>
    <contour>
      <point x="230.25" y="415.25" type="line"/>
      <point x="365.75" y="563.5" type="line"/>
      <point x="421.5" y="391.25" type="line"/>
      <point x="544.5" y="455.25" type="line"/>
      <point x="455.75" y="611.25" type="line"/>
      <point x="649.75" y="630.0" type="line"/>
      <point x="638.75" y="758.25" type="line"/>
      <point x="450.25" y="705.0" type="line"/>
      <point x="514.25" y="900.0" type="line"/>
      <point x="382.25" y="900.0" type="line"/>
      <point x="355.0" y="716.75" type="line"/>
      <point x="201.75" y="811.75" type="line"/>
      <point x="131.25" y="693.5" type="line"/>
      <point x="303.75" y="629.75" type="line"/>
      <point x="145.75" y="504.25" type="line"/>
    </contour>
  </outline>
</glyph>
<glyph name="plus" format="2">
  <advance width="750.0"/>
  <unicode hex="002B"/>
  <outline>
    <contour>
      <point x="265.5" y="127.5" type="line"/>
      <point x="397.5" y="127.5" type="line"/>
      <point x="558.5" y="772.5" type="line"/>
      <point x="426.5" y="772.5" type="line"/>
    </contour>
    <contour>
      <point x="74.0" y="387.0" type="line"/>
      <point x="719.0" y="387.0" type="line"/>
      <point x="750.0" y="513.0" type="line"/>
      <point x="105.0" y="513.0" type="line"/>
    </contour>
  </outline>
</glyph>
<glyph name="period" format="2">
  <advance width="292.5"/>
  <unicode hex="002E"/>
  <outline>
    <contour>
      <point x="80.0" y="-18.0" type="curve" smooth="yes"/>
      <point x="139.5" y="-18.0"/>
      <point x="192.5" y="35.0"/>
      <point x="192.5" y="94.5" type="curve" smooth="yes"/>
      <point x="192.5" y="145.0"/>
      <point x="154.75" y="183.0"/>
      <point x="104.0" y="183.0" type="curve" smooth="yes"/>
      <point x="44.5" y="183.0"/>
      <point x="-8.5" y="130.0"/>
      <point x="-8.5" y="71.25" type="curve" smooth="yes"/>
      <point x="-8.5" y="19.5"/>
      <point x="31.5" y="-18.0"/>
    </contour>
  </outline>
</glyph>
<glyph name="slash" format="2">
  <advance width="510.0"/>
  <unicode hex="002F"/>
  <outline>
    <contour>
      <point x="-201.5" y="-180.0" type="line"/>
      <point x="-51.25" y="-180.0" type="line"/>
      <point x="756.0" y="960.0" type="line"/>
      <point x="605.75" y="960.0" type="line"/>
    </contour>
  </outline>
</glyph>
<glyph name="zero" format="2">
  <advance width="750.0"/>
  <unicode hex="0030"/>
  <outline>
    <contour>
      <point x="323.25" y="-18.0" type="curve" smooth="yes"/>
      <point x="545.0" y="-18.0"/>
      <point x="752.0" y="270.25"/>
      <point x="752.0" y="579.0" type="curve" smooth="yes"/>
      <point x="752.0" y="785.5"/>
      <point x="652.75" y="918.0"/>
      <point x="499.25" y="918.0" type="curve" smooth="yes"/>
      <point x="278.0" y="918.0"/>
      <point x="73.5" y="630.75"/>
      <point x="73.5" y="320.75" type="curve" smooth="yes"/>
      <point x="73.5" y="113.5"/>
      <point x="170.0" y="-18.0"/>
    </contour>
    <contour>
      <point x="346.0" y="129.0" type="curve" smooth="yes"/>
      <point x="278.0" y="129.0"/>
      <point x="235.5" y="202.25"/>
      <point x="235.5" y="320.75" type="curve" smooth="yes"/>
      <point x="235.5" y="537.25"/>
      <point x="365.0" y="771.0"/>
      <point x="484.0" y="771.0" type="curve" smooth="yes"/>
      <point x="551.5" y="771.0"/>
      <point x="590.0" y="703.5"/>
      <point x="590.0" y="584.75" type="curve" smooth="yes"/>
      <point x="590.0" y="363.75"/>
      <point x="464.75" y="129.0"/>
    </contour>
  </outline>
</glyph>
<glyph name="one" format="2">
  <advance width="750.0"/>
  <unicode hex="0031"/>
  <outline>
    <contour>
      <point x="272.5" y="0.0" type="line"/>
      <point x="427.5" y="0.0" type="line"/>
      <point x="659.5" y="929.0" type="line"/>
      <point x="266.5" y="754.0" type="line"/>
      <point x="225.0" y="589.0" type="line"/>
      <point x="499.25" y="711.75" type="line"/>
      <point x="464.0" y="763.75" type="line"/>
    </contour>
    <contour>
      <point x="78.0" y="0.0" type="line"/>
      <point x="582.0" y="0.0" type="line"/>
      <point x="614.5" y="130.5" type="line"/>
      <point x="110.5" y="130.5" type="line"/>
    </contour>
  </outline>
</glyph>
<glyph name="two" format="2">
  <advance width="750.0"/>
  <unicode hex="0032"/>
  <outline>
    <contour>
      <point x="9.25" y="0.0" type="line"/>
      <point x="584.25" y="0.0" type="line"/>
      <point x="620.5" y="147.0" type="line"/>
      <point x="283.5" y="147.0" type="line"/>
      <point x="297.75" y="110.75" type="line"/>
      <point x="607.0" y="427.25" type="line" smooth="yes"/>
      <point x="690.0" y="512.25"/>
      <point x="731.0" y="577.5"/>
      <point x="731.0" y="666.75" type="curve" smooth="yes"/>
      <point x="731.0" y="806.25"/>
      <point x="618.25" y="914.25"/>
      <point x="472.25" y="914.25" type="curve" smooth="yes"/>
      <point x="303.25" y="914.25"/>
      <point x="157.0" y="767.5"/>
      <point x="157.0" y="615.75" type="curve" smooth="yes"/>
      <point x="157.0" y="585.5"/>
      <point x="162.25" y="555.75"/>
      <point x="175.0" y="522.0" type="curve"/>
      <point x="348.25" y="522.0" type="line"/>
      <point x="322.75" y="554.25"/>
      <point x="310.0" y="586.25"/>
      <point x="310.0" y="620.75" type="curve" smooth="yes"/>
      <point x="310.0" y="700.75"/>
      <point x="377.25" y="768.75"/>
      <point x="455.5" y="768.75" type="curve" smooth="yes"/>
      <point x="523.0" y="768.75"/>
      <point x="572.0" y="718.75"/>
      <point x="572.0" y="655.0" type="curve" smooth="yes"/>
      <point x="572.0" y="606.75"/>
      <point x="546.0" y="569.75"/>
      <point x="500.75" y="522.0" type="curve" smooth="yes"/>
    </contour>
  </outline>
</glyph>
<glyph name="three" format="2">
  <advance width="750.0"/>
  <unicode hex="0033"/>
  <outline>
    <contour>
      <point x="288.5" y="-18.0" type="curve" smooth="yes"/>
      <point x="477.75" y="-18.0"/>
      <point x="652.25" y="144.5"/>
      <point x="652.25" y="328.25" type="curve" smooth="yes"/>
      <point x="652.25" y="433.75"/>
      <point x="593.0" y="522.5"/>
      <point x="502.75" y="565.0" type="curve"/>
      <point x="767.25" y="900.0" type="line"/>
      <point x="264.75" y="900.0" type="line"/>
      <point x="230.5" y="759.0" type="line"/>
      <point x="549.0" y="759.0" type="line"/>
      <point x="527.0" y="803.5" type="line"/>
      <point x="252.5" y="451.75" type="line"/>
      <point x="283.0" y="462.75"/>
      <point x="312.0" y="468.0"/>
      <point x="341.25" y="468.0" type="curve" smooth="yes"/>
      <point x="440.5" y="468.0"/>
      <point x="496.75" y="402.75"/>
      <point x="496.75" y="321.25" type="curve" smooth="yes"/>
      <point x="496.75" y="219.75"/>
      <point x="409.0" y="129.0"/>
      <point x="303.25" y="129.0" type="curve" smooth="yes"/>
      <point x="203.25" y="129.0"/>
      <point x="139.25" y="214.0"/>
      <point x="140.5" y="312.25" type="curve"/>
      <point x="17.5" y="157.5" type="line"/>
      <point x="63.0" y="43.25"/>
      <point x="174.5" y="-18.0"/>
    </contour>
  </outline>
</glyph>
<glyph name="four" format="2">
  <advance width="750.0"/>
  <unicode hex="0034"/>
  <outline>
    <contour>
      <point x="368.5" y="0.0" type="line"/>
      <point x="521.5" y="0.0" type="line"/>
      <point x="575.5" y="219.5" type="line"/>
      <point x="685.0" y="219.5" type="line"/>
      <point x="717.75" y="351.5" type="line"/>
      <point x="604.5" y="351.5" type="line"/>
      <point x="665.0" y="595.0" type="line"/>
      <point x="500.5" y="517.0" type="line"/>
      <point x="459.0" y="351.5" type="line"/>
      <point x="159.5" y="351.5" type="line"/>
      <point x="215.75" y="297.0" type="line"/>
      <point x="680.75" y="900.0" type="line"/>
      <point x="506.75" y="900.0" type="line"/>
      <point x="-12.5" y="219.5" type="line"/>
      <point x="422.5" y="219.5" type="line"/>
    </contour>
  </outline>
</glyph>
<glyph name="five" format="2">
  <advance width="750.0"/>
  <unicode hex="0035"/>
  <outline>
    <contour>
      <point x="288.5" y="-18.0" type="curve" smooth="yes"/>
      <point x="483.0" y="-18.0"/>
      <point x="655.5" y="149.25"/>
      <point x="655.5" y="337.75" type="curve" smooth="yes"/>
      <point x="655.5" y="501.0"/>
      <point x="524.0" y="602.75"/>
      <point x="392.5" y="602.75" type="curve" smooth="yes"/>
      <point x="385.75" y="602.75"/>
      <point x="377.25" y="602.25"/>
      <point x="368.0" y="600.0" type="curve"/>
      <point x="406.75" y="757.5" type="line"/>
      <point x="702.75" y="757.5" type="line"/>
      <point x="737.5" y="900.0" type="line"/>
      <point x="307.5" y="900.0" type="line"/>
      <point x="188.25" y="418.25" type="line"/>
      <point x="230.5" y="450.5"/>
      <point x="282.25" y="470.75"/>
      <point x="335.0" y="470.75" type="curve" smooth="yes"/>
      <point x="430.0" y="470.75"/>
      <point x="499.0" y="408.25"/>
      <point x="499.0" y="324.0" type="curve" smooth="yes"/>
      <point x="499.0" y="222.5"/>
      <point x="408.0" y="129.0"/>
      <point x="303.25" y="129.0" type="curve" smooth="yes"/>
      <point x="203.25" y="129.0"/>
      <point x="139.25" y="214.0"/>
      <point x="140.5" y="312.25" type="curve"/>
      <point x="17.5" y="157.5" type="line"/>
      <point x="63.0" y="43.25"/>
      <point x="174.5" y="-18.0"/>
    </contour>
  </outline>
</glyph>
<glyph name="six" format="2">
  <advance width="750.0"/>
  <unicode hex="0036"/>
  <outline>
    <contour>
      <point x="356.25" y="-18.0" type="curve" smooth="yes"/>
      <point x="553.5" y="-18.0"/>
      <point x="717.75" y="150.0"/>
      <point x="717.75" y="333.0" type="curve" smooth="yes"/>
      <point x="717.75" y="493.75"/>
      <point x="589.75" y="603.0"/>
      <point x="455.25" y="603.0" type="curve" smooth="yes"/>
      <point x="417.5" y="603.0"/>
      <point x="378.0" y="594.0"/>
      <point x="336.5" y="566.25" type="curve"/>
      <point x="376.25" y="542.5" type="line"/>
      <point x="679.0" y="900.0" type="line"/>
      <point x="493.75" y="900.0" type="line"/>
      <point x="150.0" y="482.75" type="line" smooth="yes"/>
      <point x="92.5" y="413.25"/>
      <point x="63.0" y="336.5"/>
      <point x="63.0" y="259.75" type="curve" smooth="yes"/>
      <point x="63.0" y="99.75"/>
      <point x="190.5" y="-18.0"/>
    </contour>
    <contour>
      <point x="371.0" y="129.0" type="curve" smooth="yes"/>
      <point x="280.5" y="129.0"/>
      <point x="220.0" y="198.5"/>
      <point x="220.0" y="278.5" type="curve" smooth="yes"/>
      <point x="220.0" y="376.75"/>
      <point x="308.25" y="467.0"/>
      <point x="411.5" y="467.0" type="curve" smooth="yes"/>
      <point x="501.5" y="467.0"/>
      <point x="561.75" y="400.25"/>
      <point x="561.75" y="319.75" type="curve" smooth="yes"/>
      <point x="561.75" y="221.5"/>
      <point x="473.0" y="129.0"/>
    </contour>
  </outline>
</glyph>
<glyph name="seven" format="2">
  <advance width="750.0"/>
  <unicode hex="0037"/>
  <outline>
    <contour>
      <point x="15.5" y="0.0" type="line"/>
      <point x="204.5" y="0.0" type="line"/>
      <point x="858.0" y="900.0" type="line"/>
      <point x="218.5" y="900.0" type="line"/>
      <point x="182.25" y="753.0" type="line"/>
      <point x="659.25" y="753.0" type="line"/>
      <point x="619.0" y="825.0" type="line"/>
    </contour>
  </outline>
</glyph>
<glyph name="eight" format="2">
  <advance width="750.0"/>
  <unicode hex="0038"/>
  <outline>
    <contour>
      <point x="337.25" y="-18.0" type="curve" smooth="yes"/>
      <point x="515.0" y="-18.0"/>
      <point x="693.25" y="140.75"/>
      <point x="693.25" y="329.25" type="curve" smooth="yes"/>
      <point x="693.25" y="424.75"/>
      <point x="645.75" y="510.0"/>
      <point x="570.25" y="558.5" type="curve"/>
      <point x="578.75" y="506.75" type="line"/>
      <point x="679.5" y="563.25"/>
      <point x="707.5" y="657.25"/>
      <point x="707.5" y="719.5" type="curve" smooth="yes"/>
      <point x="707.5" y="834.25"/>
      <point x="616.0" y="918.0"/>
      <point x="498.5" y="918.0" type="curve" smooth="yes"/>
      <point x="356.5" y="918.0"/>
      <point x="237.5" y="797.0"/>
      <point x="237.5" y="667.0" type="curve" smooth="yes"/>
      <point x="237.5" y="620.0"/>
      <point x="254.5" y="578.75"/>
      <point x="282.5" y="543.5" type="curve"/>
      <point x="314.25" y="588.5" type="line"/>
      <point x="162.25" y="543.5"/>
      <point x="54.5" y="405.5"/>
      <point x="54.5" y="258.0" type="curve" smooth="yes"/>
      <point x="54.5" y="99.75"/>
      <point x="182.0" y="-18.0"/>
    </contour>
    <contour>
      <point x="353.75" y="125.75" type="curve" smooth="yes"/>
      <point x="268.0" y="125.75"/>
      <point x="208.0" y="192.75"/>
      <point x="208.0" y="273.5" type="curve" smooth="yes"/>
      <point x="208.0" y="369.5"/>
      <point x="292.75" y="462.0"/>
      <point x="394.75" y="462.0" type="curve" smooth="yes"/>
      <point x="478.75" y="462.0"/>
      <point x="539.75" y="396.5"/>
      <point x="539.75" y="314.75" type="curve" smooth="yes"/>
      <point x="539.75" y="216.75"/>
      <point x="452.0" y="125.75"/>
    </contour>
    <contour>
      <point x="458.25" y="589.0" type="curve" smooth="yes"/>
      <point x="408.75" y="589.0"/>
      <point x="373.5" y="624.5"/>
      <point x="373.5" y="672.75" type="curve" smooth="yes"/>
      <point x="373.5" y="732.0"/>
      <point x="425.75" y="780.75"/>
      <point x="482.25" y="780.75" type="curve" smooth="yes"/>
      <point x="532.5" y="780.75"/>
      <point x="567.5" y="741.75"/>
      <point x="567.5" y="696.0" type="curve" smooth="yes"/>
      <point x="567.5" y="635.5"/>
      <point x="513.75" y="589.0"/>
    </contour>
  </outline>
</glyph>
<glyph name="less" format="2">
  <advance width="750.0"/>
  <unicode hex="003C"/>
  <outline>
    <contour>
      <point x="632.5" y="135.5" type="line"/>
      <point x="665.75" y="268.25" type="line"/>
      <point x="440.5" y="390.5" type="line" smooth="yes"/>
      <point x="408.5" y="408.5"/>
      <point x="369.5" y="425.5"/>
      <point x="332.5" y="441.5" type="curve"/>
      <point x="377.5" y="458.5"/>
      <point x="424.5" y="475.5"/>
      <point x="466.5" y="493.5" type="curve" smooth="yes"/>
      <point x="751.5" y="616.75" type="line"/>
      <point x="788.5" y="766.5" type="line"/>
      <point x="70.0" y="451.5" type="line"/>
    </contour>
  </outline>
</glyph>
<glyph name="equal" format="2">
  <advance width="750.0"/>
  <unicode hex="003D"/>
  <outline>
    <contour>
      <point x="73.75" y="265.5" type="line"/>
      <point x="658.75" y="265.5" type="line"/>
      <point x="689.75" y="391.5" type="line"/>
      <point x="104.75" y="391.5" type="line"/>
    </contour>
    <contour>
      <point x="134.25" y="508.5" type="line"/>
      <point x="719.25" y="508.5" type="line"/>
      <point x="750.25" y="634.5" type="line"/>
      <point x="165.25" y="634.5" type="line"/>
    </contour>
  </outline>
</glyph>
<glyph name="greater" format="2">
  <advance width="750.0"/>
  <unicode hex="003E"/>
  <outline>
    <contour>
      <point x="35.5" y="135.5" type="line"/>
      <point x="754.0" y="450.5" type="line"/>
      <point x="191.5" y="766.5" type="line"/>
      <point x="158.25" y="633.75" type="line"/>
      <point x="383.5" y="511.5" type="line" smooth="yes"/>
      <point x="415.5" y="493.5"/>
      <point x="454.5" y="476.5"/>
      <point x="491.5" y="460.5" type="curve"/>
      <point x="446.5" y="443.5"/>
      <point x="399.5" y="426.5"/>
      <point x="357.5" y="408.5" type="curve" smooth="yes"/>
      <point x="72.5" y="285.25" type="line"/>
    </contour>
  </outline>
</glyph>
<glyph name="question" format="2">
  <advance width="480.0"/>
  <unicode hex="003F"/>
  <outline>
    <contour>
      <point x="182.25" y="322.5" type="curve"/>
      <point x="309.25" y="322.5" type="line"/>
      <point x="372.25" y="487.25"/>
      <point x="559.25" y="552.0"/>
      <point x="559.25" y="725.25" type="curve" smooth="yes"/>
      <point x="559.25" y="851.0"/>
      <point x="460.5" y="916.5"/>
      <point x="348.0" y="916.5" type="curve" smooth="yes"/>
      <point x="300.5" y="916.5"/>
      <point x="257.5" y="905.25"/>
      <point x="217.5" y="884.0" type="curve"/>
      <point x="178.0" y="719.25" type="line"/>
      <point x="212.75" y="748.0"/>
      <point x="261.75" y="774.5"/>
      <point x="314.5" y="774.5" type="curve" smooth="yes"/>
      <point x="368.5" y="774.5"/>
      <point x="404.5" y="743.25"/>
      <point x="404.5" y="699.5" type="curve" smooth="yes"/>
      <point x="404.5" y="599.75"/>
      <point x="217.0" y="504.25"/>
    </contour>
    <contour>
      <point x="173.5" y="-18.0" type="curve" smooth="yes"/>
      <point x="232.0" y="-18.0"/>
      <point x="283.0" y="33.0"/>
      <point x="283.0" y="91.5" type="curve" smooth="yes"/>
      <point x="283.0" y="140.0"/>
      <point x="246.25" y="177.0"/>
      <point x="197.5" y="177.0" type="curve" smooth="yes"/>
      <point x="139.0" y="177.0"/>
      <point x="88.0" y="126.0"/>
      <point x="88.0" y="68.25" type="curve" smooth="yes"/>
      <point x="88.0" y="18.5"/>
      <point x="127.0" y="-18.0"/>
    </contour>
  </outline>
</glyph>
<glyph name="at" format="2">
  <advance width="1260.0"/>
  <unicode hex="0040"/>
  <outline>
    <contour>
      <point x="603.0" y="-192.0" type="curve" smooth="yes"/>
      <point x="704.0" y="-192.0"/>
      <point x="800.75" y="-167.75"/>
      <point x="884.25" y="-120.0" type="curve"/>
      <point x="884.25" y="3.5" type="line"/>
      <point x="804.5" y="-46.5"/>
      <point x="716.75" y="-72.25"/>
      <point x="625.75" y="-72.25" type="curve" smooth="yes"/>
      <point x="389.5" y="-72.25"/>
      <point x="220.5" y="84.75"/>
      <point x="220.5" y="305.25" type="curve" smooth="yes"/>
      <point x="220.5" y="568.75"/>
      <point x="447.0" y="790.5"/>
      <point x="715.5" y="790.5" type="curve" smooth="yes"/>
      <point x="934.0" y="790.5"/>
      <point x="1093.0" y="647.25"/>
      <point x="1093.0" y="444.75" type="curve" smooth="yes"/>
      <point x="1093.0" y="295.0"/>
      <point x="1012.5" y="152.25"/>
      <point x="933.0" y="152.25" type="curve" smooth="yes"/>
      <point x="891.25" y="152.25"/>
      <point x="869.75" y="189.75"/>
      <point x="882.0" y="238.0" type="curve" smooth="yes"/>
      <point x="978.0" y="630.0" type="line"/>
      <point x="852.5" y="630.0" type="line"/>
      <point x="824.75" y="514.0" type="line"/>
      <point x="857.5" y="539.75" type="line"/>
      <point x="814.25" y="604.75"/>
      <point x="738.5" y="644.0"/>
      <point x="653.5" y="644.0" type="curve" smooth="yes"/>
      <point x="488.75" y="644.0"/>
      <point x="341.0" y="494.5"/>
      <point x="341.0" y="326.75" type="curve" smooth="yes"/>
      <point x="341.0" y="187.25"/>
      <point x="444.0" y="82.75"/>
      <point x="584.0" y="82.75" type="curve" smooth="yes"/>
      <point x="657.5" y="82.75"/>
      <point x="730.5" y="112.25"/>
      <point x="788.5" y="165.25" type="curve"/>
      <point x="757.25" y="180.5" type="line"/>
      <point x="759.0" y="104.0"/>
      <point x="825.5" y="47.5"/>
      <point x="916.0" y="47.5" type="curve" smooth="yes"/>
      <point x="1080.25" y="47.5"/>
      <point x="1226.5" y="239.25"/>
      <point x="1226.5" y="455.75" type="curve" smooth="yes"/>
      <point x="1226.5" y="716.75"/>
      <point x="1012.25" y="912.0"/>
      <point x="727.5" y="912.0" type="curve" smooth="yes"/>
      <point x="386.5" y="912.0"/>
      <point x="87.0" y="624.75"/>
      <point x="87.0" y="297.0" type="curve" smooth="yes"/>
      <point x="87.0" y="16.0"/>
      <point x="307.0" y="-192.0"/>
    </contour>
    <contour>
      <point x="621.0" y="205.25" type="curve" smooth="yes"/>
      <point x="543.0" y="205.25"/>
      <point x="485.75" y="264.0"/>
      <point x="485.75" y="340.75" type="curve" smooth="yes"/>
      <point x="485.75" y="434.75"/>
      <point x="567.5" y="516.5"/>
      <point x="659.5" y="516.5" type="curve" smooth="yes"/>
      <point x="737.75" y="516.5"/>
      <point x="794.75" y="459.25"/>
      <point x="794.75" y="382.25" type="curve" smooth="yes"/>
      <point x="794.75" y="288.25"/>
      <point x="712.75" y="205.25"/>
    </contour>
  </outline>
</glyph>
<glyph name="A" format="2">
  <advance width="815.0"/>
  <unicode hex="0041"/>
  <anchor x="332.5" y="0.0" name="bottom"/>
  <anchor x="597.75" y="0.0" name="ogonek"/>
  <anchor x="554.25" y="900.0" name="top"/>
  <anchor x="230.25" y="720.0" name="top-vertical"/>
  <outline>
    <contour>
      <point x="-61.5" y="0.0" type="line"/>
      <point x="108.5" y="0.0" type="line"/>
      <point x="393.5" y="432.0" type="line"/>
      <point x="425.75" y="480.25"/>
      <point x="451.75" y="522.0"/>
      <point x="482.0" y="582.5" type="curve"/>
      <point x="483.0" y="521.25"/>
      <point x="490.5" y="480.0"/>
      <point x="498.75" y="432.0" type="curve"/>
      <point x="570.5" y="0.0" type="line"/>
      <point x="726.5" y="0.0" type="line"/>
      <point x="563.0" y="931.5" type="line"/>
      <point x="561.0" y="931.5" type="line"/>
    </contour>
    <contour>
      <point x="165.0" y="186.75" type="line"/>
      <point x="586.5" y="186.75" type="line"/>
      <point x="571.0" y="318.5" type="line"/>
      <point x="246.75" y="318.5" type="line"/>
    </contour>
  </outline>
</glyph>
<glyph name="B" format="2">
  <advance width="750.0"/>
  <unicode hex="0042"/>
  <outline>
    <contour>
      <point x="28.5" y="0.0" type="line"/>
      <point x="351.75" y="0.0" type="line" smooth="yes"/>
      <point x="533.75" y="0.0"/>
      <point x="697.5" y="154.0"/>
      <point x="697.5" y="329.0" type="curve" smooth="yes"/>
      <point x="697.5" y="429.0"/>
      <point x="643.25" y="512.25"/>
      <point x="560.5" y="555.0" type="curve"/>
      <point x="568.5" y="505.5" type="line"/>
      <point x="653.5" y="538.5"/>
      <point x="715.0" y="623.5"/>
      <point x="715.0" y="716.75" type="curve" smooth="yes"/>
      <point x="715.0" y="823.5"/>
      <point x="633.25" y="900.0"/>
      <point x="519.75" y="900.0" type="curve" smooth="yes"/>
      <point x="253.5" y="900.0" type="line"/>
    </contour>
    <contour>
      <point x="223.75" y="147.0" type="line"/>
      <point x="305.25" y="471.0" type="line"/>
      <point x="380.5" y="471.0" type="line" smooth="yes"/>
      <point x="467.25" y="471.0"/>
      <point x="528.0" y="413.0"/>
      <point x="528.0" y="331.25" type="curve" smooth="yes"/>
      <point x="528.0" y="232.5"/>
      <point x="441.0" y="147.0"/>
      <point x="341.5" y="147.0" type="curve" smooth="yes"/>
    </contour>
    <contour>
      <point x="335.25" y="589.5" type="line"/>
      <point x="381.5" y="775.5" type="line"/>
      <point x="477.5" y="775.5" type="line" smooth="yes"/>
      <point x="526.75" y="775.5"/>
      <point x="562.0" y="742.5"/>
      <point x="562.0" y="695.25" type="curve" smooth="yes"/>
      <point x="562.0" y="638.5"/>
      <point x="511.75" y="589.5"/>
      <point x="452.25" y="589.5" type="curve" smooth="yes"/>
    </contour>
  </outline>
</glyph>
<glyph name="C" format="2">
  <advance width="877.5"/>
  <unicode hex="0043"/>
  <anchor x="428.25" y="0.0" name="bottom"/>
  <anchor x="650.25" y="900.0" name="top"/>
  <outline>
    <contour>
      <point x="512.75" y="-18.0" type="curve" smooth="yes"/>
      <point x="621.5" y="-18.0"/>
      <point x="725.5" y="20.0"/>
      <point x="812.75" y="82.5" type="curve"/>
      <point x="812.75" y="306.75" type="line"/>
      <point x="751.25" y="209.0"/>
      <point x="644.75" y="139.5"/>
      <point x="530.5" y="139.5" type="curve" smooth="yes"/>
      <point x="380.5" y="139.5"/>
      <point x="265.5" y="257.25"/>
      <point x="265.5" y="410.5" type="curve" smooth="yes"/>
      <point x="265.5" y="593.5"/>
      <point x="425.75" y="760.5"/>
      <point x="604.25" y="760.5" type="curve" smooth="yes"/>
      <point x="707.25" y="760.5"/>
      <point x="792.5" y="706.0"/>
      <point x="836.5" y="622.75" type="curve"/>
      <point x="920.75" y="797.25" type="line"/>
      <point x="845.75" y="872.5"/>
      <point x="740.75" y="918.0"/>
      <point x="621.25" y="918.0" type="curve" smooth="yes"/>
      <point x="343.25" y="918.0"/>
      <point x="93.5" y="669.75"/>
      <point x="93.5" y="395.75" type="curve" smooth="yes"/>
      <point x="93.5" y="162.75"/>
      <point x="275.0" y="-18.0"/>
    </contour>
  </outline>
</glyph>
<glyph name="D" format="2">
  <advance width="945.0"/>
  <unicode hex="0044"/>
  <anchor x="332.0" y="0.0" name="bottom"/>
  <anchor x="222.0" y="480.0" name="center"/>
  <anchor x="557.0" y="914.0" name="top"/>
  <outline>
    <contour>
      <point x="28.5" y="0.0" type="line"/>
      <point x="397.75" y="0.0" type="line" smooth="yes"/>
      <point x="675.75" y="0.0"/>
      <point x="925.5" y="235.5"/>
      <point x="925.5" y="502.0" type="curve" smooth="yes"/>
      <point x="925.5" y="729.0"/>
      <point x="743.25" y="900.0"/>
      <point x="506.25" y="900.0" type="curve" smooth="yes"/>
      <point x="253.5" y="900.0" type="line"/>
    </contour>
    <contour>
      <point x="223.75" y="147.0" type="line"/>
      <point x="376.25" y="753.0" type="line"/>
      <point x="477.25" y="753.0" type="line" smooth="yes"/>
      <point x="638.5" y="753.0"/>
      <point x="753.5" y="644.25"/>
      <point x="753.5" y="491.0" type="curve" smooth="yes"/>
      <point x="753.5" y="307.25"/>
      <point x="590.25" y="147.0"/>
      <point x="403.5" y="147.0" type="curve" smooth="yes"/>
    </contour>
  </outline>
</glyph>
<glyph name="E" format="2">
  <advance width="630.0"/>
  <unicode hex="0045"/>
  <anchor x="273.0" y="0.0" name="bottom"/>
  <anchor x="431.5" y="0.0" name="ogonek"/>
  <anchor x="498.0" y="900.0" name="top"/>
  <anchor x="276.0" y="900.0" name="topleft"/>
  <outline>
    <contour>
      <point x="28.5" y="0.0" type="line"/>
      <point x="499.5" y="0.0" type="line"/>
      <point x="535.75" y="147.0" type="line"/>
      <point x="223.75" y="147.0" type="line"/>
      <point x="304.75" y="468.0" type="line"/>
      <point x="547.5" y="468.0" type="line"/>
      <point x="581.5" y="606.0" type="line"/>
      <point x="339.5" y="606.0" type="line"/>
      <point x="377.0" y="757.5" type="line"/>
      <point x="689.0" y="757.5" type="line"/>
      <point x="724.5" y="900.0" type="line"/>
      <point x="253.5" y="900.0" type="line"/>
    </contour>
  </outline>
</glyph>
<glyph name="F" format="2">
  <advance width="600.0"/>
  <unicode hex="0046"/>
  <outline>
    <contour>
      <point x="28.5" y="0.0" type="line"/>
      <point x="187.5" y="0.0" type="line"/>
      <point x="304.5" y="468.0" type="line"/>
      <point x="587.5" y="468.0" type="line"/>
      <point x="621.5" y="606.0" type="line"/>
      <point x="339.5" y="606.0" type="line"/>
      <point x="378.5" y="762.0" type="line"/>
      <point x="690.5" y="762.0" type="line"/>
      <point x="724.5" y="900.0" type="line"/>
      <point x="253.5" y="900.0" type="line"/>
    </contour>
  </outline>
</glyph>
<glyph name="G" format="2">
  <advance width="925.0"/>
  <unicode hex="0047"/>
  <anchor x="506.25" y="0.0" name="bottom"/>
  <anchor x="776.25" y="270.0" name="center"/>
  <anchor x="628.75" y="900.0" name="top"/>
  <outline>
    <contour>
      <point x="512.75" y="-18.0" type="curve" smooth="yes"/>
      <point x="614.5" y="-18.0"/>
      <point x="712.75" y="14.75"/>
      <point x="796.75" y="71.5" type="curve"/>
      <point x="900.25" y="498.0" type="line"/>
      <point x="550.5" y="498.0" type="line"/>
      <point x="516.5" y="360.0" type="line"/>
      <point x="715.75" y="360.0" type="line"/>
      <point x="671.0" y="175.75" type="line"/>
      <point x="628.75" y="153.0"/>
      <point x="580.5" y="139.5"/>
      <point x="530.5" y="139.5" type="curve" smooth="yes"/>
      <point x="380.5" y="139.5"/>
      <point x="265.5" y="257.25"/>
      <point x="265.5" y="410.5" type="curve" smooth="yes"/>
      <point x="265.5" y="593.5"/>
      <point x="425.75" y="760.5"/>
      <point x="604.25" y="760.5" type="curve" smooth="yes"/>
      <point x="707.25" y="760.5"/>
      <point x="792.5" y="706.0"/>
      <point x="836.5" y="622.75" type="curve"/>
      <point x="920.75" y="797.25" type="line"/>
      <point x="845.75" y="872.5"/>
      <point x="740.75" y="918.0"/>
      <point x="621.25" y="918.0" type="curve" smooth="yes"/>
      <point x="343.25" y="918.0"/>
      <point x="93.5" y="669.75"/>
      <point x="93.5" y="395.75" type="curve" smooth="yes"/>
      <point x="93.5" y="162.75"/>
      <point x="275.0" y="-18.0"/>
    </contour>
  </outline>
</glyph>
<glyph name="H" format="2">
  <advance width="800.0"/>
  <unicode hex="0048"/>
  <anchor x="327.25" y="0.0" name="bottom"/>
  <anchor x="512.25" y="750.0" name="center"/>
  <anchor x="549.25" y="900.0" name="top"/>
  <anchor x="275.25" y="900.0" name="topleft"/>
  <outline>
    <contour>
      <point x="28.5" y="0.0" type="line"/>
      <point x="187.5" y="0.0" type="line"/>
      <point x="303.75" y="463.5" type="line"/>
      <point x="578.75" y="463.5" type="line"/>
      <point x="462.5" y="0.0" type="line"/>
      <point x="621.5" y="0.0" type="line"/>
      <point x="846.5" y="900.0" type="line"/>
      <point x="687.5" y="900.0" type="line"/>
      <point x="616.0" y="610.5" type="line"/>
      <point x="341.0" y="610.5" type="line"/>
      <point x="412.5" y="900.0" type="line"/>
      <point x="253.5" y="900.0" type="line"/>
    </contour>
  </outline>
</glyph>
<glyph name="J" format="2">
  <advance width="555.0"/>
  <unicode hex="004A"/>
  <anchor x="91.25" y="0.0" name="bottom"/>
  <anchor x="531.75" y="900.0" name="top"/>
  <outline>
    <contour>
      <point x="158.5" y="-18.0" type="curve" smooth="yes"/>
      <point x="280.5" y="-18.0"/>
      <point x="404.25" y="58.75"/>
      <point x="448.0" y="233.0" type="curve" smooth="yes"/>
      <point x="615.0" y="900.0" type="line"/>
      <point x="447.0" y="900.0" type="line"/>
      <point x="287.5" y="265.0" type="line" smooth="yes"/>
      <point x="264.0" y="172.75"/>
      <point x="213.0" y="133.5"/>
      <point x="155.25" y="133.5" type="curve" smooth="yes"/>
      <point x="97.0" y="133.5"/>
      <point x="50.75" y="171.75"/>
      <point x="34.0" y="220.75" type="curve"/>
      <point x="-46.75" y="73.0" type="line"/>
      <point x="-2.5" y="3.5"/>
      <point x="94.5" y="-18.0"/>
    </contour>
  </outline>
</glyph>
<glyph name="K" format="2">
  <advance width="795.0"/>
  <unicode hex="004B"/>
  <anchor x="363.0" y="0.0" name="bottom"/>
  <anchor x="547.0" y="900.0" name="top"/>
  <outline>
    <contour>
      <point x="544.75" y="0.0" type="line"/>
      <point x="721.75" y="0.0" type="line"/>
      <point x="488.5" y="621.0" type="line"/>
      <point x="483.0" y="540.0" type="line"/>
      <point x="852.5" y="900.0" type="line"/>
      <point x="659.0" y="900.0" type="line"/>
      <point x="332.0" y="579.0" type="line"/>
    </contour>
    <contour>
      <point x="28.5" y="0.0" type="line"/>
      <point x="192.0" y="0.0" type="line"/>
      <point x="417.0" y="900.0" type="line"/>
      <point x="253.5" y="900.0" type="line"/>
    </contour>
  </outline>
</glyph>
<glyph name="L" format="2">
  <advance width="600.0"/>
  <unicode hex="004C"/>
  <anchor x="264.0" y="0.0" name="bottom"/>
  <anchor x="219.0" y="450.0" name="center"/>
  <anchor x="463.0" y="480.0" name="periodcentered"/>
  <anchor x="337.5" y="900.0" name="top"/>
  <anchor x="432.0" y="900.0" name="topright"/>
  <outline>
    <contour>
      <point x="28.5" y="0.0" type="line"/>
      <point x="477.0" y="0.0" type="line"/>
      <point x="513.25" y="147.0" type="line"/>
      <point x="232.75" y="147.0" type="line"/>
      <point x="421.5" y="900.0" type="line"/>
      <point x="253.5" y="900.0" type="line"/>
    </contour>
  </outline>
</glyph>
<glyph name="M" format="2">
  <advance width="1050.0"/>
  <unicode hex="004D"/>
  <outline>
    <contour>
      <point x="28.5" y="0.0" type="line"/>
      <point x="181.5" y="0.0" type="line"/>
      <point x="250.25" y="273.5" type="line" smooth="yes"/>
      <point x="266.75" y="337.75"/>
      <point x="286.75" y="413.75"/>
      <point x="299.0" y="519.25" type="curve"/>
      <point x="323.25" y="443.0"/>
      <point x="358.75" y="376.25"/>
      <point x="382.0" y="329.0" type="curve" smooth="yes"/>
      <point x="478.25" y="135.75" type="line"/>
      <point x="718.25" y="377.0" type="line" smooth="yes"/>
      <point x="756.5" y="415.75"/>
      <point x="800.0" y="458.0"/>
      <point x="849.0" y="519.25" type="curve"/>
      <point x="823.0" y="436.25"/>
      <point x="806.75" y="374.25"/>
      <point x="793.25" y="321.5" type="curve" smooth="yes"/>
      <point x="712.75" y="1.0" type="line"/>
      <point x="871.75" y="1.0" type="line"/>
      <point x="1109.25" y="954.0" type="line"/>
      <point x="534.5" y="386.0" type="line"/>
      <point x="254.25" y="906.0" type="line"/>
    </contour>
  </outline>
</glyph>
<glyph name="N" format="2">
  <advance width="922.5"/>
  <unicode hex="004E"/>
  <anchor x="457.5" y="60.0" name="bottom"/>
  <anchor x="562.5" y="840.0" name="top"/>
  <outline>
    <contour>
      <point x="737.0" y="-30.0" type="line"/>
      <point x="969.0" y="900.0" type="line"/>
      <point x="816.0" y="900.0" type="line"/>
      <point x="674.75" y="332.75" type="line"/>
      <point x="260.5" y="930.0" type="line"/>
      <point x="28.5" y="0.0" type="line"/>
      <point x="181.5" y="0.0" type="line"/>
      <point x="322.75" y="568.0" type="line"/>
    </contour>
  </outline>
</glyph>
<glyph name="O" format="2">
  <advance width="1060.0"/>
  <unicode hex="004F"/>
  <anchor x="456.75" y="0.0" name="bottom"/>
  <anchor x="567.75" y="450.0" name="center"/>
  <anchor x="486.75" y="0.0" name="ogonek"/>
  <anchor x="678.75" y="900.0" name="top"/>
  <anchor x="576.75" y="487.5" name="top-vertical"/>
  <anchor x="208.75" y="900.0" name="topleft"/>
  <anchor x="1148.75" y="900.0" name="topright"/>
  <outline>
    <contour>
      <point x="512.75" y="-18.0" type="curve" smooth="yes"/>
      <point x="791.5" y="-18.0"/>
      <point x="1040.5" y="230.25"/>
      <point x="1040.5" y="503.5" type="curve" smooth="yes"/>
      <point x="1040.5" y="736.5"/>
      <point x="859.0" y="918.0"/>
      <point x="621.25" y="918.0" type="curve" smooth="yes"/>
      <point x="343.25" y="918.0"/>
      <point x="93.5" y="669.75"/>
      <point x="93.5" y="395.75" type="curve" smooth="yes"/>
      <point x="93.5" y="162.75"/>
      <point x="275.0" y="-18.0"/>
    </contour>
    <contour>
      <point x="530.5" y="139.5" type="curve" smooth="yes"/>
      <point x="380.5" y="139.5"/>
      <point x="265.5" y="257.25"/>
      <point x="265.5" y="410.5" type="curve" smooth="yes"/>
      <point x="265.5" y="593.5"/>
      <point x="425.75" y="760.5"/>
      <point x="604.25" y="760.5" type="curve" smooth="yes"/>
      <point x="755.0" y="760.5"/>
      <point x="868.5" y="644.25"/>
      <point x="868.5" y="491.0" type="curve" smooth="yes"/>
      <point x="868.5" y="307.25"/>
      <point x="709.0" y="139.5"/>
    </contour>
  </outline>
</glyph>
<glyph name="P" format="2">
  <advance width="735.0"/>
  <unicode hex="0050"/>
  <outline>
    <contour>
      <point x="179.0" y="295.75" type="line"/>
      <point x="418.75" y="295.75" type="line" smooth="yes"/>
      <point x="609.75" y="295.75"/>
      <point x="775.5" y="454.0"/>
      <point x="775.5" y="632.75" type="curve" smooth="yes"/>
      <point x="775.5" y="785.25"/>
      <point x="653.25" y="900.0"/>
      <point x="491.25" y="900.0" type="curve" smooth="yes"/>
      <point x="329.0" y="900.0" type="line"/>
      <point x="293.5" y="757.5" type="line"/>
      <point x="454.5" y="757.5" type="line" smooth="yes"/>
      <point x="551.0" y="757.5"/>
      <point x="612.0" y="700.25"/>
      <point x="612.0" y="619.75" type="curve" smooth="yes"/>
      <point x="612.0" y="522.25"/>
      <point x="526.25" y="438.25"/>
      <point x="415.5" y="438.25" type="curve" smooth="yes"/>
      <point x="214.5" y="438.25" type="line"/>
    </contour>
    <contour>
      <point x="28.5" y="0.0" type="line"/>
      <point x="187.5" y="0.0" type="line"/>
      <point x="412.5" y="900.0" type="line"/>
      <point x="253.5" y="900.0" type="line"/>
    </contour>
  </outline>
</glyph>
<glyph name="Q" format="2">
  <advance width="1060.0"/>
  <unicode hex="0051"/>
  <outline>
    <contour>
      <point x="512.75" y="-18.0" type="curve" smooth="yes"/>
      <point x="791.5" y="-18.0"/>
      <point x="1040.5" y="230.25"/>
      <point x="1040.5" y="503.5" type="curve" smooth="yes"/>
      <point x="1040.5" y="736.5"/>
      <point x="859.0" y="918.0"/>
      <point x="621.25" y="918.0" type="curve" smooth="yes"/>
      <point x="343.25" y="918.0"/>
      <point x="93.5" y="669.75"/>
      <point x="93.5" y="395.75" type="curve" smooth="yes"/>
      <point x="93.5" y="162.75"/>
      <point x="275.0" y="-18.0"/>
    </contour>
    <contour>
      <point x="530.5" y="139.5" type="curve" smooth="yes"/>
      <point x="380.5" y="139.5"/>
      <point x="265.5" y="257.25"/>
      <point x="265.5" y="410.5" type="curve" smooth="yes"/>
      <point x="265.5" y="593.5"/>
      <point x="425.75" y="760.5"/>
      <point x="604.25" y="760.5" type="curve" smooth="yes"/>
      <point x="755.0" y="760.5"/>
      <point x="868.5" y="644.25"/>
      <point x="868.5" y="491.0" type="curve" smooth="yes"/>
      <point x="868.5" y="307.25"/>
      <point x="709.0" y="139.5"/>
    </contour>
    <contour>
      <point x="755.0" y="-30.0" type="line"/>
      <point x="928.0" y="-30.0" type="line"/>
      <point x="647.0" y="450.0" type="line"/>
      <point x="474.5" y="450.0" type="line"/>
      <point x="673.5" y="111.0" type="line"/>
      <point x="677.0" y="105.0" type="line"/>
    </contour>
  </outline>
</glyph>
<glyph name="R" format="2">
  <advance width="795.0"/>
  <unicode hex="0052"/>
  <anchor x="365.5" y="0.0" name="bottom"/>
  <anchor x="473.5" y="900.0" name="top"/>
  <outline>
    <contour>
      <point x="33.0" y="0.0" type="line"/>
      <point x="192.0" y="0.0" type="line"/>
      <point x="415.5" y="900.0" type="line"/>
      <point x="256.5" y="900.0" type="line"/>
    </contour>
    <contour>
      <point x="201.75" y="360.0" type="line"/>
      <point x="437.5" y="360.0" type="line" smooth="yes"/>
      <point x="604.5" y="360.0"/>
      <point x="754.25" y="501.5"/>
      <point x="754.25" y="661.5" type="curve" smooth="yes"/>
      <point x="754.25" y="798.0"/>
      <point x="644.5" y="900.0"/>
      <point x="502.5" y="900.0" type="curve" smooth="yes"/>
      <point x="336.0" y="900.0" type="line"/>
      <point x="299.75" y="753.0" type="line"/>
      <point x="467.0" y="753.0" type="line" smooth="yes"/>
      <point x="545.5" y="753.0"/>
      <point x="596.0" y="708.75"/>
      <point x="596.0" y="642.25" type="curve" smooth="yes"/>
      <point x="596.0" y="562.5"/>
      <point x="524.75" y="496.5"/>
      <point x="436.25" y="496.5" type="curve" smooth="yes"/>
      <point x="235.5" y="496.5" type="line"/>
    </contour>
    <contour>
      <point x="553.5" y="0.0" type="line"/>
      <point x="723.0" y="0.0" type="line"/>
      <point x="555.0" y="444.0" type="line"/>
      <point x="392.0" y="444.0" type="line"/>
    </contour>
  </outline>
</glyph>
<glyph name="S" format="2">
  <advance width="660.0"/>
  <unicode hex="0053"/>
  <anchor x="244.5" y="0.0" name="bottom"/>
  <anchor x="487.5" y="900.0" name="top"/>
  <outline>
    <contour>
      <point x="290.75" y="-16.5" type="curve" smooth="yes"/>
      <point x="462.25" y="-16.5"/>
      <point x="604.25" y="120.0"/>
      <point x="604.25" y="282.75" type="curve" smooth="yes"/>
      <point x="604.25" y="368.75"/>
      <point x="564.5" y="433.5"/>
      <point x="476.25" y="499.5" type="curve" smooth="yes"/>
      <point x="384.0" y="569.25" type="line" smooth="yes"/>
      <point x="337.0" y="604.75"/>
      <point x="318.25" y="631.75"/>
      <point x="318.25" y="666.25" type="curve" smooth="yes"/>
      <point x="318.25" y="726.5"/>
      <point x="368.75" y="771.75"/>
      <point x="433.75" y="771.75" type="curve" smooth="yes"/>
      <point x="508.0" y="771.75"/>
      <point x="583.75" y="715.75"/>
      <point x="621.5" y="634.0" type="curve"/>
      <point x="707.75" y="807.0" type="line"/>
      <point x="646.5" y="874.25"/>
      <point x="546.75" y="916.5"/>
      <point x="449.75" y="916.5" type="curve" smooth="yes"/>
      <point x="286.25" y="916.5"/>
      <point x="157.75" y="795.5"/>
      <point x="157.75" y="643.75" type="curve" smooth="yes"/>
      <point x="157.75" y="565.5"/>
      <point x="192.5" y="512.0"/>
      <point x="281.5" y="441.25" type="curve" smooth="yes"/>
      <point x="372.5" y="369.25" type="line" smooth="yes"/>
      <point x="421.25" y="331.0"/>
      <point x="444.0" y="297.25"/>
      <point x="444.0" y="255.5" type="curve" smooth="yes"/>
      <point x="444.0" y="186.75"/>
      <point x="381.0" y="130.25"/>
      <point x="304.5" y="130.25" type="curve" smooth="yes"/>
      <point x="216.75" y="130.25"/>
      <point x="128.0" y="205.0"/>
      <point x="103.0" y="298.5" type="curve"/>
      <point x="13.75" y="122.25" type="line"/>
      <point x="66.5" y="40.0"/>
      <point x="180.25" y="-16.5"/>
    </contour>
  </outline>
</glyph>
<glyph name="T" format="2">
  <advance width="705.0"/>
  <unicode hex="0054"/>
  <anchor x="277.5" y="0.0" name="bottom"/>
  <anchor x="388.5" y="450.0" name="center"/>
  <anchor x="502.5" y="900.0" name="top"/>
  <outline>
    <contour>
      <point x="157.25" y="753.0" type="line"/>
      <point x="775.25" y="753.0" type="line"/>
      <point x="811.5" y="900.0" type="line"/>
      <point x="193.5" y="900.0" type="line"/>
    </contour>
    <contour>
      <point x="193.5" y="0.0" type="line"/>
      <point x="361.5" y="0.0" type="line"/>
      <point x="586.5" y="900.0" type="line"/>
      <point x="418.5" y="900.0" type="line"/>
    </contour>
  </outline>
</glyph>
<glyph name="U" format="2">
  <advance width="800.0"/>
  <unicode hex="0055"/>
  <anchor x="327.0" y="0.0" name="bottom"/>
  <anchor x="357.0" y="0.0" name="ogonek"/>
  <anchor x="550.5" y="900.0" name="top"/>
  <anchor x="504.0" y="720.0" name="top-vertical"/>
  <anchor x="785.0" y="900.0" name="topright"/>
  <outline>
    <contour>
      <point x="365.5" y="-18.0" type="curve" smooth="yes"/>
      <point x="539.75" y="-18.0"/>
      <point x="666.25" y="89.25"/>
      <point x="710.5" y="266.25" type="curve" smooth="yes"/>
      <point x="869.0" y="900.0" type="line"/>
      <point x="706.5" y="900.0" type="line"/>
      <point x="553.0" y="285.25" type="line" smooth="yes"/>
      <point x="530.25" y="194.75"/>
      <point x="466.25" y="137.25"/>
      <point x="382.25" y="137.25" type="curve" smooth="yes"/>
      <point x="282.25" y="137.25"/>
      <point x="229.25" y="219.25"/>
      <point x="256.0" y="327.75" type="curve" smooth="yes"/>
      <point x="399.0" y="900.0" type="line"/>
      <point x="231.0" y="900.0" type="line"/>
      <point x="91.25" y="340.75" type="line" smooth="yes"/>
      <point x="41.25" y="140.0"/>
      <point x="156.5" y="-18.0"/>
    </contour>
  </outline>
</glyph>
<glyph name="V" format="2">
  <advance width="765.0"/>
  <unicode hex="0056"/>
  <outline>
    <contour>
      <point x="300.5" y="-30.0" type="line"/>
      <point x="302.5" y="-30.0" type="line"/>
      <point x="907.5" y="900.0" type="line"/>
      <point x="733.75" y="900.0" type="line"/>
      <point x="467.25" y="487.0" type="line" smooth="yes"/>
      <point x="427.75" y="425.75"/>
      <point x="400.75" y="383.75"/>
      <point x="362.5" y="300.25" type="curve"/>
      <point x="396.0" y="300.25" type="line"/>
      <point x="397.75" y="384.5"/>
      <point x="388.5" y="430.25"/>
      <point x="380.0" y="487.0" type="curve" smooth="yes"/>
      <point x="320.25" y="900.0" type="line"/>
      <point x="157.5" y="900.0" type="line"/>
    </contour>
  </outline>
</glyph>
<glyph name="W" format="2">
  <advance width="1215.0"/>
  <unicode hex="0057"/>
  <anchor x="536.5" y="0.0" name="bottom"/>
  <anchor x="761.5" y="900.0" name="top"/>
  <outline>
    <contour>
      <point x="289.75" y="-31.5" type="line"/>
      <point x="601.5" y="448.25" type="line" smooth="yes"/>
      <point x="624.75" y="483.75"/>
      <point x="647.5" y="517.75"/>
      <point x="676.5" y="572.5" type="curve"/>
      <point x="678.25" y="517.75"/>
      <point x="684.5" y="483.0"/>
      <point x="690.0" y="447.5" type="curve" smooth="yes"/>
      <point x="761.5" y="-31.5" type="line"/>
      <point x="1357.5" y="900.0" type="line"/>
      <point x="1183.75" y="900.0" type="line"/>
      <point x="914.5" y="477.0" type="line" smooth="yes"/>
      <point x="892.0" y="441.5"/>
      <point x="871.25" y="407.25"/>
      <point x="842.25" y="352.5" type="curve"/>
      <point x="840.5" y="407.25"/>
      <point x="832.0" y="441.5"/>
      <point x="826.5" y="477.0" type="curve" smooth="yes"/>
      <point x="757.5" y="930.0" type="line"/>
      <point x="464.25" y="477.0" type="line" smooth="yes"/>
      <point x="440.5" y="440.5"/>
      <point x="417.75" y="406.25"/>
      <point x="389.25" y="352.5" type="curve"/>
      <point x="387.0" y="406.25"/>
      <point x="382.25" y="440.5"/>
      <point x="377.25" y="477.0" type="curve" smooth="yes"/>
      <point x="318.0" y="900.0" type="line"/>
      <point x="157.5" y="900.0" type="line"/>
    </contour>
  </outline>
</glyph>
<glyph name="X" format="2">
  <advance width="870.0"/>
  <unicode hex="0058"/>
  <outline>
    <contour>
      <point x="-69.0" y="0.0" type="line"/>
      <point x="128.5" y="0.0" type="line"/>
      <point x="367.5" y="277.5" type="line" smooth="yes"/>
      <point x="411.25" y="328.25"/>
      <point x="453.5" y="381.0"/>
      <point x="513.25" y="461.5" type="curve"/>
      <point x="453.75" y="459.25" type="line"/>
      <point x="476.75" y="379.5"/>
      <point x="492.75" y="326.75"/>
      <point x="512.25" y="276.0" type="curve" smooth="yes"/>
      <point x="617.0" y="0.0" type="line"/>
      <point x="793.5" y="0.0" type="line"/>
      <point x="596.25" y="516.25" type="line"/>
      <point x="931.5" y="900.0" type="line"/>
      <point x="741.75" y="900.0" type="line"/>
      <point x="616.5" y="760.5" type="line" smooth="yes"/>
      <point x="573.5" y="712.25"/>
      <point x="532.25" y="661.5"/>
      <point x="475.25" y="578.25" type="curve"/>
      <point x="511.0" y="578.25" type="line"/>
      <point x="495.0" y="661.5"/>
      <point x="477.75" y="711.5"/>
      <point x="459.25" y="759.75" type="curve" smooth="yes"/>
      <point x="405.75" y="900.0" type="line"/>
      <point x="232.5" y="900.0" type="line"/>
      <point x="381.25" y="522.75" type="line"/>
    </contour>
  </outline>
</glyph>
<glyph name="Y" format="2">
  <advance width="705.0"/>
  <unicode hex="0059"/>
  <anchor x="278.5" y="0.0" name="bottom"/>
  <anchor x="501.25" y="900.0" name="top"/>
  <anchor x="178.25" y="900.0" name="topleft"/>
  <outline>
    <contour>
      <point x="195.75" y="0.0" type="line"/>
      <point x="359.25" y="0.0" type="line"/>
      <point x="466.75" y="428.25" type="line"/>
      <point x="846.0" y="900.0" type="line"/>
      <point x="661.5" y="900.75" type="line"/>
      <point x="490.0" y="683.0" type="line" smooth="yes"/>
      <point x="457.75" y="641.75"/>
      <point x="429.0" y="605.5"/>
      <point x="388.25" y="535.75" type="curve"/>
      <point x="421.0" y="535.5" type="line"/>
      <point x="417.25" y="604.5"/>
      <point x="406.0" y="642.75"/>
      <point x="394.0" y="683.0" type="curve" smooth="yes"/>
      <point x="331.5" y="900.0" type="line"/>
      <point x="159.0" y="900.0" type="line"/>
      <point x="303.25" y="428.25" type="line"/>
    </contour>
  </outline>
</glyph>
<glyph name="Z" format="2">
  <advance width="675.0"/>
  <unicode hex="005A"/>
  <anchor x="251.25" y="0.0" name="bottom"/>
  <anchor x="371.25" y="450.0" name="center"/>
  <anchor x="505.5" y="900.0" name="top"/>
  <outline>
    <contour>
      <point x="-46.5" y="0.0" type="line"/>
      <point x="548.25" y="0.0" type="line"/>
      <point x="584.5" y="147.0" type="line"/>
      <point x="150.5" y="147.0" type="line"/>
      <point x="169.0" y="56.0" type="line"/>
      <point x="792.75" y="900.0" type="line"/>
      <point x="222.0" y="900.0" type="line"/>
      <point x="185.75" y="753.0" type="line"/>
      <point x="586.75" y="753.0" type="line"/>
      <point x="577.25" y="844.0" type="line"/>
    </contour>
  </outline>
</glyph>
<glyph name="bracketleft" format="2">
  <advance width="480.0"/>
  <unicode hex="005B"/>
  <outline>
    <contour>
      <point x="-22.5" y="-180.0" type="line"/>
      <point x="300.0" y="-180.0" type="line"/>
      <point x="329.5" y="-58.5" type="line"/>
      <point x="145.0" y="-58.5" type="line"/>
      <point x="371.0" y="838.5" type="line"/>
      <point x="555.5" y="838.5" type="line"/>
      <point x="585.0" y="960.0" type="line"/>
      <point x="262.5" y="960.0" type="line"/>
    </contour>
  </outline>
</glyph>
<glyph name="backslash" format="2">
  <advance width="540.0"/>
  <unicode hex="005C"/>
  <outline>
    <contour>
      <point x="368.25" y="-180.0" type="line"/>
      <point x="498.5" y="-180.0" type="line"/>
      <point x="222.5" y="960.0" type="line"/>
      <point x="91.5" y="960.0" type="line"/>
    </contour>
  </outline>
</glyph>
<glyph name="bracketright" format="2">
  <advance width="480.0"/>
  <unicode hex="005D"/>
  <outline>
    <contour>
      <point x="-60.0" y="-180.0" type="line"/>
      <point x="262.5" y="-180.0" type="line"/>
      <point x="547.5" y="960.0" type="line"/>
      <point x="225.0" y="960.0" type="line"/>
      <point x="195.5" y="838.5" type="line"/>
      <point x="380.0" y="838.5" type="line"/>
      <point x="154.0" y="-58.5" type="line"/>
      <point x="-30.5" y="-58.5" type="line"/>
    </contour>
  </outline>
</glyph>
<glyph name="asciicircum" format="2">
  <advance width="750.0"/>
  <unicode hex="005E"/>
  <outline>
    <contour>
      <point x="27.25" y="169.5" type="line"/>
      <point x="178.5" y="169.5" type="line"/>
      <point x="364.5" y="424.5" type="line" smooth="yes"/>
      <point x="391.5" y="461.5"/>
      <point x="418.75" y="504.5"/>
      <point x="445.0" y="545.5" type="curve"/>
      <point x="451.75" y="504.5"/>
      <point x="458.5" y="461.5"/>
      <point x="467.5" y="424.5" type="curve" smooth="yes"/>
      <point x="527.0" y="169.5" type="line"/>
      <point x="658.25" y="169.5" type="line"/>
      <point x="502.25" y="810.0" type="line"/>
    </contour>
  </outline>
</glyph>
<glyph name="underscore" format="2">
  <advance width="720.0"/>
  <unicode hex="005F"/>
  <outline>
    <contour>
      <point x="-129.0" y="-195.75" type="line"/>
      <point x="603.0" y="-195.75" type="line"/>
      <point x="632.5" y="-74.25" type="line"/>
      <point x="-99.5" y="-74.25" type="line"/>
    </contour>
  </outline>
</glyph>
<glyph name="a" format="2">
  <advance width="745.0"/>
  <unicode hex="0061"/>
  <anchor x="280.25" y="0.0" name="bottom"/>
  <anchor x="525.5" y="0.0" name="ogonek"/>
  <anchor x="435.75" y="600.0" name="top"/>
  <outline>
    <contour>
      <point x="293.75" y="-12.5" type="curve" smooth="yes"/>
      <point x="389.25" y="-12.5"/>
      <point x="469.0" y="39.75"/>
      <point x="523.0" y="110.5" type="curve"/>
      <point x="496.5" y="150.0" type="line"/>
      <point x="459.0" y="0.0" type="line"/>
      <point x="596.5" y="0.0" type="line"/>
      <point x="745.75" y="600.0" type="line"/>
      <point x="608.25" y="600.0" type="line"/>
      <point x="570.5" y="450.75" type="line"/>
      <point x="625.0" y="475.25" type="line"/>
      <point x="582.25" y="559.25"/>
      <point x="492.0" y="612.5"/>
      <point x="389.25" y="612.5" type="curve" smooth="yes"/>
      <point x="208.5" y="612.5"/>
      <point x="40.5" y="447.25"/>
      <point x="40.5" y="257.75" type="curve" smooth="yes"/>
      <point x="40.5" y="104.25"/>
      <point x="152.0" y="-12.5"/>
    </contour>
    <contour>
      <point x="337.25" y="126.75" type="curve" smooth="yes"/>
      <point x="250.25" y="126.75"/>
      <point x="189.5" y="194.5"/>
      <point x="189.5" y="278.5" type="curve" smooth="yes"/>
      <point x="189.5" y="379.75"/>
      <point x="277.25" y="472.5"/>
      <point x="379.25" y="472.5" type="curve" smooth="yes"/>
      <point x="466.25" y="472.5"/>
      <point x="527.0" y="406.25"/>
      <point x="527.0" y="321.5" type="curve" smooth="yes"/>
      <point x="527.0" y="219.5"/>
      <point x="439.25" y="126.75"/>
    </contour>
  </outline>
</glyph>
<glyph name="b" format="2">
  <advance width="745.0"/>
  <unicode hex="0062"/>
  <anchor x="306.0" y="0.0" name="bottom"/>
  <anchor x="531.0" y="914.0" name="top"/>
  <outline>
    <contour>
      <point x="355.75" y="-12.5" type="curve" smooth="yes"/>
      <point x="536.5" y="-12.5"/>
      <point x="704.5" y="152.75"/>
      <point x="704.5" y="342.25" type="curve" smooth="yes"/>
      <point x="704.5" y="495.75"/>
      <point x="593.0" y="612.5"/>
      <point x="451.25" y="612.5" type="curve" smooth="yes"/>
      <point x="355.75" y="612.5"/>
      <point x="276.0" y="560.25"/>
      <point x="222.0" y="489.5" type="curve"/>
      <point x="268.5" y="450.0" type="line"/>
      <point x="396.0" y="960.0" type="line"/>
      <point x="238.5" y="960.0" type="line"/>
      <point x="-1.5" y="0.0" type="line"/>
      <point x="136.0" y="0.0" type="line"/>
      <point x="174.5" y="149.25" type="line"/>
      <point x="120.0" y="124.75" type="line"/>
      <point x="162.75" y="40.75"/>
      <point x="253.0" y="-12.5"/>
    </contour>
    <contour>
      <point x="365.75" y="127.5" type="curve" smooth="yes"/>
      <point x="278.75" y="127.5"/>
      <point x="218.0" y="193.75"/>
      <point x="218.0" y="278.5" type="curve" smooth="yes"/>
      <point x="218.0" y="380.5"/>
      <point x="305.75" y="473.25"/>
      <point x="407.75" y="473.25" type="curve" smooth="yes"/>
      <point x="494.75" y="473.25"/>
      <point x="555.5" y="405.5"/>
      <point x="555.5" y="321.5" type="curve" smooth="yes"/>
      <point x="555.5" y="220.25"/>
      <point x="467.75" y="127.5"/>
    </contour>
  </outline>
</glyph>
<glyph name="c" format="2">
  <advance width="607.5"/>
  <unicode hex="0063"/>
  <anchor x="315.5" y="0.0" name="bottom"/>
  <anchor x="426.5" y="600.0" name="top"/>
  <outline>
    <contour>
      <point x="331.5" y="-16.5" type="curve" smooth="yes"/>
      <point x="408.75" y="-16.5"/>
      <point x="480.0" y="6.0"/>
      <point x="533.0" y="47.75" type="curve"/>
      <point x="533.0" y="232.5" type="line"/>
      <point x="503.0" y="181.25"/>
      <point x="435.5" y="126.0"/>
      <point x="347.75" y="126.0" type="curve" smooth="yes"/>
      <point x="253.75" y="126.0"/>
      <point x="191.75" y="192.5"/>
      <point x="191.75" y="278.5" type="curve" smooth="yes"/>
      <point x="191.75" y="381.5"/>
      <point x="280.25" y="474.75"/>
      <point x="389.25" y="474.75" type="curve" smooth="yes"/>
      <point x="461.0" y="474.75"/>
      <point x="512.0" y="436.0"/>
      <point x="533.0" y="380.75" type="curve"/>
      <point x="611.0" y="539.75" type="line"/>
      <point x="560.0" y="587.5"/>
      <point x="490.25" y="616.5"/>
      <point x="407.75" y="616.5" type="curve" smooth="yes"/>
      <point x="211.25" y="616.5"/>
      <point x="40.5" y="450.0"/>
      <point x="40.5" y="263.75" type="curve" smooth="yes"/>
      <point x="40.5" y="100.75"/>
      <point x="169.0" y="-16.5"/>
    </contour>
  </outline>
</glyph>
<glyph name="e" format="2">
  <advance width="695.0"/>
  <unicode hex="0065"/>
  <anchor x="279.5" y="0.0" name="bottom"/>
  <anchor x="419.5" y="0.0" name="ogonek"/>
  <anchor x="427.5" y="600.0" name="top"/>
  <outline>
    <contour>
      <point x="340.25" y="-18.0" type="curve" smooth="yes"/>
      <point x="417.0" y="-18.0"/>
      <point x="489.75" y="7.5"/>
      <point x="542.0" y="47.75" type="curve"/>
      <point x="542.0" y="213.0" type="line"/>
      <point x="507.5" y="158.0"/>
      <point x="428.0" y="115.5"/>
      <point x="355.25" y="115.5" type="curve" smooth="yes"/>
      <point x="257.5" y="115.5"/>
      <point x="191.75" y="182.0"/>
      <point x="191.75" y="286.0" type="curve"/>
      <point x="181.25" y="286.0" type="line"/>
      <point x="181.25" y="398.75"/>
      <point x="272.25" y="489.75"/>
      <point x="386.5" y="489.75" type="curve" smooth="yes"/>
      <point x="492.25" y="489.75"/>
      <point x="547.0" y="414.5"/>
      <point x="522.5" y="303.5" type="curve"/>
      <point x="562.75" y="354.75" type="line"/>
      <point x="524.25" y="366.0"/>
      <point x="483.75" y="371.25"/>
      <point x="434.5" y="371.25" type="curve" smooth="yes"/>
      <point x="305.25" y="371.25" type="line" smooth="yes"/>
      <point x="260.25" y="371.25"/>
      <point x="213.75" y="364.75"/>
      <point x="156.0" y="351.25" type="curve"/>
      <point x="136.5" y="274.25" type="line"/>
      <point x="189.0" y="260.75"/>
      <point x="231.5" y="254.25"/>
      <point x="276.5" y="254.25" type="curve" smooth="yes"/>
      <point x="649.0" y="254.25" type="line"/>
      <point x="661.5" y="304.25" type="line" smooth="yes"/>
      <point x="704.75" y="478.5"/>
      <point x="599.25" y="618.0"/>
      <point x="413.0" y="618.0" type="curve" smooth="yes"/>
      <point x="211.5" y="618.0"/>
      <point x="40.5" y="454.5"/>
      <point x="40.5" y="263.75" type="curve" smooth="yes"/>
      <point x="40.5" y="103.0"/>
      <point x="168.0" y="-18.0"/>
    </contour>
  </outline>
</glyph>
<glyph name="f" format="2">
  <advance width="450.0"/>
  <unicode hex="0066"/>
  <anchor x="111.5" y="0.0" name="bottom"/>
  <anchor x="492.5" y="960.0" name="top"/>
  <outline>
    <contour>
      <point x="66.5" y="0.0" type="line"/>
      <point x="224.0" y="0.0" type="line"/>
      <point x="361.5" y="549.0" type="line"/>
      <point x="358.5" y="549.0" type="line"/>
      <point x="411.0" y="759.25" type="line" smooth="yes"/>
      <point x="428.25" y="827.75"/>
      <point x="462.25" y="847.5"/>
      <point x="494.75" y="847.5" type="curve" smooth="yes"/>
      <point x="528.75" y="847.5"/>
      <point x="554.25" y="831.0"/>
      <point x="571.75" y="800.0" type="curve"/>
      <point x="635.0" y="926.0" type="line"/>
      <point x="597.75" y="959.25"/>
      <point x="537.25" y="972.0"/>
      <point x="492.0" y="972.0" type="curve" smooth="yes"/>
      <point x="387.75" y="972.0"/>
      <point x="295.75" y="909.5"/>
      <point x="262.5" y="775.0" type="curve" smooth="yes"/>
      <point x="207.0" y="550.0" type="line"/>
      <point x="204.0" y="550.0" type="line"/>
    </contour>
    <contour>
      <point x="73.0" y="474.0" type="line"/>
      <point x="463.0" y="474.0" type="line"/>
      <point x="494.25" y="600.0" type="line"/>
      <point x="104.25" y="600.0" type="line"/>
    </contour>
  </outline>
</glyph>
<glyph name="g" format="2">
  <advance width="745.0"/>
  <unicode hex="0067"/>
  <anchor x="217.0" y="-360.0" name="bottom"/>
  <anchor x="600.75" y="300.0" name="center"/>
  <anchor x="453.0" y="600.0" name="top"/>
  <outline>
    <contour>
      <point x="184.75" y="-312.75" type="curve" smooth="yes"/>
      <point x="359.75" y="-330.0"/>
      <point x="538.5" y="-233.75"/>
      <point x="585.75" y="-43.0" type="curve" smooth="yes"/>
      <point x="745.75" y="600.0" type="line"/>
      <point x="608.25" y="600.0" type="line"/>
      <point x="570.5" y="450.75" type="line"/>
      <point x="625.0" y="475.25" type="line"/>
      <point x="582.25" y="559.25"/>
      <point x="492.0" y="612.5"/>
      <point x="389.25" y="612.5" type="curve" smooth="yes"/>
      <point x="208.5" y="612.5"/>
      <point x="40.5" y="447.25"/>
      <point x="40.5" y="257.75" type="curve" smooth="yes"/>
      <point x="40.5" y="104.25"/>
      <point x="152.0" y="-12.5"/>
      <point x="293.75" y="-12.5" type="curve" smooth="yes"/>
      <point x="389.25" y="-12.5"/>
      <point x="469.0" y="39.75"/>
      <point x="523.0" y="110.5" type="curve"/>
      <point x="495.75" y="150.0" type="line"/>
      <point x="455.25" y="-6.25" type="line" smooth="yes"/>
      <point x="426.25" y="-118.0"/>
      <point x="335.25" y="-188.0"/>
      <point x="215.5" y="-177.5" type="curve" smooth="yes"/>
      <point x="129.0" y="-169.25"/>
      <point x="63.75" y="-121.75"/>
      <point x="33.5" y="-55.75" type="curve"/>
      <point x="-43.5" y="-207.75" type="line"/>
      <point x="8.75" y="-266.5"/>
      <point x="92.0" y="-304.5"/>
    </contour>
    <contour>
      <point x="337.25" y="126.75" type="curve" smooth="yes"/>
      <point x="250.25" y="126.75"/>
      <point x="189.5" y="194.5"/>
      <point x="189.5" y="278.5" type="curve" smooth="yes"/>
      <point x="189.5" y="379.75"/>
      <point x="277.25" y="472.5"/>
      <point x="379.25" y="472.5" type="curve" smooth="yes"/>
      <point x="466.25" y="472.5"/>
      <point x="527.0" y="406.25"/>
      <point x="527.0" y="321.5" type="curve" smooth="yes"/>
      <point x="527.0" y="219.5"/>
      <point x="439.25" y="126.75"/>
    </contour>
  </outline>
</glyph>
<glyph name="k" format="2">
  <advance width="660.0"/>
  <unicode hex="006B"/>
  <anchor x="255.0" y="0.0" name="bottom"/>
  <anchor x="312.0" y="960.0" name="top"/>
  <outline>
    <contour>
      <point x="408.75" y="0.75" type="line"/>
      <point x="581.25" y="0.75" type="line"/>
      <point x="378.75" y="395.25" type="line"/>
      <point x="374.75" y="322.0" type="line"/>
      <point x="660.75" y="600.0" type="line"/>
      <point x="477.75" y="600.0" type="line"/>
      <point x="231.0" y="354.0" type="line"/>
    </contour>
    <contour>
      <point x="-1.5" y="0.0" type="line"/>
      <point x="156.0" y="0.0" type="line"/>
      <point x="396.0" y="960.0" type="line"/>
      <point x="238.5" y="960.0" type="line"/>
    </contour>
  </outline>
</glyph>
<glyph name="l" format="2">
  <advance width="307.5"/>
  <unicode hex="006C"/>
  <anchor x="78.75" y="0.0" name="bottom"/>
  <anchor x="196.75" y="480.0" name="center"/>
  <anchor x="391.75" y="420.0" name="periodcentered"/>
  <anchor x="318.75" y="960.0" name="top"/>
  <anchor x="393.5" y="960.0" name="topright"/>
  <outline>
    <contour>
      <point x="0.0" y="0.0" type="line"/>
      <point x="157.5" y="0.0" type="line"/>
      <point x="397.5" y="960.0" type="line"/>
      <point x="240.0" y="960.0" type="line"/>
    </contour>
  </outline>
</glyph>
<glyph name="m" format="2">
  <advance width="1090.0"/>
  <unicode hex="006D"/>
  <anchor x="566.0" y="0.0" name="bottom"/>
  <anchor x="566.0" y="600.0" name="top"/>
  <outline>
    <contour>
      <point x="397.25" y="0.0" type="line"/>
      <point x="554.75" y="0.0" type="line"/>
      <point x="642.0" y="345.0" type="line" smooth="yes"/>
      <point x="677.5" y="484.75"/>
      <point x="617.75" y="618.0"/>
      <point x="459.25" y="618.0" type="curve" smooth="yes"/>
      <point x="344.0" y="618.0"/>
      <point x="229.5" y="537.25"/>
      <point x="188.5" y="369.0" type="curve"/>
      <point x="244.75" y="355.0" type="line"/>
      <point x="266.5" y="445.0"/>
      <point x="330.0" y="487.5"/>
      <point x="393.75" y="487.5" type="curve" smooth="yes"/>
      <point x="474.0" y="487.5"/>
      <point x="504.25" y="420.25"/>
      <point x="484.25" y="343.0" type="curve" smooth="yes"/>
    </contour>
    <contour>
      <point x="-1.5" y="0.0" type="line"/>
      <point x="156.0" y="0.0" type="line"/>
      <point x="264.0" y="426.25" type="line"/>
      <point x="255.0" y="454.5" type="line"/>
      <point x="290.5" y="600.0" type="line"/>
      <point x="148.5" y="600.0" type="line"/>
    </contour>
    <contour>
      <point x="796.0" y="0.0" type="line"/>
      <point x="953.5" y="0.0" type="line"/>
      <point x="1040.75" y="345.0" type="line" smooth="yes"/>
      <point x="1075.5" y="484.75"/>
      <point x="1016.5" y="618.0"/>
      <point x="847.0" y="618.0" type="curve" smooth="yes"/>
      <point x="723.75" y="618.0"/>
      <point x="601.25" y="537.25"/>
      <point x="557.25" y="369.0" type="curve"/>
      <point x="643.5" y="355.0" type="line"/>
      <point x="665.25" y="445.0"/>
      <point x="728.75" y="487.5"/>
      <point x="792.5" y="487.5" type="curve" smooth="yes"/>
      <point x="872.75" y="487.5"/>
      <point x="903.0" y="420.25"/>
      <point x="883.0" y="343.0" type="curve" smooth="yes"/>
    </contour>
  </outline>
</glyph>
<glyph name="n" format="2">
  <advance width="705.0"/>
  <unicode hex="006E"/>
  <anchor x="277.5" y="0.0" name="bottom"/>
  <anchor x="424.75" y="600.0" name="top"/>
  <outline>
    <contour>
      <point x="411.0" y="0.0" type="line"/>
      <point x="568.5" y="0.0" type="line"/>
      <point x="653.5" y="338.5" type="line" smooth="yes"/>
      <point x="689.25" y="481.5"/>
      <point x="627.75" y="618.0"/>
      <point x="465.75" y="618.0" type="curve" smooth="yes"/>
      <point x="347.5" y="618.0"/>
      <point x="230.5" y="535.25"/>
      <point x="188.5" y="363.5" type="curve"/>
      <point x="244.75" y="348.75" type="line"/>
      <point x="267.5" y="442.75"/>
      <point x="334.25" y="487.5"/>
      <point x="400.25" y="487.5" type="curve" smooth="yes"/>
      <point x="484.75" y="487.5"/>
      <point x="515.75" y="417.0"/>
      <point x="495.75" y="336.5" type="curve" smooth="yes"/>
    </contour>
    <contour>
      <point x="-1.5" y="0.0" type="line"/>
      <point x="156.0" y="0.0" type="line"/>
      <point x="264.0" y="426.25" type="line"/>
      <point x="255.0" y="454.5" type="line"/>
      <point x="290.5" y="600.0" type="line"/>
      <point x="148.5" y="600.0" type="line"/>
    </contour>
  </outline>
</glyph>
<glyph name="o" format="2">
  <advance width="725.0"/>
  <unicode hex="006F"/>
  <anchor x="288.5" y="0.0" name="bottom"/>
  <anchor x="362.5" y="300.0" name="center"/>
  <anchor x="318.5" y="0.0" name="ogonek"/>
  <anchor x="436.5" y="600.0" name="top"/>
  <anchor x="596.5" y="600.0" name="topright"/>
  <outline>
    <contour>
      <point x="325.5" y="-18.0" type="curve" smooth="yes"/>
      <point x="513.75" y="-18.0"/>
      <point x="684.5" y="150.75"/>
      <point x="684.5" y="337.75" type="curve" smooth="yes"/>
      <point x="684.5" y="495.5"/>
      <point x="562.0" y="618.0"/>
      <point x="400.25" y="618.0" type="curve" smooth="yes"/>
      <point x="209.75" y="618.0"/>
      <point x="40.5" y="450.0"/>
      <point x="40.5" y="263.75" type="curve" smooth="yes"/>
      <point x="40.5" y="100.75"/>
      <point x="169.0" y="-18.0"/>
    </contour>
    <contour>
      <point x="341.75" y="124.5" type="curve" smooth="yes"/>
      <point x="253.75" y="124.5"/>
      <point x="191.75" y="192.5"/>
      <point x="191.75" y="278.5" type="curve" smooth="yes"/>
      <point x="191.75" y="381.5"/>
      <point x="280.25" y="475.5"/>
      <point x="383.25" y="475.5" type="curve" smooth="yes"/>
      <point x="471.25" y="475.5"/>
      <point x="533.25" y="406.75"/>
      <point x="533.25" y="321.5" type="curve" smooth="yes"/>
      <point x="533.25" y="219.25"/>
      <point x="444.75" y="124.5"/>
    </contour>
  </outline>
</glyph>
<glyph name="p" format="2">
  <advance width="745.0"/>
  <unicode hex="0070"/>
  <anchor x="314.0" y="0.0" name="bottom"/>
  <anchor x="462.5" y="600.0" name="top"/>
  <outline>
    <contour>
      <point x="-76.5" y="-300.0" type="line"/>
      <point x="81.0" y="-300.0" type="line"/>
      <point x="194.5" y="149.25" type="line"/>
      <point x="120.0" y="124.75" type="line"/>
      <point x="162.75" y="40.75"/>
      <point x="253.0" y="-12.5"/>
      <point x="355.75" y="-12.5" type="curve" smooth="yes"/>
      <point x="536.5" y="-12.5"/>
      <point x="704.5" y="152.75"/>
      <point x="704.5" y="342.25" type="curve" smooth="yes"/>
      <point x="704.5" y="495.75"/>
      <point x="593.0" y="612.5"/>
      <point x="451.25" y="612.5" type="curve" smooth="yes"/>
      <point x="355.75" y="612.5"/>
      <point x="276.0" y="560.25"/>
      <point x="222.0" y="489.5" type="curve"/>
      <point x="248.5" y="450.0" type="line"/>
      <point x="286.0" y="600.0" type="line"/>
      <point x="148.5" y="600.0" type="line"/>
    </contour>
    <contour>
      <point x="365.75" y="127.5" type="curve" smooth="yes"/>
      <point x="278.75" y="127.5"/>
      <point x="218.0" y="193.75"/>
      <point x="218.0" y="278.5" type="curve" smooth="yes"/>
      <point x="218.0" y="380.5"/>
      <point x="305.75" y="473.25"/>
      <point x="407.75" y="473.25" type="curve" smooth="yes"/>
      <point x="494.75" y="473.25"/>
      <point x="555.5" y="405.5"/>
      <point x="555.5" y="321.5" type="curve" smooth="yes"/>
      <point x="555.5" y="220.25"/>
      <point x="467.75" y="127.5"/>
    </contour>
  </outline>
</glyph>
<glyph name="r" format="2">
  <advance width="457.5"/>
  <unicode hex="0072"/>
  <anchor x="75.0" y="0.0" name="bottom"/>
  <anchor x="321.75" y="600.0" name="top"/>
  <outline>
    <contour>
      <point x="-1.5" y="0.0" type="line"/>
      <point x="156.0" y="0.0" type="line"/>
      <point x="266.0" y="438.0" type="line"/>
      <point x="256.5" y="461.0" type="line"/>
      <point x="290.5" y="600.0" type="line"/>
      <point x="148.5" y="600.0" type="line"/>
    </contour>
    <contour>
      <point x="155.5" y="277.75" type="curve"/>
      <point x="226.75" y="277.75" type="line"/>
      <point x="257.25" y="400.75"/>
      <point x="342.5" y="469.5"/>
      <point x="443.5" y="469.5" type="curve" smooth="yes"/>
      <point x="458.25" y="469.5"/>
      <point x="473.75" y="467.5"/>
      <point x="485.75" y="463.5" type="curve"/>
      <point x="485.75" y="606.0" type="line"/>
      <point x="328.25" y="606.0"/>
      <point x="204.0" y="476.25"/>
    </contour>
  </outline>
</glyph>
<glyph name="s" format="2">
  <advance width="525.0"/>
  <unicode hex="0073"/>
  <anchor x="188.25" y="0.0" name="bottom"/>
  <anchor x="339.25" y="600.0" name="top"/>
  <outline>
    <contour>
      <point x="213.5" y="-17.0" type="curve" smooth="yes"/>
      <point x="346.5" y="-17.0"/>
      <point x="453.75" y="81.5"/>
      <point x="453.75" y="192.5" type="curve" smooth="yes"/>
      <point x="453.75" y="256.0"/>
      <point x="419.75" y="299.25"/>
      <point x="336.25" y="346.0" type="curve" smooth="yes"/>
      <point x="266.75" y="384.75" type="line" smooth="yes"/>
      <point x="242.75" y="398.0"/>
      <point x="230.0" y="414.25"/>
      <point x="230.0" y="436.5" type="curve" smooth="yes"/>
      <point x="230.0" y="467.0"/>
      <point x="258.25" y="491.0"/>
      <point x="299.25" y="491.0" type="curve" smooth="yes"/>
      <point x="357.0" y="491.0"/>
      <point x="420.0" y="445.25"/>
      <point x="449.5" y="377.75" type="curve"/>
      <point x="522.5" y="519.25" type="line"/>
      <point x="486.0" y="575.75"/>
      <point x="406.25" y="617.25"/>
      <point x="323.25" y="617.25" type="curve" smooth="yes"/>
      <point x="195.25" y="617.25"/>
      <point x="91.25" y="519.5"/>
      <point x="91.25" y="412.5" type="curve" smooth="yes"/>
      <point x="91.25" y="349.0"/>
      <point x="127.0" y="303.5"/>
      <point x="193.25" y="266.0" type="curve" smooth="yes"/>
      <point x="266.75" y="224.75" type="line" smooth="yes"/>
      <point x="297.25" y="207.5"/>
      <point x="309.75" y="192.0"/>
      <point x="309.75" y="167.75" type="curve" smooth="yes"/>
      <point x="309.75" y="133.0"/>
      <point x="280.0" y="109.0"/>
      <point x="236.0" y="109.0" type="curve" smooth="yes"/>
      <point x="169.75" y="109.0"/>
      <point x="98.25" y="162.0"/>
      <point x="70.25" y="232.5" type="curve"/>
      <point x="-6.5" y="86.5" type="line"/>
      <point x="34.75" y="26.75"/>
      <point x="124.0" y="-17.0"/>
    </contour>
  </outline>
</glyph>
<glyph name="t" format="2">
  <advance width="450.0"/>
  <unicode hex="0074"/>
  <anchor x="145.0" y="0.0" name="bottom"/>
  <anchor x="218.0" y="300.0" name="center"/>
  <anchor x="344.5" y="800.0" name="top"/>
  <anchor x="470.0" y="1020.0" name="topright"/>
  <outline>
    <contour>
      <point x="66.25" y="0.0" type="line"/>
      <point x="223.75" y="0.0" type="line"/>
      <point x="361.5" y="549.0" type="line"/>
      <point x="358.5" y="549.0" type="line"/>
      <point x="420.25" y="800.0" type="line"/>
      <point x="268.75" y="800.0" type="line"/>
      <point x="207.0" y="550.0" type="line"/>
      <point x="204.0" y="550.0" type="line"/>
    </contour>
    <contour>
      <point x="69.25" y="474.0" type="line"/>
      <point x="468.25" y="474.0" type="line"/>
      <point x="499.5" y="600.0" type="line"/>
      <point x="100.5" y="600.0" type="line"/>
    </contour>
  </outline>
</glyph>
<glyph name="u" format="2">
  <advance width="705.0"/>
  <unicode hex="0075"/>
  <anchor x="276.0" y="0.0" name="bottom"/>
  <anchor x="490.0" y="0.0" name="ogonek"/>
  <anchor x="423.0" y="600.0" name="top"/>
  <anchor x="633.0" y="600.0" name="topright"/>
  <outline>
    <contour>
      <point x="239.25" y="-18.0" type="curve" smooth="yes"/>
      <point x="357.5" y="-18.0"/>
      <point x="474.5" y="64.75"/>
      <point x="516.5" y="236.5" type="curve"/>
      <point x="460.25" y="251.25" type="line"/>
      <point x="437.5" y="157.25"/>
      <point x="370.75" y="112.5"/>
      <point x="304.75" y="112.5" type="curve" smooth="yes"/>
      <point x="220.25" y="112.5"/>
      <point x="189.25" y="183.0"/>
      <point x="209.25" y="263.5" type="curve" smooth="yes"/>
      <point x="294.0" y="600.0" type="line"/>
      <point x="136.5" y="600.0" type="line"/>
      <point x="51.5" y="261.5" type="line" smooth="yes"/>
      <point x="15.75" y="118.5"/>
      <point x="77.25" y="-18.0"/>
    </contour>
    <contour>
      <point x="414.5" y="0.0" type="line"/>
      <point x="556.5" y="0.0" type="line"/>
      <point x="706.5" y="600.0" type="line"/>
      <point x="549.0" y="600.0" type="line"/>
      <point x="441.0" y="173.75" type="line"/>
      <point x="450.0" y="145.5" type="line"/>
    </contour>
  </outline>
</glyph>
<glyph name="v" format="2">
  <advance width="660.0"/>
  <unicode hex="0076"/>
  <outline>
    <contour>
      <point x="249.0" y="-30.0" type="line"/>
      <point x="727.5" y="600.0" type="line"/>
      <point x="549.0" y="600.0" type="line"/>
      <point x="395.75" y="390.25" type="line" smooth="yes"/>
      <point x="356.5" y="336.75"/>
      <point x="322.75" y="291.25"/>
      <point x="278.0" y="201.5" type="curve"/>
      <point x="320.75" y="201.25" type="line"/>
      <point x="319.75" y="291.25"/>
      <point x="308.75" y="336.5"/>
      <point x="296.0" y="390.25" type="curve" smooth="yes"/>
      <point x="247.0" y="600.0" type="line"/>
      <point x="82.5" y="600.0" type="line"/>
    </contour>
  </outline>
</glyph>
<glyph name="w" format="2">
  <advance width="1000.0"/>
  <unicode hex="0077"/>
  <anchor x="427.0" y="0.0" name="bottom"/>
  <anchor x="579.0" y="600.0" name="top"/>
  <outline>
    <contour>
      <point x="227.5" y="-30.0" type="line"/>
      <point x="419.75" y="210.25" type="line" smooth="yes"/>
      <point x="450.0" y="248.5"/>
      <point x="479.0" y="285.25"/>
      <point x="509.25" y="332.0" type="curve"/>
      <point x="516.25" y="285.25"/>
      <point x="527.0" y="248.5"/>
      <point x="538.5" y="210.25" type="curve" smooth="yes"/>
      <point x="612.5" y="-30.0" type="line"/>
      <point x="1067.5" y="600.0" type="line"/>
      <point x="893.5" y="600.0" type="line"/>
      <point x="742.5" y="390.25" type="line" smooth="yes"/>
      <point x="715.0" y="352.75"/>
      <point x="688.5" y="316.75"/>
      <point x="656.75" y="259.5" type="curve"/>
      <point x="651.5" y="313.75"/>
      <point x="641.0" y="349.5"/>
      <point x="633.0" y="384.25" type="curve" smooth="yes"/>
      <point x="573.5" y="622.0" type="line"/>
      <point x="400.25" y="384.25" type="line" smooth="yes"/>
      <point x="372.75" y="347.5"/>
      <point x="345.0" y="311.25"/>
      <point x="313.0" y="259.5" type="curve"/>
      <point x="307.75" y="313.75"/>
      <point x="299.25" y="352.5"/>
      <point x="290.5" y="390.25" type="curve" smooth="yes"/>
      <point x="242.5" y="600.0" type="line"/>
      <point x="82.5" y="600.0" type="line"/>
    </contour>
  </outline>
</glyph>
<glyph name="x" format="2">
  <advance width="630.0"/>
  <unicode hex="0078"/>
  <outline>
    <contour>
      <point x="-60.0" y="0.0" type="line"/>
      <point x="123.0" y="0.0" type="line"/>
      <point x="237.5" y="131.0" type="line" smooth="yes"/>
      <point x="278.0" y="177.25"/>
      <point x="319.5" y="228.0"/>
      <point x="352.75" y="282.0" type="curve"/>
      <point x="284.75" y="300.0" type="line"/>
      <point x="290.0" y="246.0"/>
      <point x="307.0" y="195.25"/>
      <point x="324.0" y="149.0" type="curve" smooth="yes"/>
      <point x="378.75" y="0.0" type="line"/>
      <point x="546.75" y="0.0" type="line"/>
      <point x="409.75" y="332.25" type="line"/>
      <point x="657.0" y="600.0" type="line"/>
      <point x="477.0" y="600.0" type="line"/>
      <point x="412.0" y="526.0" type="line" smooth="yes"/>
      <point x="372.0" y="480.5"/>
      <point x="331.25" y="430.0"/>
      <point x="297.25" y="376.0" type="curve"/>
      <point x="344.25" y="358.0" type="line"/>
      <point x="339.75" y="412.0"/>
      <point x="323.5" y="463.5"/>
      <point x="307.0" y="508.0" type="curve" smooth="yes"/>
      <point x="272.75" y="600.0" type="line"/>
      <point x="109.75" y="600.0" type="line"/>
      <point x="226.5" y="314.25" type="line"/>
    </contour>
  </outline>
</glyph>
<glyph name="y" format="2">
  <advance width="680.0"/>
  <unicode hex="0079"/>
  <anchor x="383.5" y="0.0" name="bottom"/>
  <anchor x="417.5" y="600.0" name="top"/>
  <outline>
    <contour>
      <point x="-102.5" y="-300.0" type="line"/>
      <point x="78.5" y="-300.0" type="line"/>
      <point x="747.5" y="600.0" type="line"/>
      <point x="568.5" y="600.0" type="line"/>
      <point x="398.5" y="370.0" type="line" smooth="yes"/>
      <point x="335.0" y="285.0"/>
      <point x="308.0" y="238.0"/>
      <point x="260.0" y="149.0" type="curve"/>
      <point x="325.5" y="148.0" type="line"/>
      <point x="321.5" y="238.0"/>
      <point x="320.5" y="284.0"/>
      <point x="300.5" y="370.0" type="curve" smooth="yes"/>
      <point x="245.5" y="600.0" type="line"/>
      <point x="82.5" y="600.0" type="line"/>
      <point x="203.25" y="110.0" type="line"/>
    </contour>
  </outline>
</glyph>
<glyph name="z" format="2">
  <advance width="530.0"/>
  <unicode hex="007A"/>
  <anchor x="182.0" y="0.0" name="bottom"/>
  <anchor x="264.0" y="300.0" name="center"/>
  <anchor x="347.75" y="600.0" name="top"/>
  <outline>
    <contour>
      <point x="170.5" y="76.0" type="line"/>
      <point x="136.0" y="132.0" type="line"/>
      <point x="444.0" y="132.0" type="line"/>
      <point x="411.0" y="0.0" type="line"/>
      <point x="-48.5" y="0.0" type="line"/>
      <point x="360.5" y="524.0" type="line"/>
      <point x="395.0" y="468.0" type="line"/>
      <point x="89.0" y="468.0" type="line"/>
      <point x="122.0" y="600.0" type="line"/>
      <point x="579.5" y="600.0" type="line"/>
    </contour>
  </outline>
</glyph>
<glyph name="braceleft" format="2">
  <advance width="480.0"/>
  <unicode hex="007B"/>
  <outline>
    <contour>
      <point x="280.25" y="-186.0" type="curve"/>
      <point x="339.25" y="-70.5" type="line"/>
      <point x="258.75" y="-59.75"/>
      <point x="188.75" y="-27.5"/>
      <point x="217.5" y="89.75" type="curve" smooth="yes"/>
      <point x="230.75" y="142.25"/>
      <point x="262.0" y="200.25"/>
      <point x="275.5" y="253.75" type="curve" smooth="yes"/>
      <point x="308.25" y="384.5"/>
      <point x="220.25" y="430.25"/>
      <point x="123.0" y="442.25" type="curve"/>
      <point x="112.25" y="399.0" type="line"/>
      <point x="209.25" y="387.0"/>
      <point x="313.75" y="408.5"/>
      <point x="345.75" y="539.75" type="curve" smooth="yes"/>
      <point x="359.0" y="593.5"/>
      <point x="358.25" y="654.5"/>
      <point x="370.5" y="708.0" type="curve" smooth="yes"/>
      <point x="400.0" y="825.5"/>
      <point x="482.25" y="843.0"/>
      <point x="562.75" y="843.0" type="curve"/>
      <point x="562.75" y="966.0" type="line"/>
      <point x="420.25" y="966.0"/>
      <point x="279.0" y="904.25"/>
      <point x="238.75" y="739.5" type="curve" smooth="yes"/>
      <point x="224.0" y="679.25"/>
      <point x="226.25" y="621.0"/>
      <point x="213.5" y="568.25" type="curve" smooth="yes"/>
      <point x="191.75" y="482.75"/>
      <point x="140.75" y="454.0"/>
      <point x="60.75" y="428.0" type="curve"/>
      <point x="123.5" y="383.0"/>
      <point x="157.75" y="343.75"/>
      <point x="136.25" y="259.25" type="curve" smooth="yes"/>
      <point x="123.5" y="206.75"/>
      <point x="92.75" y="151.25"/>
      <point x="78.0" y="92.25" type="curve" smooth="yes"/>
      <point x="36.75" y="-75.5"/>
      <point x="144.5" y="-167.75"/>
    </contour>
  </outline>
</glyph>
<glyph name="braceright" format="2">
  <advance width="480.0"/>
  <unicode hex="007D"/>
  <outline>
    <contour>
      <point x="-38.0" y="-186.0" type="line"/>
      <point x="104.5" y="-186.0"/>
      <point x="245.75" y="-124.25"/>
      <point x="286.0" y="40.5" type="curve" smooth="yes"/>
      <point x="300.75" y="100.75"/>
      <point x="298.5" y="159.0"/>
      <point x="311.25" y="211.75" type="curve" smooth="yes"/>
      <point x="333.0" y="297.25"/>
      <point x="384.0" y="326.0"/>
      <point x="464.0" y="352.0" type="curve"/>
      <point x="401.25" y="397.0"/>
      <point x="367.0" y="436.25"/>
      <point x="388.5" y="520.75" type="curve" smooth="yes"/>
      <point x="401.25" y="573.25"/>
      <point x="432.0" y="628.75"/>
      <point x="446.75" y="687.75" type="curve" smooth="yes"/>
      <point x="488.0" y="855.5"/>
      <point x="380.25" y="947.75"/>
      <point x="244.5" y="966.0" type="curve"/>
      <point x="185.5" y="850.5" type="line"/>
      <point x="266.0" y="839.75"/>
      <point x="336.0" y="807.5"/>
      <point x="307.25" y="690.25" type="curve" smooth="yes"/>
      <point x="294.0" y="637.75"/>
      <point x="262.75" y="579.75"/>
      <point x="249.25" y="526.25" type="curve" smooth="yes"/>
      <point x="216.5" y="395.5"/>
      <point x="304.5" y="349.75"/>
      <point x="401.75" y="337.75" type="curve"/>
      <point x="412.5" y="381.0" type="line"/>
      <point x="315.5" y="393.0"/>
      <point x="211.0" y="371.5"/>
      <point x="179.0" y="240.25" type="curve" smooth="yes"/>
      <point x="165.75" y="186.5"/>
      <point x="166.5" y="125.5"/>
      <point x="154.25" y="72.0" type="curve" smooth="yes"/>
      <point x="124.75" y="-45.5"/>
      <point x="42.5" y="-63.0"/>
      <point x="-38.0" y="-63.0" type="curve"/>
    </contour>
  </outline>
</glyph>
<glyph name="asciitilde" format="2">
  <advance width="750.0"/>
  <unicode hex="007E"/>
  <outline>
    <contour>
      <point x="110.5" y="339.75" type="line"/>
      <point x="151.75" y="399.25"/>
      <point x="193.75" y="431.5"/>
      <point x="253.5" y="431.5" type="curve" smooth="yes"/>
      <point x="355.75" y="431.5"/>
      <point x="428.25" y="342.0"/>
      <point x="551.75" y="342.0" type="curve" smooth="yes"/>
      <point x="627.0" y="342.0"/>
      <point x="697.5" y="377.75"/>
      <point x="751.0" y="441.5" type="curve"/>
      <point x="714.5" y="559.5" type="line"/>
      <point x="674.75" y="500.0"/>
      <point x="630.0" y="468.5"/>
      <point x="574.25" y="468.5" type="curve" smooth="yes"/>
      <point x="476.0" y="468.5"/>
      <point x="408.5" y="558.0"/>
      <point x="275.0" y="558.0" type="curve" smooth="yes"/>
      <point x="195.5" y="558.0"/>
      <point x="128.75" y="523.5"/>
      <point x="74.0" y="457.5" type="curve"/>
    </contour>
  </outline>
</glyph>
<glyph name="exclamdown" format="2">
  <advance width="480.0"/>
  <unicode hex="00A1"/>
  <outline>
    <contour>
      <point x="0.75" y="-300.0" type="line"/>
      <point x="180.75" y="-300.0" type="line"/>
      <point x="298.0" y="277.5" type="line"/>
      <point x="175.0" y="277.5" type="line"/>
    </contour>
    <contour>
      <point x="283.25" y="423.0" type="curve" smooth="yes"/>
      <point x="341.75" y="423.0"/>
      <point x="392.75" y="474.0"/>
      <point x="392.75" y="531.75" type="curve" smooth="yes"/>
      <point x="392.75" y="581.5"/>
      <point x="353.75" y="618.0"/>
      <point x="307.25" y="618.0" type="curve" smooth="yes"/>
      <point x="248.75" y="618.0"/>
      <point x="197.75" y="567.0"/>
      <point x="197.75" y="508.5" type="curve" smooth="yes"/>
      <point x="197.75" y="460.0"/>
      <point x="234.5" y="423.0"/>
    </contour>
  </outline>
</glyph>
<glyph name="cent" format="2">
  <advance width="750.0"/>
  <unicode hex="00A2"/>
  <outline>
    <contour>
      <point x="429.25" y="132.0" type="curve" smooth="yes"/>
      <point x="506.5" y="132.0"/>
      <point x="577.75" y="154.5"/>
      <point x="630.75" y="196.25" type="curve"/>
      <point x="630.75" y="381.0" type="line"/>
      <point x="600.75" y="329.75"/>
      <point x="533.25" y="274.5"/>
      <point x="445.5" y="274.5" type="curve" smooth="yes"/>
      <point x="351.5" y="274.5"/>
      <point x="289.5" y="341.0"/>
      <point x="289.5" y="427.0" type="curve" smooth="yes"/>
      <point x="289.5" y="530.0"/>
      <point x="378.0" y="623.25"/>
      <point x="487.0" y="623.25" type="curve" smooth="yes"/>
      <point x="558.75" y="623.25"/>
      <point x="609.75" y="584.5"/>
      <point x="630.75" y="529.25" type="curve"/>
      <point x="708.75" y="688.25" type="line"/>
      <point x="657.75" y="736.0"/>
      <point x="588.0" y="765.0"/>
      <point x="505.5" y="765.0" type="curve" smooth="yes"/>
      <point x="309.0" y="765.0"/>
      <point x="138.25" y="598.5"/>
      <point x="138.25" y="412.25" type="curve" smooth="yes"/>
      <point x="138.25" y="249.25"/>
      <point x="266.75" y="132.0"/>
    </contour>
    <contour>
      <point x="295.0" y="0.0" type="line"/>
      <point x="397.0" y="0.0" type="line"/>
      <point x="442.0" y="180.0" type="line"/>
      <point x="340.0" y="180.0" type="line"/>
    </contour>
    <contour>
      <point x="473.25" y="720.0" type="line"/>
      <point x="575.25" y="720.0" type="line"/>
      <point x="612.25" y="870.0" type="line"/>
      <point x="510.25" y="870.0" type="line"/>
    </contour>
  </outline>
</glyph>
<glyph name="sterling" format="2">
  <advance width="750.0"/>
  <unicode hex="00A3"/>
  <outline>
    <contour>
      <point x="60.0" y="0.0" type="curve"/>
      <point x="600.5" y="0.0" type="line"/>
      <point x="634.75" y="141.0" type="line"/>
      <point x="241.25" y="141.0" type="line"/>
      <point x="146.0" y="52.5" type="line"/>
      <point x="252.25" y="75.5"/>
      <point x="340.75" y="106.5"/>
      <point x="371.75" y="232.5" type="curve" smooth="yes"/>
      <point x="396.75" y="333.5"/>
      <point x="391.0" y="504.5"/>
      <point x="416.5" y="608.0" type="curve" smooth="yes"/>
      <point x="442.0" y="713.75"/>
      <point x="504.0" y="775.5"/>
      <point x="580.25" y="775.5" type="curve" smooth="yes"/>
      <point x="659.5" y="775.5"/>
      <point x="706.0" y="716.0"/>
      <point x="726.5" y="650.75" type="curve"/>
      <point x="808.5" y="809.75" type="line"/>
      <point x="752.5" y="886.75"/>
      <point x="668.75" y="918.0"/>
      <point x="585.0" y="918.0" type="curve" smooth="yes"/>
      <point x="433.0" y="918.0"/>
      <point x="311.5" y="811.25"/>
      <point x="269.0" y="639.75" type="curve" smooth="yes"/>
      <point x="237.5" y="513.75"/>
      <point x="253.0" y="349.0"/>
      <point x="225.75" y="235.5" type="curve" smooth="yes"/>
      <point x="204.0" y="146.75"/>
      <point x="163.5" y="83.75"/>
    </contour>
    <contour>
      <point x="114.75" y="399.0" type="line"/>
      <point x="624.75" y="399.0" type="line"/>
      <point x="650.25" y="501.0" type="line"/>
      <point x="140.25" y="501.0" type="line"/>
    </contour>
  </outline>
</glyph>
<glyph name="currency" format="2">
  <advance width="750.0"/>
  <unicode hex="00A4"/>
  <outline>
    <contour>
      <point x="376.0" y="133.5" type="curve" smooth="yes"/>
      <point x="431.25" y="133.5"/>
      <point x="485.0" y="147.75"/>
      <point x="533.25" y="173.5" type="curve"/>
      <point x="578.75" y="111.75" type="line"/>
      <point x="685.0" y="197.25" type="line"/>
      <point x="641.25" y="256.25" type="line"/>
      <point x="698.5" y="319.5"/>
      <point x="735.0" y="401.25"/>
      <point x="735.0" y="487.75" type="curve" smooth="yes"/>
      <point x="735.0" y="529.5"/>
      <point x="726.25" y="568.25"/>
      <point x="710.75" y="603.25" type="curve"/>
      <point x="780.25" y="657.25" type="line"/>
      <point x="703.0" y="758.25" type="line"/>
      <point x="633.5" y="704.25" type="line"/>
      <point x="585.0" y="743.25"/>
      <point x="521.75" y="766.5"/>
      <point x="450.75" y="766.5" type="curve" smooth="yes"/>
      <point x="394.75" y="766.5"/>
      <point x="340.0" y="752.25"/>
      <point x="291.75" y="726.25" type="curve"/>
      <point x="246.0" y="788.25" type="line"/>
      <point x="139.75" y="702.75" type="line"/>
      <point x="183.75" y="643.25" type="line"/>
      <point x="126.5" y="580.75"/>
      <point x="91.0" y="499.5"/>
      <point x="91.0" y="413.75" type="curve" smooth="yes"/>
      <point x="91.0" y="372.0"/>
      <point x="99.75" y="332.75"/>
      <point x="115.0" y="298.75" type="curve"/>
      <point x="43.75" y="242.75" type="line"/>
      <point x="121.0" y="141.75" type="line"/>
      <point x="192.25" y="197.5" type="line"/>
      <point x="241.5" y="156.75"/>
      <point x="306.25" y="133.5"/>
    </contour>
    <contour>
      <point x="392.25" y="276.0" type="curve" smooth="yes"/>
      <point x="304.25" y="276.0"/>
      <point x="242.25" y="342.5"/>
      <point x="242.25" y="428.5" type="curve" smooth="yes"/>
      <point x="242.25" y="531.5"/>
      <point x="330.75" y="624.75"/>
      <point x="433.75" y="624.75" type="curve" smooth="yes"/>
      <point x="521.75" y="624.75"/>
      <point x="583.75" y="556.75"/>
      <point x="583.75" y="471.5" type="curve" smooth="yes"/>
      <point x="583.75" y="369.25"/>
      <point x="495.25" y="276.0"/>
    </contour>
  </outline>
</glyph>
<glyph name="yen" format="2">
  <advance width="750.0"/>
  <unicode hex="00A5"/>
  <anchor x="53.0" y="900.0" name="topleft"/>
  <outline>
    <contour>
      <point x="221.25" y="0.0" type="line"/>
      <point x="384.75" y="0.0" type="line"/>
      <point x="490.25" y="428.25" type="line"/>
      <point x="868.5" y="900.0" type="line"/>
      <point x="686.0" y="900.75" type="line"/>
      <point x="514.75" y="683.0" type="line" smooth="yes"/>
      <point x="482.5" y="641.75"/>
      <point x="453.75" y="605.5"/>
      <point x="413.0" y="535.75" type="curve"/>
      <point x="445.75" y="535.5" type="line"/>
      <point x="442.0" y="604.5"/>
      <point x="430.75" y="642.75"/>
      <point x="418.75" y="683.0" type="curve" smooth="yes"/>
      <point x="356.0" y="900.0" type="line"/>
      <point x="181.5" y="900.0" type="line"/>
      <point x="326.75" y="428.25" type="line"/>
    </contour>
    <contour>
      <point x="78.25" y="300.0" type="line"/>
      <point x="675.25" y="300.0" type="line"/>
      <point x="700.5" y="402.0" type="line"/>
      <point x="103.5" y="402.0" type="line"/>
    </contour>
    <contour>
      <point x="127.5" y="498.0" type="line"/>
      <point x="724.5" y="498.0" type="line"/>
      <point x="749.0" y="600.0" type="line"/>
      <point x="526.5" y="600.0" type="line"/>
      <point x="426.25" y="500.0" type="line"/>
      <point x="378.5" y="600.0" type="line"/>
      <point x="152.0" y="600.0" type="line"/>
    </contour>
  </outline>
</glyph>
<glyph name="section" format="2">
  <advance width="750.0"/>
  <unicode hex="00A7"/>
  <outline>
    <contour>
      <point x="279.5" y="-192.0" type="curve" smooth="yes"/>
      <point x="426.0" y="-192.0"/>
      <point x="552.25" y="-74.25"/>
      <point x="552.25" y="63.75" type="curve" smooth="yes"/>
      <point x="552.25" y="121.0"/>
      <point x="530.5" y="166.5"/>
      <point x="484.25" y="209.5" type="curve"/>
      <point x="457.75" y="180.0" type="line"/>
      <point x="594.25" y="183.0"/>
      <point x="711.75" y="291.25"/>
      <point x="711.75" y="416.0" type="curve" smooth="yes"/>
      <point x="711.75" y="487.75"/>
      <point x="672.0" y="550.25"/>
      <point x="598.0" y="599.75" type="curve" smooth="yes"/>
      <point x="465.75" y="688.5" type="line" smooth="yes"/>
      <point x="429.5" y="712.5"/>
      <point x="418.25" y="740.75"/>
      <point x="418.25" y="765.75" type="curve" smooth="yes"/>
      <point x="418.25" y="812.5"/>
      <point x="456.75" y="845.75"/>
      <point x="505.25" y="845.75" type="curve" smooth="yes"/>
      <point x="561.25" y="845.75"/>
      <point x="622.25" y="798.5"/>
      <point x="650.25" y="734.0" type="curve"/>
      <point x="726.75" y="873.0" type="line"/>
      <point x="689.0" y="931.75"/>
      <point x="602.75" y="972.0"/>
      <point x="518.75" y="972.0" type="curve" smooth="yes"/>
      <point x="385.25" y="972.0"/>
      <point x="271.75" y="865.0"/>
      <point x="271.75" y="737.25" type="curve" smooth="yes"/>
      <point x="271.75" y="687.75"/>
      <point x="289.5" y="647.75"/>
      <point x="326.25" y="612.25" type="curve"/>
      <point x="354.75" y="643.25" type="line"/>
      <point x="212.0" y="639.75"/>
      <point x="93.5" y="530.5"/>
      <point x="93.5" y="403.0" type="curve" smooth="yes"/>
      <point x="93.5" y="330.5"/>
      <point x="131.25" y="272.75"/>
      <point x="207.25" y="222.5" type="curve" smooth="yes"/>
      <point x="345.5" y="131.25" type="line" smooth="yes"/>
      <point x="386.0" y="105.0"/>
      <point x="405.75" y="67.25"/>
      <point x="405.75" y="34.5" type="curve" smooth="yes"/>
      <point x="405.75" y="-19.5"/>
      <point x="358.5" y="-65.0"/>
      <point x="297.0" y="-65.0" type="curve" smooth="yes"/>
      <point x="230.0" y="-65.0"/>
      <point x="157.25" y="-6.75"/>
      <point x="134.5" y="61.75" type="curve"/>
      <point x="54.5" y="-82.75" type="line"/>
      <point x="95.75" y="-148.5"/>
      <point x="190.5" y="-192.0"/>
    </contour>
    <contour>
      <point x="441.5" y="274.25" type="curve" smooth="yes"/>
      <point x="421.5" y="274.25"/>
      <point x="397.75" y="278.25"/>
      <point x="385.75" y="284.75" type="curve"/>
      <point x="358.0" y="300.0"/>
      <point x="329.75" y="317.75"/>
      <point x="310.5" y="332.0" type="curve" smooth="yes"/>
      <point x="283.75" y="351.75"/>
      <point x="241.0" y="382.5"/>
      <point x="241.0" y="437.5" type="curve" smooth="yes"/>
      <point x="241.0" y="500.0"/>
      <point x="295.5" y="547.75"/>
      <point x="364.0" y="547.75" type="curve" smooth="yes"/>
      <point x="383.0" y="547.75"/>
      <point x="407.0" y="544.0"/>
      <point x="423.25" y="536.75" type="curve"/>
      <point x="446.75" y="524.5"/>
      <point x="478.0" y="502.75"/>
      <point x="494.25" y="491.0" type="curve" smooth="yes"/>
      <point x="529.75" y="465.25"/>
      <point x="565.0" y="436.25"/>
      <point x="565.0" y="389.5" type="curve" smooth="yes"/>
      <point x="565.0" y="330.75"/>
      <point x="513.5" y="274.25"/>
    </contour>
  </outline>
</glyph>
<glyph name="copyright" format="2">
  <advance width="1260.0"/>
  <unicode hex="00A9"/>
  <outline>
    <contour>
      <point x="579.0" y="-192.0" type="curve" smooth="yes"/>
      <point x="906.0" y="-192.0"/>
      <point x="1202.0" y="102.0"/>
      <point x="1202.0" y="425.0" type="curve" smooth="yes"/>
      <point x="1202.0" y="700.0"/>
      <point x="988.0" y="912.0"/>
      <point x="709.0" y="912.0" type="curve" smooth="yes"/>
      <point x="382.0" y="912.0"/>
      <point x="86.0" y="618.0"/>
      <point x="86.0" y="295.0" type="curve" smooth="yes"/>
      <point x="86.0" y="20.0"/>
      <point x="300.0" y="-192.0"/>
    </contour>
    <contour>
      <point x="637.25" y="78.0" type="curve" smooth="yes"/>
      <point x="702.75" y="78.0"/>
      <point x="767.0" y="98.25"/>
      <point x="814.0" y="135.25" type="curve"/>
      <point x="814.0" y="303.0" type="line"/>
      <point x="787.25" y="257.25"/>
      <point x="729.0" y="207.5"/>
      <point x="651.0" y="207.5" type="curve" smooth="yes"/>
      <point x="567.0" y="207.5"/>
      <point x="509.75" y="266.75"/>
      <point x="509.75" y="340.75" type="curve" smooth="yes"/>
      <point x="509.75" y="428.75"/>
      <point x="587.5" y="512.5"/>
      <point x="684.5" y="512.5" type="curve" smooth="yes"/>
      <point x="749.0" y="512.5"/>
      <point x="795.5" y="477.75"/>
      <point x="814.25" y="428.5" type="curve"/>
      <point x="884.25" y="573.5" type="line"/>
      <point x="838.25" y="616.0"/>
      <point x="776.25" y="642.0"/>
      <point x="704.0" y="642.0" type="curve" smooth="yes"/>
      <point x="527.0" y="642.0"/>
      <point x="375.5" y="493.75"/>
      <point x="375.5" y="327.75" type="curve" smooth="yes"/>
      <point x="375.5" y="182.75"/>
      <point x="489.75" y="78.0"/>
    </contour>
    <contour>
      <point x="589.0" y="-70.5" type="curve" smooth="yes"/>
      <point x="376.5" y="-70.5"/>
      <point x="213.5" y="90.5"/>
      <point x="213.5" y="304.5" type="curve" smooth="yes"/>
      <point x="213.5" y="558.75"/>
      <point x="444.0" y="790.5"/>
      <point x="699.0" y="790.5" type="curve" smooth="yes"/>
      <point x="911.5" y="790.5"/>
      <point x="1074.5" y="629.5"/>
      <point x="1074.5" y="415.5" type="curve" smooth="yes"/>
      <point x="1074.5" y="161.25"/>
      <point x="844.0" y="-70.5"/>
    </contour>
  </outline>
</glyph>
<glyph name="ordfeminine" format="2">
  <advance width="480.0"/>
  <unicode hex="00AA"/>
  <outline>
    <contour>
      <point x="256.0" y="412.0" type="curve" smooth="yes"/>
      <point x="313.5" y="412.0"/>
      <point x="358.0" y="440.75"/>
      <point x="383.75" y="490.5" type="curve"/>
      <point x="367.0" y="502.75" type="line"/>
      <point x="346.75" y="420.0" type="line"/>
      <point x="462.25" y="420.0" type="line"/>
      <point x="550.25" y="780.0" type="line"/>
      <point x="434.75" y="780.0" type="line"/>
      <point x="412.25" y="681.25" type="line"/>
      <point x="457.5" y="681.75" type="line"/>
      <point x="446.25" y="746.5"/>
      <point x="391.25" y="788.0"/>
      <point x="318.25" y="788.0" type="curve" smooth="yes"/>
      <point x="209.0" y="788.0"/>
      <point x="111.0" y="689.5"/>
      <point x="111.0" y="576.75" type="curve" smooth="yes"/>
      <point x="111.0" y="484.0"/>
      <point x="175.5" y="412.0"/>
    </contour>
    <contour>
      <point x="297.5" y="512.5" type="curve" smooth="yes"/>
      <point x="257.0" y="512.5"/>
      <point x="224.25" y="545.75"/>
      <point x="224.25" y="590.0" type="curve" smooth="yes"/>
      <point x="224.25" y="641.75"/>
      <point x="269.5" y="687.5"/>
      <point x="320.5" y="687.5" type="curve" smooth="yes"/>
      <point x="364.5" y="687.5"/>
      <point x="397.25" y="654.5"/>
      <point x="397.25" y="611.5" type="curve" smooth="yes"/>
      <point x="397.25" y="559.0"/>
      <point x="350.5" y="512.5"/>
    </contour>
  </outline>
</glyph>
<glyph name="guillemetleft" format="2">
  <advance width="622.5"/>
  <unicode hex="00AB"/>
  <outline>
    <contour>
      <point x="397.0" y="60.0" type="line"/>
      <point x="535.5" y="60.0" type="line"/>
      <point x="432.5" y="300.0" type="line"/>
      <point x="653.5" y="540.0" type="line"/>
      <point x="495.0" y="540.0" type="line"/>
      <point x="288.0" y="315.0" type="line"/>
    </contour>
    <contour>
      <point x="144.5" y="60.0" type="line"/>
      <point x="283.0" y="60.0" type="line"/>
      <point x="170.0" y="324.0" type="line"/>
      <point x="369.75" y="540.75" type="line"/>
      <point x="211.25" y="540.75" type="line"/>
      <point x="25.5" y="339.0" type="line"/>
    </contour>
  </outline>
</glyph>
<glyph name="logicalnot" format="2">
  <advance width="750.0"/>
  <unicode hex="00AC"/>
  <outline>
    <contour>
      <point x="514.0" y="195.0" type="line"/>
      <point x="641.5" y="195.0" type="line"/>
      <point x="720.0" y="515.25" type="line"/>
      <point x="105.0" y="515.25" type="line"/>
      <point x="73.25" y="384.75" type="line"/>
      <point x="560.75" y="384.75" type="line"/>
    </contour>
  </outline>
</glyph>
<glyph name="registered" format="2">
  <advance width="600.0"/>
  <unicode hex="00AE"/>
  <outline>
    <contour>
      <point x="359.0" y="396.0" type="curve" smooth="yes"/>
      <point x="516.25" y="396.0"/>
      <point x="659.25" y="535.75"/>
      <point x="659.25" y="691.75" type="curve" smooth="yes"/>
      <point x="659.25" y="823.0"/>
      <point x="556.75" y="924.0"/>
      <point x="421.75" y="924.0" type="curve" smooth="yes"/>
      <point x="262.25" y="924.0"/>
      <point x="120.75" y="785.0"/>
      <point x="120.75" y="629.75" type="curve" smooth="yes"/>
      <point x="120.75" y="494.0"/>
      <point x="228.5" y="396.0"/>
    </contour>
    <contour>
      <point x="367.25" y="469.5" type="curve" smooth="yes"/>
      <point x="269.0" y="469.5"/>
      <point x="199.5" y="542.25"/>
      <point x="199.5" y="636.75" type="curve" smooth="yes"/>
      <point x="199.5" y="749.0"/>
      <point x="298.25" y="851.25"/>
      <point x="412.75" y="851.25" type="curve" smooth="yes"/>
      <point x="511.0" y="851.25"/>
      <point x="580.5" y="777.0"/>
      <point x="580.5" y="683.25" type="curve" smooth="yes"/>
      <point x="580.5" y="571.75"/>
      <point x="481.75" y="469.5"/>
    </contour>
    <contour>
      <point x="266.5" y="546.0" type="line"/>
      <point x="335.5" y="546.0" type="line"/>
      <point x="395.5" y="786.0" type="line"/>
      <point x="325.5" y="786.0" type="line"/>
    </contour>
    <contour>
      <point x="405.5" y="546.0" type="line"/>
      <point x="477.5" y="546.0" type="line"/>
      <point x="436.5" y="661.25" type="line"/>
      <point x="366.5" y="661.25" type="line"/>
    </contour>
    <contour>
      <point x="317.75" y="608.75" type="line"/>
      <point x="402.0" y="608.75" type="line" smooth="yes"/>
      <point x="456.5" y="608.75"/>
      <point x="505.75" y="656.75"/>
      <point x="505.75" y="707.25" type="curve" smooth="yes"/>
      <point x="505.75" y="751.75"/>
      <point x="469.5" y="786.0"/>
      <point x="422.75" y="786.0" type="curve" smooth="yes"/>
      <point x="361.0" y="786.0" type="line"/>
      <point x="347.5" y="729.25" type="line"/>
      <point x="402.0" y="729.25" type="line" smooth="yes"/>
      <point x="422.5" y="729.25"/>
      <point x="435.75" y="718.75"/>
      <point x="435.75" y="701.5" type="curve" smooth="yes"/>
      <point x="435.75" y="681.0"/>
      <point x="417.25" y="663.5"/>
      <point x="393.75" y="663.5" type="curve" smooth="yes"/>
      <point x="331.0" y="663.5" type="line"/>
    </contour>
  </outline>
</glyph>
<glyph name="degree" format="2">
  <advance width="480.0"/>
  <unicode hex="00B0"/>
  <outline>
    <contour>
      <point x="326.5" y="535.5" type="curve" smooth="yes"/>
      <point x="443.25" y="535.5"/>
      <point x="543.25" y="635.5"/>
      <point x="543.25" y="746.25" type="curve" smooth="yes"/>
      <point x="543.25" y="838.5"/>
      <point x="473.5" y="912.0"/>
      <point x="371.5" y="912.0" type="curve" smooth="yes"/>
      <point x="254.75" y="912.0"/>
      <point x="154.75" y="811.0"/>
      <point x="154.75" y="698.25" type="curve" smooth="yes"/>
      <point x="154.75" y="606.0"/>
      <point x="224.5" y="535.5"/>
    </contour>
    <contour>
      <point x="339.25" y="637.5" type="curve" smooth="yes"/>
      <point x="292.5" y="637.5"/>
      <point x="260.5" y="669.5"/>
      <point x="260.5" y="712.0" type="curve" smooth="yes"/>
      <point x="260.5" y="763.25"/>
      <point x="306.25" y="810.0"/>
      <point x="358.75" y="810.0" type="curve" smooth="yes"/>
      <point x="405.5" y="810.0"/>
      <point x="437.5" y="776.0"/>
      <point x="437.5" y="734.25" type="curve" smooth="yes"/>
      <point x="437.5" y="683.25"/>
      <point x="391.75" y="637.5"/>
    </contour>
  </outline>
</glyph>
<glyph name="plusminus" format="2">
  <advance width="750.0"/>
  <unicode hex="00B1"/>
  <outline>
    <contour>
      <point x="112.5" y="448.5" type="line"/>
      <point x="709.5" y="448.5" type="line"/>
      <point x="739.75" y="571.5" type="line"/>
      <point x="142.75" y="571.5" type="line"/>
    </contour>
    <contour>
      <point x="16.0" y="56.75" type="line"/>
      <point x="613.0" y="56.75" type="line"/>
      <point x="640.0" y="165.25" type="line"/>
      <point x="43.0" y="165.25" type="line"/>
    </contour>
    <contour>
      <point x="291.5" y="225.0" type="line"/>
      <point x="420.5" y="225.0" type="line"/>
      <point x="567.25" y="808.5" type="line"/>
      <point x="438.25" y="808.5" type="line"/>
    </contour>
  </outline>
</glyph>
<glyph name="micro" format="2">
  <advance width="735.0"/>
  <unicode hex="00B5"/>
  <unicode hex="03BC"/>
  <outline>
    <contour>
      <point x="-79.25" y="-300.0" type="line"/>
      <point x="78.25" y="-300.0" type="line"/>
      <point x="174.5" y="84.5" type="line"/>
      <point x="156.75" y="60.5" type="line"/>
      <point x="180.5" y="9.25"/>
      <point x="226.75" y="-18.0"/>
      <point x="286.75" y="-18.0" type="curve" smooth="yes"/>
      <point x="364.0" y="-18.0"/>
      <point x="443.0" y="27.0"/>
      <point x="494.75" y="112.25" type="curve"/>
      <point x="453.5" y="108.75" type="line"/>
      <point x="461.75" y="31.25"/>
      <point x="519.5" y="-12.0"/>
      <point x="607.25" y="-12.0" type="curve"/>
      <point x="668.75" y="115.5" type="line"/>
      <point x="622.25" y="115.5"/>
      <point x="602.0" y="138.0"/>
      <point x="616.25" y="195.25" type="curve" smooth="yes"/>
      <point x="715.75" y="600.0" type="line"/>
      <point x="558.25" y="600.0" type="line"/>
      <point x="475.5" y="263.25" type="line" smooth="yes"/>
      <point x="453.5" y="173.0"/>
      <point x="379.75" y="124.5"/>
      <point x="313.75" y="124.5" type="curve" smooth="yes"/>
      <point x="232.5" y="124.5"/>
      <point x="202.25" y="191.5"/>
      <point x="220.75" y="265.5" type="curve" smooth="yes"/>
      <point x="303.25" y="600.0" type="line"/>
      <point x="145.75" y="600.0" type="line"/>
    </contour>
  </outline>
</glyph>
<glyph name="paragraph" format="2">
  <advance width="750.0"/>
  <unicode hex="00B6"/>
  <outline>
    <contour>
      <point x="171.25" y="-180.0" type="line"/>
      <point x="303.25" y="-180.0" type="line"/>
      <point x="559.25" y="841.5" type="line"/>
      <point x="670.25" y="841.5" type="line"/>
      <point x="414.25" y="-180.0" type="line"/>
      <point x="546.25" y="-180.0" type="line"/>
      <point x="831.25" y="960.0" type="line"/>
      <point x="471.0" y="960.0" type="line" smooth="yes"/>
      <point x="264.5" y="960.0"/>
      <point x="126.75" y="796.75"/>
      <point x="126.75" y="629.25" type="curve" smooth="yes"/>
      <point x="126.75" y="526.5"/>
      <point x="178.5" y="422.5"/>
      <point x="312.0" y="383.0" type="curve"/>
    </contour>
  </outline>
</glyph>
<glyph name="ordmasculine" format="2">
  <advance width="480.0"/>
  <unicode hex="00BA"/>
  <outline>
    <contour>
      <point x="293.0" y="403.5" type="curve" smooth="yes"/>
      <point x="412.25" y="403.5"/>
      <point x="519.0" y="505.5"/>
      <point x="519.0" y="620.25" type="curve" smooth="yes"/>
      <point x="519.0" y="720.5"/>
      <point x="440.0" y="796.5"/>
      <point x="337.5" y="796.5" type="curve" smooth="yes"/>
      <point x="217.5" y="796.5"/>
      <point x="111.0" y="694.25"/>
      <point x="111.0" y="579.0" type="curve" smooth="yes"/>
      <point x="111.0" y="479.75"/>
      <point x="190.0" y="403.5"/>
    </contour>
    <contour>
      <point x="305.25" y="511.5" type="curve" smooth="yes"/>
      <point x="259.0" y="511.5"/>
      <point x="224.25" y="546.25"/>
      <point x="224.25" y="591.25" type="curve" smooth="yes"/>
      <point x="224.25" y="642.0"/>
      <point x="272.0" y="688.5"/>
      <point x="325.0" y="688.5" type="curve" smooth="yes"/>
      <point x="371.0" y="688.5"/>
      <point x="406.0" y="654.25"/>
      <point x="406.0" y="608.75" type="curve" smooth="yes"/>
      <point x="406.0" y="558.25"/>
      <point x="358.0" y="511.5"/>
    </contour>
  </outline>
</glyph>
<glyph name="guillemetright" format="2">
  <advance width="622.5"/>
  <unicode hex="00BB"/>
  <outline>
    <contour>
      <point x="-32.25" y="60.75" type="line"/>
      <point x="126.25" y="60.75" type="line"/>
      <point x="333.25" y="285.75" type="line"/>
      <point x="224.25" y="540.75" type="line"/>
      <point x="85.75" y="540.75" type="line"/>
      <point x="188.75" y="300.75" type="line"/>
    </contour>
    <contour>
      <point x="251.5" y="60.0" type="line"/>
      <point x="410.0" y="60.0" type="line"/>
      <point x="595.75" y="261.75" type="line"/>
      <point x="476.75" y="540.75" type="line"/>
      <point x="338.25" y="540.75" type="line"/>
      <point x="451.25" y="276.75" type="line"/>
    </contour>
  </outline>
</glyph>
<glyph name="questiondown" format="2">
  <advance width="480.0"/>
  <unicode hex="00BF"/>
  <outline>
    <contour>
      <point x="134.25" y="-318.0" type="curve" smooth="yes"/>
      <point x="181.75" y="-318.0"/>
      <point x="224.75" y="-306.75"/>
      <point x="264.75" y="-285.5" type="curve"/>
      <point x="304.25" y="-120.75" type="line"/>
      <point x="269.5" y="-149.5"/>
      <point x="220.5" y="-176.0"/>
      <point x="167.75" y="-176.0" type="curve" smooth="yes"/>
      <point x="113.75" y="-176.0"/>
      <point x="77.75" y="-144.75"/>
      <point x="77.75" y="-101.0" type="curve" smooth="yes"/>
      <point x="77.75" y="-1.25"/>
      <point x="265.25" y="94.25"/>
      <point x="300.0" y="276.0" type="curve"/>
      <point x="173.0" y="276.0" type="line"/>
      <point x="110.0" y="111.25"/>
      <point x="-77.0" y="46.5"/>
      <point x="-77.0" y="-126.75" type="curve" smooth="yes"/>
      <point x="-77.0" y="-252.5"/>
      <point x="21.75" y="-318.0"/>
    </contour>
    <contour>
      <point x="282.5" y="421.5" type="curve" smooth="yes"/>
      <point x="341.0" y="421.5"/>
      <point x="392.0" y="472.5"/>
      <point x="392.0" y="530.25" type="curve" smooth="yes"/>
      <point x="392.0" y="580.0"/>
      <point x="353.0" y="616.5"/>
      <point x="306.5" y="616.5" type="curve" smooth="yes"/>
      <point x="248.0" y="616.5"/>
      <point x="197.0" y="565.5"/>
      <point x="197.0" y="507.0" type="curve" smooth="yes"/>
      <point x="197.0" y="458.5"/>
      <point x="233.75" y="421.5"/>
    </contour>
  </outline>
</glyph>
<glyph name="AE" format="2">
  <advance width="1035.0"/>
  <unicode hex="00C6"/>
  <anchor x="684.25" y="0.0" name="bottom"/>
  <anchor x="870.0" y="0.0" name="ogonek"/>
  <anchor x="673.75" y="900.0" name="top"/>
  <anchor x="229.5" y="720.0" name="top-vertical"/>
  <anchor x="522.5" y="900.0" name="topleft"/>
  <outline>
    <contour>
      <point x="-61.5" y="0.0" type="line"/>
      <point x="108.5" y="0.0" type="line"/>
      <point x="393.75" y="432.0" type="line"/>
      <point x="431.75" y="490.5"/>
      <point x="472.0" y="549.5"/>
      <point x="513.5" y="626.0" type="curve"/>
      <point x="512.75" y="549.5"/>
      <point x="518.75" y="490.5"/>
      <point x="524.75" y="432.0" type="curve"/>
      <point x="562.0" y="0.0" type="line"/>
      <point x="934.5" y="0.0" type="line"/>
      <point x="970.75" y="147.0" type="line"/>
      <point x="697.5" y="147.0" type="line"/>
      <point x="669.75" y="468.0" type="line"/>
      <point x="875.5" y="468.0" type="line"/>
      <point x="909.5" y="606.0" type="line"/>
      <point x="657.0" y="606.0" type="line"/>
      <point x="644.5" y="757.5" type="line"/>
      <point x="917.0" y="757.5" type="line"/>
      <point x="952.5" y="900.0" type="line"/>
      <point x="541.0" y="900.0" type="line"/>
    </contour>
    <contour>
      <point x="165.25" y="186.75" type="line"/>
      <point x="586.75" y="186.75" type="line"/>
      <point x="571.0" y="318.5" type="line"/>
      <point x="246.75" y="318.5" type="line"/>
    </contour>
  </outline>
</glyph>
<glyph name="multiply" format="2">
  <advance width="750.0"/>
  <unicode hex="00D7"/>
  <outline>
    <contour>
      <point x="533.75" y="171.75" type="line"/>
      <point x="640.0" y="257.25" type="line"/>
      <point x="290.25" y="728.25" type="line"/>
      <point x="184.0" y="642.75" type="line"/>
    </contour>
    <contour>
      <point x="159.75" y="171.75" type="line"/>
      <point x="741.5" y="627.25" type="line"/>
      <point x="664.25" y="728.25" type="line"/>
      <point x="82.5" y="272.75" type="line"/>
    </contour>
  </outline>
</glyph>
<glyph name="Thorn" format="2">
  <advance width="735.0"/>
  <unicode hex="00DE"/>
  <outline>
    <contour>
      <point x="147.5" y="175.75" type="line"/>
      <point x="387.25" y="175.75" type="line" smooth="yes"/>
      <point x="578.25" y="175.75"/>
      <point x="744.0" y="334.0"/>
      <point x="744.0" y="512.75" type="curve" smooth="yes"/>
      <point x="744.0" y="665.25"/>
      <point x="621.75" y="780.0"/>
      <point x="459.75" y="780.0" type="curve" smooth="yes"/>
      <point x="297.5" y="780.0" type="line"/>
      <point x="262.0" y="637.5" type="line"/>
      <point x="423.0" y="637.5" type="line" smooth="yes"/>
      <point x="519.5" y="637.5"/>
      <point x="580.5" y="580.25"/>
      <point x="580.5" y="499.75" type="curve" smooth="yes"/>
      <point x="580.5" y="402.25"/>
      <point x="494.75" y="318.25"/>
      <point x="384.0" y="318.25" type="curve" smooth="yes"/>
      <point x="183.0" y="318.25" type="line"/>
    </contour>
    <contour>
      <point x="28.5" y="0.0" type="line"/>
      <point x="187.5" y="0.0" type="line"/>
      <point x="412.5" y="900.0" type="line"/>
      <point x="253.5" y="900.0" type="line"/>
    </contour>
  </outline>
</glyph>
<glyph name="germandbls" format="2">
  <advance width="712.5"/>
  <unicode hex="00DF"/>
  <outline>
    <contour>
      <point x="282.5" y="-15.75" type="line"/>
      <point x="500.5" y="-11.5"/>
      <point x="684.75" y="162.0"/>
      <point x="684.75" y="362.75" type="curve" smooth="yes"/>
      <point x="684.75" y="462.75"/>
      <point x="638.75" y="547.5"/>
      <point x="557.0" y="598.5" type="curve"/>
      <point x="553.25" y="549.5" type="line"/>
      <point x="642.5" y="596.25"/>
      <point x="696.25" y="679.0"/>
      <point x="696.25" y="768.25" type="curve" smooth="yes"/>
      <point x="696.25" y="887.75"/>
      <point x="598.75" y="975.75"/>
      <point x="466.5" y="975.75" type="curve" smooth="yes"/>
      <point x="331.0" y="975.75"/>
      <point x="220.0" y="884.25"/>
      <point x="184.5" y="743.25" type="curve" smooth="yes"/>
      <point x="-1.5" y="0.0" type="line"/>
      <point x="156.0" y="0.0" type="line"/>
      <point x="336.75" y="723.5" type="line" smooth="yes"/>
      <point x="353.25" y="790.75"/>
      <point x="399.25" y="835.5"/>
      <point x="455.25" y="835.5" type="curve" smooth="yes"/>
      <point x="509.5" y="835.5"/>
      <point x="547.75" y="798.75"/>
      <point x="547.75" y="744.0" type="curve" smooth="yes"/>
      <point x="547.75" y="672.5"/>
      <point x="481.0" y="604.75"/>
      <point x="368.5" y="563.25" type="curve"/>
      <point x="469.5" y="507.25"/>
      <point x="521.25" y="436.0"/>
      <point x="521.25" y="350.75" type="curve" smooth="yes"/>
      <point x="521.25" y="226.0"/>
      <point x="413.0" y="125.25"/>
      <point x="282.5" y="125.25" type="curve"/>
    </contour>
  </outline>
</glyph>
<glyph name="ae" format="2">
  <advance width="1102.5"/>
  <unicode hex="00E6"/>
  <anchor x="476.25" y="0.0" name="bottom"/>
  <anchor x="579.0" y="600.0" name="top"/>
  <outline>
    <contour>
      <point x="747.75" y="-18.0" type="curve" smooth="yes"/>
      <point x="824.5" y="-18.0"/>
      <point x="897.25" y="7.5"/>
      <point x="949.5" y="47.75" type="curve"/>
      <point x="949.5" y="213.0" type="line"/>
      <point x="915.0" y="158.0"/>
      <point x="835.5" y="115.5"/>
      <point x="762.75" y="115.5" type="curve" smooth="yes"/>
      <point x="665.0" y="115.5"/>
      <point x="599.25" y="182.0"/>
      <point x="599.25" y="286.0" type="curve"/>
      <point x="588.75" y="286.0" type="line"/>
      <point x="588.75" y="398.75"/>
      <point x="679.75" y="489.75"/>
      <point x="794.0" y="489.75" type="curve" smooth="yes"/>
      <point x="893.5" y="489.75"/>
      <point x="947.25" y="423.25"/>
      <point x="933.25" y="324.25" type="curve"/>
      <point x="966.25" y="356.25" type="line"/>
      <point x="927.75" y="365.75"/>
      <point x="889.0" y="371.25"/>
      <point x="842.0" y="371.25" type="curve" smooth="yes"/>
      <point x="705.25" y="371.25" type="line" smooth="yes"/>
      <point x="660.25" y="371.25"/>
      <point x="613.75" y="364.75"/>
      <point x="556.0" y="351.25" type="curve"/>
      <point x="536.5" y="274.25" type="line"/>
      <point x="589.0" y="260.75"/>
      <point x="631.5" y="254.25"/>
      <point x="676.5" y="254.25" type="curve" smooth="yes"/>
      <point x="1056.5" y="254.25" type="line"/>
      <point x="1069.0" y="304.25" type="line" smooth="yes"/>
      <point x="1112.5" y="479.25"/>
      <point x="1006.0" y="618.0"/>
      <point x="820.5" y="618.0" type="curve" smooth="yes"/>
      <point x="729.75" y="618.0"/>
      <point x="644.5" y="584.25"/>
      <point x="579.0" y="530.5" type="curve"/>
      <point x="530.5" y="585.0"/>
      <point x="448.25" y="616.25"/>
      <point x="345.75" y="616.25" type="curve" smooth="yes"/>
      <point x="276.75" y="616.25"/>
      <point x="208.0" y="602.0"/>
      <point x="150.25" y="577.0" type="curve"/>
      <point x="148.75" y="436.0" type="line"/>
      <point x="200.25" y="470.0"/>
      <point x="263.25" y="491.0"/>
      <point x="324.5" y="491.0" type="curve" smooth="yes"/>
      <point x="427.0" y="491.0"/>
      <point x="494.25" y="432.5"/>
      <point x="484.75" y="357.5" type="curve"/>
      <point x="476.75" y="325.75" type="line"/>
      <point x="418.25" y="362.25"/>
      <point x="342.0" y="382.5"/>
      <point x="271.75" y="382.5" type="curve" smooth="yes"/>
      <point x="126.5" y="382.5"/>
      <point x="14.0" y="293.0"/>
      <point x="14.0" y="169.25" type="curve" smooth="yes"/>
      <point x="14.0" y="59.0"/>
      <point x="106.75" y="-12.5"/>
      <point x="239.25" y="-12.5" type="curve" smooth="yes"/>
      <point x="340.0" y="-12.5"/>
      <point x="432.0" y="28.0"/>
      <point x="501.0" y="101.25" type="curve"/>
      <point x="554.5" y="28.5"/>
      <point x="640.75" y="-18.0"/>
    </contour>
    <contour>
      <point x="272.25" y="108.5" type="curve" smooth="yes"/>
      <point x="209.5" y="108.5"/>
      <point x="165.0" y="135.0"/>
      <point x="165.0" y="185.75" type="curve" smooth="yes"/>
      <point x="165.0" y="236.0"/>
      <point x="208.5" y="265.5"/>
      <point x="279.25" y="265.5" type="curve" smooth="yes"/>
      <point x="334.25" y="265.5"/>
      <point x="400.25" y="247.5"/>
      <point x="450.5" y="218.75" type="curve"/>
      <point x="452.75" y="206.25" type="line"/>
      <point x="426.25" y="149.75"/>
      <point x="350.0" y="108.5"/>
    </contour>
  </outline>
</glyph>
<glyph name="eth" format="2">
  <advance width="725.0"/>
  <unicode hex="00F0"/>
  <outline>
    <contour>
      <point x="330.25" y="-18.0" type="curve" smooth="yes"/>
      <point x="543.0" y="-18.0"/>
      <point x="690.5" y="177.5"/>
      <point x="690.5" y="373.75" type="curve" smooth="yes"/>
      <point x="690.5" y="431.75"/>
      <point x="677.75" y="496.0"/>
      <point x="651.5" y="565.75" type="curve" smooth="yes"/>
      <point x="622.0" y="644.0"/>
      <point x="544.0" y="815.5"/>
      <point x="463.25" y="961.5" type="curve"/>
      <point x="308.25" y="960.0" type="line"/>
      <point x="384.25" y="822.5"/>
      <point x="456.0" y="684.5"/>
      <point x="510.75" y="550.75" type="curve"/>
      <point x="529.75" y="560.0" type="line"/>
      <point x="486.25" y="599.75"/>
      <point x="428.75" y="612.0"/>
      <point x="382.25" y="612.0" type="curve" smooth="yes"/>
      <point x="204.25" y="612.0"/>
      <point x="41.5" y="448.25"/>
      <point x="41.5" y="264.5" type="curve" smooth="yes"/>
      <point x="41.5" y="104.5"/>
      <point x="164.75" y="-18.0"/>
    </contour>
    <contour>
      <point x="340.75" y="124.5" type="curve" smooth="yes"/>
      <point x="254.25" y="124.5"/>
      <point x="192.75" y="196.25"/>
      <point x="192.75" y="279.0" type="curve" smooth="yes"/>
      <point x="192.75" y="382.25"/>
      <point x="283.0" y="475.5"/>
      <point x="384.0" y="475.5" type="curve" smooth="yes"/>
      <point x="471.0" y="475.5"/>
      <point x="533.75" y="408.75"/>
      <point x="533.75" y="325.25" type="curve" smooth="yes"/>
      <point x="533.75" y="220.25"/>
      <point x="441.5" y="124.5"/>
    </contour>
    <contour>
      <point x="266.75" y="670.75" type="line"/>
      <point x="684.5" y="860.75" type="line"/>
      <point x="657.5" y="932.75" type="line"/>
      <point x="240.0" y="743.5" type="line"/>
    </contour>
  </outline>
</glyph>
<glyph name="divide" format="2">
  <advance width="750.0"/>
  <unicode hex="00F7"/>
  <outline>
    <contour>
      <point x="76.25" y="384.75" type="line"/>
      <point x="721.25" y="384.75" type="line"/>
      <point x="753.75" y="515.25" type="line"/>
      <point x="108.75" y="515.25" type="line"/>
    </contour>
    <contour>
      <point x="343.0" y="126.0" type="curve" smooth="yes"/>
      <point x="397.5" y="126.0"/>
      <point x="445.5" y="174.0"/>
      <point x="445.5" y="228.5" type="curve" smooth="yes"/>
      <point x="445.5" y="274.0"/>
      <point x="411.0" y="309.0"/>
      <point x="365.0" y="309.0" type="curve" smooth="yes"/>
      <point x="310.5" y="309.0"/>
      <point x="262.5" y="261.0"/>
      <point x="262.5" y="207.25" type="curve" smooth="yes"/>
      <point x="262.5" y="160.5"/>
      <point x="298.5" y="126.0"/>
    </contour>
    <contour>
      <point x="459.25" y="591.0" type="curve" smooth="yes"/>
      <point x="513.75" y="591.0"/>
      <point x="561.75" y="639.0"/>
      <point x="561.75" y="693.5" type="curve" smooth="yes"/>
      <point x="561.75" y="739.0"/>
      <point x="527.25" y="774.0"/>
      <point x="481.25" y="774.0" type="curve" smooth="yes"/>
      <point x="426.75" y="774.0"/>
      <point x="378.75" y="726.0"/>
      <point x="378.75" y="672.25" type="curve" smooth="yes"/>
      <point x="378.75" y="625.5"/>
      <point x="414.75" y="591.0"/>
    </contour>
  </outline>
</glyph>
<glyph name="idotless" format="2">
  <advance width="307.5"/>
  <unicode hex="0131"/>
  <anchor x="78.75" y="0.0" name="bottom"/>
  <anchor x="78.75" y="0.0" name="ogonek"/>
  <anchor x="228.75" y="600.0" name="top"/>
  <outline>
    <contour>
      <point x="0.0" y="0.0" type="line"/>
      <point x="157.5" y="0.0" type="line"/>
      <point x="307.5" y="600.0" type="line"/>
      <point x="150.0" y="600.0" type="line"/>
    </contour>
  </outline>
</glyph>
<glyph name="kgreenlandic" format="2">
  <advance width="660.0"/>
  <unicode hex="0138"/>
  <anchor x="282.5" y="0.0" name="bottom"/>
  <anchor x="391.25" y="600.0" name="top"/>
  <outline>
    <contour>
      <point x="408.75" y="0.75" type="line"/>
      <point x="581.25" y="0.75" type="line"/>
      <point x="378.75" y="395.25" type="line"/>
      <point x="374.75" y="322.0" type="line"/>
      <point x="660.75" y="600.0" type="line"/>
      <point x="477.75" y="600.0" type="line"/>
      <point x="231.0" y="354.0" type="line"/>
    </contour>
    <contour>
      <point x="-1.5" y="0.0" type="line"/>
      <point x="156.0" y="0.0" type="line"/>
      <point x="304.5" y="600.0" type="line"/>
      <point x="147.0" y="600.0" type="line"/>
    </contour>
  </outline>
</glyph>
<glyph name="Eng" format="2">
  <advance width="922.5"/>
  <unicode hex="014A"/>
  <anchor x="420.0" y="0.0" name="bottom"/>
  <anchor x="644.25" y="900.0" name="top"/>
  <outline>
    <contour>
      <point x="477.25" y="-198.0" type="curve" smooth="yes"/>
      <point x="585.0" y="-198.0"/>
      <point x="714.0" y="-121.25"/>
      <point x="757.75" y="53.0" type="curve" smooth="yes"/>
      <point x="969.0" y="900.0" type="line"/>
      <point x="816.0" y="900.0" type="line"/>
      <point x="674.75" y="332.75" type="line"/>
      <point x="260.5" y="930.0" type="line"/>
      <point x="28.5" y="0.0" type="line"/>
      <point x="181.5" y="0.0" type="line"/>
      <point x="322.75" y="568.0" type="line"/>
      <point x="623.75" y="131.75" type="line"/>
      <point x="612.25" y="85.0" type="line" smooth="yes"/>
      <point x="589.0" y="-7.0"/>
      <point x="537.75" y="-46.5"/>
      <point x="480.75" y="-46.5" type="curve" smooth="yes"/>
      <point x="424.0" y="-46.5"/>
      <point x="377.75" y="-8.25"/>
      <point x="361.0" y="40.75" type="curve"/>
      <point x="280.25" y="-107.0" type="line"/>
      <point x="320.75" y="-171.25"/>
      <point x="407.25" y="-198.0"/>
    </contour>
  </outline>
</glyph>
<glyph name="eng" format="2">
  <advance width="705.0"/>
  <unicode hex="014B"/>
  <outline>
    <contour>
      <point x="294.0" y="-312.0" type="line"/>
      <point x="408.5" y="-312.0"/>
      <point x="509.75" y="-236.5"/>
      <point x="542.75" y="-105.25" type="curve" smooth="yes"/>
      <point x="653.5" y="338.5" type="line" smooth="yes"/>
      <point x="689.25" y="480.75"/>
      <point x="627.75" y="618.0"/>
      <point x="465.75" y="618.0" type="curve" smooth="yes"/>
      <point x="347.5" y="618.0"/>
      <point x="230.5" y="535.25"/>
      <point x="188.5" y="363.5" type="curve"/>
      <point x="244.75" y="348.75" type="line"/>
      <point x="267.5" y="442.75"/>
      <point x="334.25" y="487.5"/>
      <point x="400.25" y="487.5" type="curve" smooth="yes"/>
      <point x="484.75" y="487.5"/>
      <point x="515.75" y="417.0"/>
      <point x="495.75" y="336.5" type="curve" smooth="yes"/>
      <point x="386.0" y="-104.75" type="line" smooth="yes"/>
      <point x="371.75" y="-162.0"/>
      <point x="339.75" y="-184.5"/>
      <point x="294.0" y="-184.5" type="curve"/>
    </contour>
    <contour>
      <point x="-1.5" y="0.0" type="line"/>
      <point x="156.0" y="0.0" type="line"/>
      <point x="264.0" y="426.25" type="line"/>
      <point x="255.0" y="454.5" type="line"/>
      <point x="290.5" y="600.0" type="line"/>
      <point x="148.5" y="600.0" type="line"/>
    </contour>
  </outline>
</glyph>
<glyph name="OE" format="2">
  <advance width="1335.0"/>
  <unicode hex="0152"/>
  <anchor x="455.0" y="0.0" name="bottom"/>
  <anchor x="566.0" y="450.0" name="center"/>
  <anchor x="455.0" y="0.0" name="ogonek"/>
  <anchor x="677.0" y="900.0" name="top"/>
  <anchor x="576.75" y="495.0" name="top-vertical"/>
  <anchor x="207.0" y="900.0" name="topleft"/>
  <anchor x="1147.0" y="900.0" name="topright"/>
  <outline>
    <contour>
      <point x="488.75" y="-18.0" type="curve" smooth="yes"/>
      <point x="612.0" y="-18.0"/>
      <point x="732.5" y="36.75"/>
      <point x="816.25" y="135.5" type="curve"/>
      <point x="771.5" y="147.0" type="line"/>
      <point x="735.0" y="0.0" type="line"/>
      <point x="1204.5" y="0.0" type="line"/>
      <point x="1240.75" y="147.0" type="line"/>
      <point x="928.75" y="147.0" type="line"/>
      <point x="1008.75" y="468.0" type="line"/>
      <point x="1250.75" y="468.0" type="line"/>
      <point x="1285.5" y="606.0" type="line"/>
      <point x="1043.5" y="606.0" type="line"/>
      <point x="1082.0" y="757.5" type="line"/>
      <point x="1394.0" y="757.5" type="line"/>
      <point x="1429.5" y="900.0" type="line"/>
      <point x="960.0" y="900.0" type="line"/>
      <point x="915.25" y="722.5" type="line"/>
      <point x="977.75" y="706.0" type="line"/>
      <point x="915.25" y="832.75"/>
      <point x="782.25" y="918.0"/>
      <point x="621.25" y="918.0" type="curve" smooth="yes"/>
      <point x="343.25" y="918.0"/>
      <point x="93.5" y="669.75"/>
      <point x="93.5" y="395.75" type="curve" smooth="yes"/>
      <point x="93.5" y="162.75"/>
      <point x="265.0" y="-18.0"/>
    </contour>
    <contour>
      <point x="530.5" y="139.5" type="curve" smooth="yes"/>
      <point x="380.5" y="139.5"/>
      <point x="265.5" y="257.25"/>
      <point x="265.5" y="410.5" type="curve" smooth="yes"/>
      <point x="265.5" y="593.5"/>
      <point x="425.75" y="760.5"/>
      <point x="604.25" y="760.5" type="curve" smooth="yes"/>
      <point x="755.0" y="760.5"/>
      <point x="868.5" y="644.25"/>
      <point x="868.5" y="491.0" type="curve" smooth="yes"/>
      <point x="868.5" y="307.25"/>
      <point x="709.0" y="139.5"/>
    </contour>
  </outline>
</glyph>
<glyph name="oe" format="2">
  <advance width="1157.5"/>
  <unicode hex="0153"/>
  <anchor x="578.75" y="0.0" name="bottom"/>
  <anchor x="578.75" y="600.0" name="top"/>
  <outline>
    <contour>
      <point x="325.5" y="-18.0" type="curve" smooth="yes"/>
      <point x="417.0" y="-18.0"/>
      <point x="503.5" y="23.0"/>
      <point x="568.75" y="84.5" type="curve"/>
      <point x="621.5" y="21.25"/>
      <point x="705.25" y="-18.0"/>
      <point x="802.75" y="-18.0" type="curve" smooth="yes"/>
      <point x="879.5" y="-18.0"/>
      <point x="952.25" y="7.5"/>
      <point x="1004.5" y="47.75" type="curve"/>
      <point x="1004.5" y="213.0" type="line"/>
      <point x="970.0" y="158.0"/>
      <point x="890.5" y="115.5"/>
      <point x="817.75" y="115.5" type="curve" smooth="yes"/>
      <point x="720.0" y="115.5"/>
      <point x="654.25" y="182.0"/>
      <point x="654.25" y="286.0" type="curve"/>
      <point x="643.75" y="286.0" type="line"/>
      <point x="643.75" y="398.75"/>
      <point x="734.75" y="489.75"/>
      <point x="849.0" y="489.75" type="curve" smooth="yes"/>
      <point x="948.5" y="489.75"/>
      <point x="1002.25" y="423.25"/>
      <point x="988.25" y="324.25" type="curve"/>
      <point x="1021.25" y="356.25" type="line"/>
      <point x="982.75" y="365.75"/>
      <point x="944.0" y="371.25"/>
      <point x="897.0" y="371.25" type="curve" smooth="yes"/>
      <point x="767.75" y="371.25" type="line" smooth="yes"/>
      <point x="722.75" y="371.25"/>
      <point x="676.25" y="364.75"/>
      <point x="618.5" y="351.25" type="curve"/>
      <point x="599.0" y="274.25" type="line"/>
      <point x="651.5" y="260.75"/>
      <point x="694.0" y="254.25"/>
      <point x="739.0" y="254.25" type="curve" smooth="yes"/>
      <point x="1111.5" y="254.25" type="line"/>
      <point x="1124.0" y="304.25" type="line" smooth="yes"/>
      <point x="1167.25" y="478.5"/>
      <point x="1061.75" y="618.0"/>
      <point x="875.5" y="618.0" type="curve" smooth="yes"/>
      <point x="778.0" y="618.0"/>
      <point x="687.0" y="579.25"/>
      <point x="619.75" y="517.0" type="curve"/>
      <point x="569.25" y="578.75"/>
      <point x="490.5" y="618.0"/>
      <point x="400.25" y="618.0" type="curve" smooth="yes"/>
      <point x="209.75" y="618.0"/>
      <point x="40.5" y="450.0"/>
      <point x="40.5" y="263.75" type="curve" smooth="yes"/>
      <point x="40.5" y="100.75"/>
      <point x="169.0" y="-18.0"/>
    </contour>
    <contour>
      <point x="341.75" y="124.5" type="curve" smooth="yes"/>
      <point x="253.75" y="124.5"/>
      <point x="191.75" y="192.5"/>
      <point x="191.75" y="278.5" type="curve" smooth="yes"/>
      <point x="191.75" y="381.5"/>
      <point x="280.25" y="475.5"/>
      <point x="383.25" y="475.5" type="curve" smooth="yes"/>
      <point x="471.25" y="475.5"/>
      <point x="533.25" y="406.75"/>
      <point x="533.25" y="321.5" type="curve" smooth="yes"/>
      <point x="533.25" y="219.25"/>
      <point x="444.75" y="124.5"/>
    </contour>
  </outline>
</glyph>
<glyph name="Schwa" format="2">
  <advance width="1050.0"/>
  <unicode hex="018F"/>
  <outline>
    <contour>
      <point x="501.75" y="-17.0" type="curve" smooth="yes"/>
      <point x="780.75" y="-17.0"/>
      <point x="1030.5" y="229.25"/>
      <point x="1030.5" y="503.75" type="curve" smooth="yes"/>
      <point x="1030.5" y="737.5"/>
      <point x="848.0" y="917.25"/>
      <point x="611.0" y="917.25" type="curve" smooth="yes"/>
      <point x="510.25" y="917.25"/>
      <point x="412.75" y="885.25"/>
      <point x="329.25" y="830.5" type="curve"/>
      <point x="329.25" y="621.5" type="line"/>
      <point x="392.25" y="704.25"/>
      <point x="490.25" y="760.0"/>
      <point x="593.75" y="760.0" type="curve" smooth="yes"/>
      <point x="744.5" y="760.0"/>
      <point x="858.25" y="644.75"/>
      <point x="858.25" y="491.25" type="curve" smooth="yes"/>
      <point x="858.25" y="308.0"/>
      <point x="699.75" y="140.25"/>
      <point x="519.75" y="140.25" type="curve" smooth="yes"/>
      <point x="328.0" y="140.25"/>
      <point x="213.5" y="295.25"/>
      <point x="259.75" y="487.75" type="curve"/>
      <point x="177.0" y="390.0" type="line"/>
      <point x="714.25" y="390.0" type="line" smooth="yes"/>
      <point x="771.25" y="390.0"/>
      <point x="831.25" y="398.0"/>
      <point x="891.25" y="410.0" type="curve"/>
      <point x="915.25" y="508.0" type="line"/>
      <point x="861.25" y="520.0"/>
      <point x="805.25" y="528.0"/>
      <point x="748.25" y="528.0" type="curve" smooth="yes"/>
      <point x="102.0" y="528.0" type="line"/>
      <point x="95.75" y="501.5" type="line" smooth="yes"/>
      <point x="30.75" y="224.0"/>
      <point x="220.0" y="-17.0"/>
    </contour>
  </outline>
</glyph>
<glyph name="Ohorn" format="2">
  <advance width="1060.0"/>
  <unicode hex="01A0"/>
  <anchor x="456.0" y="0.0" name="bottom"/>
  <anchor x="456.0" y="0.0" name="ogonek"/>
  <anchor x="678.0" y="900.0" name="top"/>
  <outline>
    <contour>
      <point x="512.75" y="-18.0" type="curve" smooth="yes"/>
      <point x="791.5" y="-18.0"/>
      <point x="1040.5" y="230.25"/>
      <point x="1040.5" y="503.5" type="curve" smooth="yes"/>
      <point x="1040.5" y="736.5"/>
      <point x="859.0" y="918.0"/>
      <point x="621.25" y="918.0" type="curve" smooth="yes"/>
      <point x="343.25" y="918.0"/>
      <point x="93.5" y="669.75"/>
      <point x="93.5" y="395.75" type="curve" smooth="yes"/>
      <point x="93.5" y="162.75"/>
      <point x="275.0" y="-18.0"/>
    </contour>
    <contour>
      <point x="530.5" y="139.5" type="curve" smooth="yes"/>
      <point x="380.5" y="139.5"/>
      <point x="265.5" y="257.25"/>
      <point x="265.5" y="410.5" type="curve" smooth="yes"/>
      <point x="265.5" y="593.5"/>
      <point x="425.75" y="760.5"/>
      <point x="604.25" y="760.5" type="curve" smooth="yes"/>
      <point x="755.0" y="760.5"/>
      <point x="868.5" y="644.25"/>
      <point x="868.5" y="491.0" type="curve" smooth="yes"/>
      <point x="868.5" y="307.25"/>
      <point x="709.0" y="139.5"/>
    </contour>
    <contour>
      <point x="945.75" y="684.5" type="line"/>
      <point x="1085.25" y="684.5"/>
      <point x="1170.0" y="810.25"/>
      <point x="1170.0" y="914.0" type="curve" smooth="yes"/>
      <point x="1170.0" y="929.0"/>
      <point x="1168.0" y="944.0"/>
      <point x="1162.0" y="960.0" type="curve"/>
      <point x="1021.0" y="960.0" type="line"/>
      <point x="1026.0" y="944.0"/>
      <point x="1028.0" y="927.0"/>
      <point x="1028.0" y="912.0" type="curve" smooth="yes"/>
      <point x="1028.0" y="861.5"/>
      <point x="1005.0" y="791.0"/>
      <point x="920.0" y="779.0" type="curve"/>
    </contour>
  </outline>
</glyph>
<glyph name="ohorn" format="2">
  <advance width="770.0"/>
  <unicode hex="01A1"/>
  <anchor x="288.5" y="0.0" name="bottom"/>
  <anchor x="436.5" y="600.0" name="top"/>
  <outline>
    <contour>
      <point x="325.5" y="-16.5" type="curve" smooth="yes"/>
      <point x="513.75" y="-16.5"/>
      <point x="684.5" y="150.75"/>
      <point x="684.5" y="337.75" type="curve" smooth="yes"/>
      <point x="684.5" y="495.5"/>
      <point x="562.0" y="616.5"/>
      <point x="400.25" y="616.5" type="curve" smooth="yes"/>
      <point x="209.75" y="616.5"/>
      <point x="40.5" y="450.0"/>
      <point x="40.5" y="263.75" type="curve" smooth="yes"/>
      <point x="40.5" y="100.75"/>
      <point x="169.0" y="-16.5"/>
    </contour>
    <contour>
      <point x="341.75" y="126.0" type="curve" smooth="yes"/>
      <point x="253.75" y="126.0"/>
      <point x="191.75" y="192.5"/>
      <point x="191.75" y="278.5" type="curve" smooth="yes"/>
      <point x="191.75" y="381.5"/>
      <point x="280.25" y="474.75"/>
      <point x="383.25" y="474.75" type="curve" smooth="yes"/>
      <point x="471.25" y="474.75"/>
      <point x="533.25" y="406.75"/>
      <point x="533.25" y="321.5" type="curve" smooth="yes"/>
      <point x="533.25" y="219.25"/>
      <point x="444.75" y="126.0"/>
    </contour>
    <contour>
      <point x="635.0" y="398.0" type="line"/>
      <point x="746.0" y="398.0"/>
      <point x="833.0" y="510.0"/>
      <point x="833.0" y="615.0" type="curve" smooth="yes"/>
      <point x="833.0" y="630.0"/>
      <point x="831.0" y="645.0"/>
      <point x="826.0" y="660.0" type="curve"/>
      <point x="695.5" y="660.0" type="line"/>
      <point x="700.5" y="645.0"/>
      <point x="702.5" y="629.0"/>
      <point x="702.5" y="615.0" type="curve" smooth="yes"/>
      <point x="702.5" y="554.0"/>
      <point x="672.25" y="476.0"/>
      <point x="591.0" y="476.0" type="curve"/>
    </contour>
  </outline>
</glyph>
<glyph name="Uhorn" format="2">
  <advance width="935.0"/>
  <unicode hex="01AF"/>
  <anchor x="326.0" y="0.0" name="bottom"/>
  <anchor x="548.0" y="900.0" name="top"/>
  <outline>
    <contour>
      <point x="365.5" y="-18.0" type="curve" smooth="yes"/>
      <point x="539.75" y="-18.0"/>
      <point x="666.25" y="89.25"/>
      <point x="710.5" y="266.25" type="curve" smooth="yes"/>
      <point x="825.5" y="724.75" type="line"/>
      <point x="820.25" y="745.0" type="line"/>
      <point x="858.5" y="900.0" type="line"/>
      <point x="706.5" y="900.0" type="line"/>
      <point x="553.0" y="285.25" type="line" smooth="yes"/>
      <point x="530.25" y="194.75"/>
      <point x="466.25" y="137.25"/>
      <point x="382.25" y="137.25" type="curve" smooth="yes"/>
      <point x="282.25" y="137.25"/>
      <point x="229.25" y="219.25"/>
      <point x="256.0" y="327.75" type="curve" smooth="yes"/>
      <point x="399.0" y="900.0" type="line"/>
      <point x="231.0" y="900.0" type="line"/>
      <point x="91.25" y="340.75" type="line" smooth="yes"/>
      <point x="41.25" y="140.0"/>
      <point x="156.5" y="-18.0"/>
    </contour>
    <contour>
      <point x="858.25" y="684.5" type="curve" smooth="yes"/>
      <point x="974.25" y="684.5"/>
      <point x="1072.0" y="802.0"/>
      <point x="1072.0" y="914.25" type="curve" smooth="yes"/>
      <point x="1072.0" y="929.25"/>
      <point x="1070.0" y="944.25"/>
      <point x="1065.0" y="960.0" type="curve"/>
      <point x="928.5" y="960.0" type="line"/>
      <point x="933.5" y="945.0"/>
      <point x="935.5" y="929.0"/>
      <point x="935.5" y="915.0" type="curve" smooth="yes"/>
      <point x="935.5" y="861.25"/>
      <point x="909.25" y="789.5"/>
      <point x="845.0" y="789.5" type="curve" smooth="yes"/>
      <point x="818.25" y="789.5"/>
      <point x="797.25" y="802.25"/>
      <point x="790.5" y="828.25" type="curve"/>
      <point x="764.5" y="721.75" type="line"/>
      <point x="786.0" y="697.25"/>
      <point x="820.0" y="684.5"/>
    </contour>
  </outline>
</glyph>
<glyph name="uhorn" format="2">
  <advance width="840.0"/>
  <unicode hex="01B0"/>
  <anchor x="278.0" y="0.0" name="bottom"/>
  <anchor x="423.0" y="600.0" name="top"/>
  <outline>
    <contour>
      <point x="239.25" y="-18.0" type="curve" smooth="yes"/>
      <point x="357.5" y="-18.0"/>
      <point x="474.5" y="64.75"/>
      <point x="516.5" y="236.5" type="curve"/>
      <point x="460.25" y="251.25" type="line"/>
      <point x="437.5" y="157.25"/>
      <point x="370.75" y="112.5"/>
      <point x="304.75" y="112.5" type="curve" smooth="yes"/>
      <point x="220.25" y="112.5"/>
      <point x="189.25" y="183.0"/>
      <point x="209.25" y="263.5" type="curve" smooth="yes"/>
      <point x="294.0" y="600.0" type="line"/>
      <point x="136.5" y="600.0" type="line"/>
      <point x="51.5" y="261.5" type="line" smooth="yes"/>
      <point x="15.75" y="118.5"/>
      <point x="77.25" y="-18.0"/>
    </contour>
    <contour>
      <point x="414.5" y="0.0" type="line"/>
      <point x="556.5" y="0.0" type="line"/>
      <point x="668.5" y="447.75" type="line"/>
      <point x="658.0" y="447.75" type="line"/>
      <point x="696.0" y="600.0" type="line"/>
      <point x="549.0" y="600.0" type="line"/>
      <point x="441.0" y="173.75" type="line"/>
      <point x="450.0" y="145.5" type="line"/>
    </contour>
    <contour>
      <point x="695.5" y="389.0" type="curve" smooth="yes"/>
      <point x="779.0" y="389.0"/>
      <point x="869.5" y="452.0"/>
      <point x="898.0" y="568.0" type="curve" smooth="yes"/>
      <point x="905.0" y="597.0"/>
      <point x="908.0" y="628.0"/>
      <point x="897.0" y="660.0" type="curve"/>
      <point x="766.5" y="660.0" type="line"/>
      <point x="777.5" y="627.0"/>
      <point x="773.5" y="592.0"/>
      <point x="767.5" y="568.0" type="curve" smooth="yes"/>
      <point x="753.75" y="512.75"/>
      <point x="716.25" y="489.5"/>
      <point x="683.0" y="489.5" type="curve" smooth="yes"/>
      <point x="656.25" y="489.5"/>
      <point x="635.25" y="502.25"/>
      <point x="627.0" y="528.25" type="curve"/>
      <point x="601.75" y="425.5" type="line"/>
      <point x="623.25" y="401.75"/>
      <point x="657.25" y="389.0"/>
    </contour>
  </outline>
</glyph>
<glyph name="Ezh" format="2">
  <advance width="660.0"/>
  <unicode hex="01B7"/>
  <anchor x="228.75" y="0.0" name="bottom"/>
  <anchor x="473.5" y="900.0" name="top"/>
  <outline>
    <contour>
      <point x="266.25" y="-18.0" type="curve" smooth="yes"/>
      <point x="453.25" y="-18.0"/>
      <point x="626.25" y="145.75"/>
      <point x="626.25" y="334.25" type="curve" smooth="yes"/>
      <point x="626.25" y="452.5"/>
      <point x="557.5" y="550.0"/>
      <point x="454.25" y="587.25" type="curve"/>
      <point x="455.75" y="543.25" type="line"/>
      <point x="736.25" y="900.0" type="line"/>
      <point x="225.0" y="900.0" type="line"/>
      <point x="190.25" y="757.5" type="line"/>
      <point x="516.75" y="757.5" type="line"/>
      <point x="488.75" y="796.0" type="line"/>
      <point x="222.0" y="457.0" type="line"/>
      <point x="251.25" y="468.0"/>
      <point x="278.25" y="473.75"/>
      <point x="306.25" y="473.75" type="curve" smooth="yes"/>
      <point x="408.0" y="473.75"/>
      <point x="469.25" y="404.25"/>
      <point x="469.25" y="322.0" type="curve" smooth="yes"/>
      <point x="469.25" y="225.25"/>
      <point x="383.75" y="130.5"/>
      <point x="280.0" y="130.5" type="curve" smooth="yes"/>
      <point x="172.25" y="130.5"/>
      <point x="110.5" y="228.25"/>
      <point x="116.5" y="326.5" type="curve"/>
      <point x="-10.5" y="168.75" type="line"/>
      <point x="34.25" y="49.0"/>
      <point x="145.75" y="-18.0"/>
    </contour>
  </outline>
</glyph>
<glyph name="jdotless" format="2">
  <advance width="307.5"/>
  <unicode hex="0237"/>
  <anchor x="9.5" y="-300.0" name="bottom"/>
  <anchor x="230.5" y="600.0" name="top"/>
  <outline>
    <contour>
      <point x="-115.5" y="-312.0" type="line"/>
      <point x="-1.0" y="-312.0"/>
      <point x="100.25" y="-236.5"/>
      <point x="133.25" y="-105.25" type="curve" smooth="yes"/>
      <point x="309.75" y="600.0" type="line"/>
      <point x="152.75" y="600.0" type="line"/>
      <point x="-23.5" y="-104.75" type="line" smooth="yes"/>
      <point x="-37.75" y="-162.0"/>
      <point x="-69.75" y="-184.5"/>
      <point x="-115.5" y="-184.5" type="curve"/>
    </contour>
  </outline>
</glyph>
<glyph name="acutecomb" format="2">
  <unicode hex="0301"/>
  <anchor x="435.0" y="600.0" name="_top"/>
  <outline>
    <contour>
      <point x="382.75" y="681.0" type="line"/>
      <point x="518.25" y="681.0" type="line"/>
      <point x="706.0" y="879.0" type="line"/>
      <point x="522.75" y="879.0" type="line"/>
    </contour>
  </outline>
</glyph>
<glyph name="circumflexcomb" format="2">
  <unicode hex="0302"/>
  <anchor x="435.0" y="600.0" name="_top"/>
  <outline>
    <contour>
      <point x="243.25" y="681.0" type="line"/>
      <point x="398.75" y="681.0" type="line"/>
      <point x="428.5" y="706.0"/>
      <point x="452.5" y="730.25"/>
      <point x="482.5" y="762.25" type="curve"/>
      <point x="497.0" y="730.25"/>
      <point x="508.5" y="706.0"/>
      <point x="525.75" y="681.0" type="curve"/>
      <point x="666.25" y="681.0" type="line"/>
      <point x="513.25" y="918.0" type="line"/>
    </contour>
  </outline>
</glyph>
<glyph name="tildecomb" format="2">
  <unicode hex="0303"/>
  <anchor x="435.0" y="600.0" name="_top"/>
  <outline>
    <contour>
      <point x="302.5" y="683.0" type="line"/>
      <point x="321.0" y="728.0"/>
      <point x="350.5" y="754.5"/>
      <point x="393.25" y="754.5" type="curve" smooth="yes"/>
      <point x="451.0" y="754.5"/>
      <point x="503.75" y="703.5"/>
      <point x="573.75" y="703.5" type="curve" smooth="yes"/>
      <point x="628.25" y="703.5"/>
      <point x="675.5" y="733.0"/>
      <point x="702.5" y="786.0" type="curve"/>
      <point x="663.0" y="899.5" type="line"/>
      <point x="644.5" y="854.5"/>
      <point x="615.0" y="828.0"/>
      <point x="572.25" y="828.0" type="curve" smooth="yes"/>
      <point x="514.5" y="828.0"/>
      <point x="461.75" y="879.0"/>
      <point x="391.75" y="879.0" type="curve" smooth="yes"/>
      <point x="337.25" y="879.0"/>
      <point x="290.0" y="849.5"/>
      <point x="263.0" y="796.5" type="curve"/>
    </contour>
  </outline>
</glyph>
<glyph name="brevecomb" format="2">
  <unicode hex="0306"/>
  <anchor x="435.0" y="600.0" name="_top"/>
  <anchor x="496.75" y="849.0" name="top"/>
  <outline>
    <contour>
      <point x="481.5" y="666.0" type="curve" smooth="yes"/>
      <point x="583.0" y="666.0"/>
      <point x="677.25" y="732.5"/>
      <point x="696.75" y="858.0" type="curve"/>
      <point x="580.0" y="858.0" type="line"/>
      <point x="571.75" y="808.25"/>
      <point x="529.75" y="776.5"/>
      <point x="488.25" y="776.5" type="curve" smooth="yes"/>
      <point x="443.75" y="776.5"/>
      <point x="411.25" y="814.25"/>
      <point x="416.75" y="858.0" type="curve"/>
      <point x="300.0" y="858.0" type="line"/>
      <point x="286.25" y="747.0"/>
      <point x="368.5" y="666.0"/>
    </contour>
  </outline>
</glyph>
<glyph name="dotaccentcomb" format="2">
  <unicode hex="0307"/>
  <anchor x="480.0" y="780.0" name="_centerright"/>
  <anchor x="435.0" y="600.0" name="_top"/>
  <outline>
    <contour>
      <point x="469.75" y="692.25" type="curve" smooth="yes"/>
      <point x="521.5" y="692.25"/>
      <point x="567.75" y="738.5"/>
      <point x="567.75" y="790.5" type="curve" smooth="yes"/>
      <point x="567.75" y="834.0"/>
      <point x="534.5" y="867.75"/>
      <point x="490.25" y="867.75" type="curve" smooth="yes"/>
      <point x="438.5" y="867.75"/>
      <point x="392.25" y="821.5"/>
      <point x="392.25" y="769.5" type="curve" smooth="yes"/>
      <point x="392.25" y="724.5"/>
      <point x="427.0" y="692.25"/>
    </contour>
  </outline>
</glyph>
<glyph name="hookabovecomb" format="2">
  <unicode hex="0309"/>
  <anchor x="435.25" y="600.0" name="_top"/>
  <outline>
    <contour>
      <point x="401.5" y="690.0" type="curve"/>
      <point x="560.25" y="690.0" type="line"/>
      <point x="590.25" y="715.5"/>
      <point x="612.25" y="752.0"/>
      <point x="612.25" y="793.5" type="curve" smooth="yes"/>
      <point x="612.25" y="870.25"/>
      <point x="544.25" y="918.75"/>
      <point x="439.75" y="918.75" type="curve" smooth="yes"/>
      <point x="407.0" y="918.75"/>
      <point x="377.75" y="913.5"/>
      <point x="357.5" y="903.75" type="curve"/>
      <point x="357.75" y="794.5" type="line"/>
      <point x="376.25" y="807.25"/>
      <point x="400.25" y="815.75"/>
      <point x="421.5" y="815.75" type="curve" smooth="yes"/>
      <point x="453.25" y="815.75"/>
      <point x="474.0" y="798.75"/>
      <point x="474.0" y="773.0" type="curve" smooth="yes"/>
      <point x="474.0" y="745.5"/>
      <point x="449.5" y="720.25"/>
    </contour>
  </outline>
</glyph>
<glyph name="hungarumlautcomb" format="2">
  <unicode hex="030B"/>
  <anchor x="385.0" y="600.0" name="_top"/>
  <outline>
    <contour>
      <point x="318.25" y="681.0" type="line"/>
      <point x="461.0" y="825.0" type="line"/>
      <point x="362.25" y="870.0" type="line"/>
      <point x="250.5" y="726.0" type="line"/>
    </contour>
    <contour>
      <point x="558.25" y="681.0" type="line"/>
      <point x="701.0" y="825.0" type="line"/>
      <point x="602.25" y="870.0" type="line"/>
      <point x="490.5" y="726.0" type="line"/>
    </contour>
  </outline>
</glyph>
<glyph name="caroncomb" format="2">
  <unicode hex="030C"/>
  <anchor x="435.0" y="600.0" name="_top"/>
  <outline>
    <contour>
      <point x="452.75" y="672.0" type="line"/>
      <point x="722.75" y="909.0" type="line"/>
      <point x="567.25" y="909.0" type="line"/>
      <point x="537.5" y="884.0"/>
      <point x="513.5" y="859.75"/>
      <point x="483.5" y="827.75" type="curve"/>
      <point x="469.0" y="859.75"/>
      <point x="457.5" y="884.0"/>
      <point x="440.25" y="909.0" type="curve"/>
      <point x="299.75" y="909.0" type="line"/>
    </contour>
  </outline>
</glyph>
<glyph name="breveinvertedcomb" format="2">
  <unicode hex="0311"/>
  <anchor x="435.0" y="600.0" name="_top"/>
  <anchor x="497.0" y="849.0" name="top"/>
  <outline>
    <contour>
      <point x="253.25" y="666.0" type="curve"/>
      <point x="370.0" y="666.0" type="line"/>
      <point x="378.25" y="715.75"/>
      <point x="420.25" y="747.5"/>
      <point x="461.75" y="747.5" type="curve" smooth="yes"/>
      <point x="506.25" y="747.5"/>
      <point x="538.75" y="709.75"/>
      <point x="533.25" y="666.0" type="curve"/>
      <point x="650.0" y="666.0" type="line"/>
      <point x="663.75" y="777.0"/>
      <point x="581.5" y="858.0"/>
      <point x="468.5" y="858.0" type="curve" smooth="yes"/>
      <point x="367.0" y="858.0"/>
      <point x="272.75" y="791.5"/>
    </contour>
  </outline>
</glyph>
<glyph name="commaturnedabovecomb" format="2">
  <unicode hex="0312"/>
  <anchor x="435.0" y="600.0" name="_top"/>
  <outline>
    <contour>
      <point x="388.75" y="711.0" type="curve"/>
      <point x="536.25" y="711.0" type="line"/>
      <point x="565.0" y="799.75"/>
      <point x="615.25" y="871.75"/>
      <point x="676.5" y="930.0" type="curve"/>
      <point x="515.5" y="930.0" type="line"/>
      <point x="458.25" y="865.0"/>
      <point x="414.5" y="792.0"/>
    </contour>
  </outline>
</glyph>
<glyph name="horncomb" format="2">
  <unicode hex="031B"/>
  <anchor x="255.5" y="600.0" name="_topright"/>
  <outline>
    <contour>
      <point x="339.25" y="398.0" type="curve" smooth="yes"/>
      <point x="418.25" y="398.0"/>
      <point x="493.0" y="459.0"/>
      <point x="499.5" y="565.0" type="curve" smooth="yes"/>
      <point x="505.25" y="660.0" type="line"/>
      <point x="409.25" y="660.0" type="line"/>
      <point x="403.25" y="561.0" type="line" smooth="yes"/>
      <point x="400.5" y="516.0"/>
      <point x="370.0" y="476.0"/>
      <point x="320.0" y="476.0" type="curve" smooth="yes"/>
      <point x="288.0" y="476.0"/>
      <point x="260.0" y="494.0"/>
      <point x="251.25" y="529.0" type="curve"/>
      <point x="245.25" y="433.0" type="line"/>
      <point x="270.0" y="410.0"/>
      <point x="303.25" y="398.0"/>
    </contour>
  </outline>
</glyph>
<glyph name="dotbelowcomb" format="2">
  <unicode hex="0323"/>
  <anchor x="285.0" y="0.0" name="_bottom"/>
  <anchor x="222.0" y="-252.0" name="bottom"/>
  <outline>
    <contour>
      <point x="229.75" y="-267.75" type="curve" smooth="yes"/>
      <point x="281.5" y="-267.75"/>
      <point x="327.75" y="-221.5"/>
      <point x="327.75" y="-169.5" type="curve" smooth="yes"/>
      <point x="327.75" y="-126.0"/>
      <point x="294.5" y="-92.25"/>
      <point x="250.25" y="-92.25" type="curve" smooth="yes"/>
      <point x="198.5" y="-92.25"/>
      <point x="152.25" y="-138.5"/>
      <point x="152.25" y="-190.5" type="curve" smooth="yes"/>
      <point x="152.25" y="-235.5"/>
      <point x="187.0" y="-267.75"/>
    </contour>
  </outline>
</glyph>
<glyph name="dieresisbelowcomb" format="2">
  <unicode hex="0324"/>
  <anchor x="341.25" y="0.0" name="_top"/>
  <outline>
    <contour>
      <point x="388.0" y="-249.0" type="curve" smooth="yes"/>
      <point x="426.75" y="-249.0"/>
      <point x="459.0" y="-217.5"/>
      <point x="459.0" y="-177.75" type="curve" smooth="yes"/>
      <point x="459.0" y="-140.75"/>
      <point x="429.0" y="-111.0"/>
      <point x="392.0" y="-111.0" type="curve" smooth="yes"/>
      <point x="352.5" y="-111.0"/>
      <point x="321.0" y="-143.25"/>
      <point x="321.0" y="-182.25" type="curve" smooth="yes"/>
      <point x="321.0" y="-220.0"/>
      <point x="350.25" y="-249.0"/>
    </contour>
    <contour>
      <point x="268.0" y="-249.0" type="curve" smooth="yes"/>
      <point x="306.75" y="-249.0"/>
      <point x="339.0" y="-217.5"/>
      <point x="339.0" y="-177.75" type="curve" smooth="yes"/>
      <point x="339.0" y="-140.75"/>
      <point x="309.0" y="-111.0"/>
      <point x="272.0" y="-111.0" type="curve" smooth="yes"/>
      <point x="232.5" y="-111.0"/>
      <point x="201.0" y="-143.25"/>
      <point x="201.0" y="-182.25" type="curve" smooth="yes"/>
      <point x="201.0" y="-220.0"/>
      <point x="230.25" y="-249.0"/>
    </contour>
  </outline>
</glyph>
<glyph name="commaaccentcomb" format="2">
  <unicode hex="0326"/>
  <anchor x="284.0" y="0.0" name="_bottom"/>
  <anchor x="123.0" y="-330.0" name="bottom"/>
  <outline>
    <contour>
      <point x="42.5" y="-330.0" type="curve"/>
      <point x="203.5" y="-330.0" type="line"/>
      <point x="260.75" y="-265.0"/>
      <point x="304.5" y="-192.0"/>
      <point x="330.25" y="-111.0" type="curve"/>
      <point x="182.75" y="-111.0" type="line"/>
      <point x="154.0" y="-199.75"/>
      <point x="103.75" y="-271.75"/>
    </contour>
  </outline>
</glyph>
<glyph name="ogonekcomb" format="2">
  <unicode hex="0328"/>
  <anchor x="344.5" y="0.0" name="_ogonek"/>
  <outline>
    <contour>
      <point x="351.5" y="-316.5" type="curve"/>
      <point x="402.0" y="-201.0" type="line"/>
      <point x="361.5" y="-197.25"/>
      <point x="332.25" y="-176.25"/>
      <point x="332.25" y="-134.75" type="curve" smooth="yes"/>
      <point x="332.25" y="-83.0"/>
      <point x="365.75" y="-46.5"/>
      <point x="415.5" y="0.0" type="curve"/>
      <point x="278.0" y="0.0" type="line"/>
      <point x="225.75" y="-50.75"/>
      <point x="188.75" y="-106.0"/>
      <point x="188.75" y="-170.25" type="curve" smooth="yes"/>
      <point x="188.75" y="-257.75"/>
      <point x="257.75" y="-307.5"/>
    </contour>
  </outline>
</glyph>
<glyph name="brevebelowcomb" format="2">
  <unicode hex="032E"/>
  <anchor x="285.0" y="0.0" name="_bottom"/>
  <anchor x="360.0" y="-249.0" name="bottom"/>
  <outline>
    <contour>
      <point x="251.5" y="-258.0" type="curve" smooth="yes"/>
      <point x="353.0" y="-258.0"/>
      <point x="447.25" y="-191.5"/>
      <point x="466.75" y="-66.0" type="curve"/>
      <point x="350.0" y="-66.0" type="line"/>
      <point x="341.75" y="-115.75"/>
      <point x="299.75" y="-147.5"/>
      <point x="258.25" y="-147.5" type="curve" smooth="yes"/>
      <point x="213.75" y="-147.5"/>
      <point x="181.25" y="-109.75"/>
      <point x="186.75" y="-66.0" type="curve"/>
      <point x="70.0" y="-66.0" type="line"/>
      <point x="56.25" y="-177.0"/>
      <point x="138.5" y="-258.0"/>
    </contour>
  </outline>
</glyph>
<glyph name="macronbelowcomb" format="2">
  <unicode hex="0331"/>
  <anchor x="285.0" y="0.0" name="_bottom"/>
  <outline>
    <contour>
      <point x="75.0" y="-235.5" type="line"/>
      <point x="379.5" y="-235.5" type="line"/>
      <point x="407.0" y="-124.5" type="line"/>
      <point x="102.5" y="-124.5" type="line"/>
    </contour>
  </outline>
</glyph>
<glyph name="strokeshortcomb" format="2">
  <unicode hex="0335"/>
  <anchor x="340.0" y="300.0" name="_center"/>
  <outline>
    <contour>
      <point x="54.75" y="251.0" type="line"/>
      <point x="461.75" y="251.0" type="line"/>
      <point x="485.25" y="349.0" type="line"/>
      <point x="78.25" y="349.0" type="line"/>
    </contour>
  </outline>
</glyph>
<glyph name="strokelongcomb" format="2">
  <unicode hex="0336"/>
  <anchor x="437.0" y="450.0" name="_center"/>
  <outline>
    <contour>
      <point x="54.75" y="399.0" type="line"/>
      <point x="794.75" y="399.0" type="line"/>
      <point x="819.25" y="501.0" type="line"/>
      <point x="79.25" y="501.0" type="line"/>
    </contour>
  </outline>
</glyph>
<glyph name="slashlongcomb" format="2">
  <unicode hex="0338"/>
  <anchor x="277.25" y="300.0" name="_center"/>
  <outline>
    <contour>
      <point x="9.25" y="-0.75" type="line"/>
      <point x="599.5" y="530.25" type="line"/>
      <point x="540.0" y="599.75" type="line"/>
      <point x="-50.25" y="68.75" type="line"/>
    </contour>
  </outline>
</glyph>
<glyph name="pi" format="2">
  <advance width="705.0"/>
  <unicode hex="03C0"/>
  <anchor x="277.5" y="0.0" name="bottom"/>
  <anchor x="428.5" y="600.0" name="top"/>
  <outline>
    <contour>
      <point x="399.0" y="0.0" type="line"/>
      <point x="556.5" y="0.0" type="line"/>
      <point x="707.5" y="600.0" type="line"/>
      <point x="550.0" y="600.0" type="line"/>
    </contour>
    <contour>
      <point x="-1.5" y="0.0" type="line"/>
      <point x="156.0" y="0.0" type="line"/>
      <point x="307.0" y="600.0" type="line"/>
      <point x="149.5" y="600.0" type="line"/>
    </contour>
    <contour>
      <point x="174.0" y="457.5" type="line"/>
      <point x="612.0" y="457.5" type="line"/>
      <point x="647.5" y="600.0" type="line"/>
      <point x="209.5" y="600.0" type="line"/>
    </contour>
  </outline>
</glyph>
<glyph name="Germandbls" format="2">
  <advance width="990.0"/>
  <unicode hex="1E9E"/>
  <outline>
    <contour>
      <point x="590.5" y="-18.0" type="curve" smooth="yes"/>
      <point x="777.5" y="-18.0"/>
      <point x="950.5" y="145.75"/>
      <point x="950.5" y="334.25" type="curve" smooth="yes"/>
      <point x="950.5" y="452.5"/>
      <point x="881.75" y="550.0"/>
      <point x="778.5" y="587.25" type="curve"/>
      <point x="780.0" y="543.25" type="line"/>
      <point x="1060.5" y="900.0" type="line"/>
      <point x="256.5" y="900.0" type="line"/>
      <point x="31.5" y="0.0" type="line"/>
      <point x="198.75" y="0.0" type="line"/>
      <point x="388.0" y="754.5" type="line"/>
      <point x="780.5" y="754.5" type="line"/>
      <point x="546.25" y="457.0" type="line"/>
      <point x="575.5" y="468.0"/>
      <point x="602.5" y="473.75"/>
      <point x="630.5" y="473.75" type="curve" smooth="yes"/>
      <point x="732.25" y="473.75"/>
      <point x="793.5" y="404.25"/>
      <point x="793.5" y="322.0" type="curve" smooth="yes"/>
      <point x="793.5" y="225.25"/>
      <point x="708.0" y="130.5"/>
      <point x="604.25" y="130.5" type="curve" smooth="yes"/>
      <point x="496.5" y="130.5"/>
      <point x="434.75" y="228.25"/>
      <point x="440.75" y="326.5" type="curve"/>
      <point x="313.75" y="168.75" type="line"/>
      <point x="358.5" y="49.0"/>
      <point x="470.0" y="-18.0"/>
    </contour>
  </outline>
</glyph>
<glyph name="endash" format="2">
  <advance width="720.0"/>
  <unicode hex="2013"/>
  <outline>
    <contour>
      <point x="36.0" y="234.0" type="line"/>
      <point x="651.0" y="234.0" type="line"/>
      <point x="684.0" y="366.0" type="line"/>
      <point x="69.0" y="366.0" type="line"/>
    </contour>
  </outline>
</glyph>
<glyph name="emdash" format="2">
  <advance width="1440.0"/>
  <unicode hex="2014"/>
  <outline>
    <contour>
      <point x="43.25" y="231.0" type="line"/>
      <point x="1363.25" y="231.0" type="line"/>
      <point x="1396.75" y="369.0" type="line"/>
      <point x="76.75" y="369.0" type="line"/>
    </contour>
  </outline>
</glyph>
<glyph name="quoteleft" format="2">
  <advance width="285.0"/>
  <unicode hex="2018"/>
  <outline>
    <contour>
      <point x="110.75" y="577.5" type="curve"/>
      <point x="263.75" y="577.5" type="line"/>
      <point x="298.0" y="715.25"/>
      <point x="365.0" y="820.0"/>
      <point x="443.0" y="900.0" type="curve"/>
      <point x="281.75" y="900.0" type="line"/>
      <point x="199.0" y="809.0"/>
      <point x="141.0" y="700.5"/>
    </contour>
  </outline>
</glyph>
<glyph name="quotesinglbase" format="2">
  <advance width="285.0"/>
  <unicode hex="201A"/>
  <outline>
    <contour>
      <point x="-120.25" y="-150.0" type="curve"/>
      <point x="41.0" y="-150.0" type="line"/>
      <point x="123.75" y="-59.0"/>
      <point x="181.75" y="49.5"/>
      <point x="212.0" y="172.5" type="curve"/>
      <point x="59.0" y="172.5" type="line"/>
      <point x="24.75" y="34.75"/>
      <point x="-42.25" y="-70.0"/>
    </contour>
  </outline>
</glyph>
<glyph name="dagger" format="2">
  <advance width="600.0"/>
  <unicode hex="2020"/>
  <outline>
    <contour>
      <point x="152.75" y="0.0" type="line"/>
      <point x="301.25" y="0.0" type="line"/>
      <point x="447.75" y="663.0" type="line"/>
      <point x="378.0" y="579.75" type="line"/>
      <point x="604.25" y="568.5" type="line"/>
      <point x="634.5" y="692.25" type="line"/>
      <point x="452.0" y="680.25" type="line"/>
      <point x="523.25" y="900.0" type="line"/>
      <point x="374.75" y="900.0" type="line"/>
      <point x="337.75" y="680.25" type="line"/>
      <point x="160.5" y="692.25" type="line"/>
      <point x="130.25" y="568.5" type="line"/>
      <point x="361.5" y="579.75" type="line"/>
      <point x="333.5" y="663.0" type="line"/>
    </contour>
  </outline>
</glyph>
<glyph name="daggerdbl" format="2">
  <advance width="600.0"/>
  <unicode hex="2021"/>
  <outline>
    <contour>
      <point x="150.75" y="-1.5" type="line"/>
      <point x="299.25" y="-1.5" type="line"/>
      <point x="336.25" y="218.25" type="line"/>
      <point x="513.5" y="206.25" type="line"/>
      <point x="543.75" y="330.0" type="line"/>
      <point x="312.5" y="318.75" type="line"/>
      <point x="340.5" y="235.5" type="line"/>
      <point x="400.5" y="448.5" type="line"/>
      <point x="445.75" y="661.5" type="line"/>
      <point x="376.0" y="578.25" type="line"/>
      <point x="602.25" y="567.0" type="line"/>
      <point x="632.5" y="690.75" type="line"/>
      <point x="450.0" y="678.75" type="line"/>
      <point x="521.25" y="898.5" type="line"/>
      <point x="372.75" y="898.5" type="line"/>
      <point x="335.75" y="678.75" type="line"/>
      <point x="158.5" y="690.75" type="line"/>
      <point x="128.25" y="567.0" type="line"/>
      <point x="359.5" y="578.25" type="line"/>
      <point x="331.5" y="661.5" type="line"/>
      <point x="271.5" y="448.5" type="line"/>
      <point x="226.25" y="235.5" type="line"/>
      <point x="296.0" y="318.75" type="line"/>
      <point x="69.75" y="330.0" type="line"/>
      <point x="39.5" y="206.25" type="line"/>
      <point x="222.0" y="218.25" type="line"/>
    </contour>
  </outline>
</glyph>
<glyph name="ellipsis" format="2">
  <advance width="1440.0"/>
  <unicode hex="2026"/>
  <outline>
    <contour>
      <point x="1132.5" y="-18.0" type="curve" smooth="yes"/>
      <point x="1191.0" y="-18.0"/>
      <point x="1242.0" y="33.0"/>
      <point x="1242.0" y="91.5" type="curve" smooth="yes"/>
      <point x="1242.0" y="140.0"/>
      <point x="1205.25" y="177.0"/>
      <point x="1156.5" y="177.0" type="curve" smooth="yes"/>
      <point x="1098.0" y="177.0"/>
      <point x="1047.0" y="126.0"/>
      <point x="1047.0" y="68.25" type="curve" smooth="yes"/>
      <point x="1047.0" y="18.5"/>
      <point x="1086.0" y="-18.0"/>
    </contour>
    <contour>
      <point x="172.5" y="-18.0" type="curve" smooth="yes"/>
      <point x="231.0" y="-18.0"/>
      <point x="282.0" y="33.0"/>
      <point x="282.0" y="91.5" type="curve" smooth="yes"/>
      <point x="282.0" y="140.0"/>
      <point x="245.25" y="177.0"/>
      <point x="196.5" y="177.0" type="curve" smooth="yes"/>
      <point x="138.0" y="177.0"/>
      <point x="87.0" y="126.0"/>
      <point x="87.0" y="68.25" type="curve" smooth="yes"/>
      <point x="87.0" y="18.5"/>
      <point x="126.0" y="-18.0"/>
    </contour>
    <contour>
      <point x="652.5" y="-18.0" type="curve" smooth="yes"/>
      <point x="711.0" y="-18.0"/>
      <point x="762.0" y="33.0"/>
      <point x="762.0" y="91.5" type="curve" smooth="yes"/>
      <point x="762.0" y="140.0"/>
      <point x="725.25" y="177.0"/>
      <point x="676.5" y="177.0" type="curve" smooth="yes"/>
      <point x="618.0" y="177.0"/>
      <point x="567.0" y="126.0"/>
      <point x="567.0" y="68.25" type="curve" smooth="yes"/>
      <point x="567.0" y="18.5"/>
      <point x="606.0" y="-18.0"/>
    </contour>
  </outline>
</glyph>
<glyph name="minute" format="2">
  <advance width="285.0"/>
  <unicode hex="2032"/>
  <outline>
    <contour>
      <point x="102.25" y="547.5" type="line"/>
      <point x="181.75" y="547.5" type="line"/>
      <point x="417.0" y="900.0" type="line"/>
      <point x="223.5" y="900.0" type="line"/>
    </contour>
  </outline>
</glyph>
<glyph name="guilsinglleft" format="2">
  <advance width="360.0"/>
  <unicode hex="2039"/>
  <outline>
    <contour>
      <point x="134.5" y="60.0" type="line"/>
      <point x="273.0" y="60.0" type="line"/>
      <point x="170.0" y="300.0" type="line"/>
      <point x="391.0" y="540.0" type="line"/>
      <point x="232.5" y="540.0" type="line"/>
      <point x="25.5" y="315.0" type="line"/>
    </contour>
  </outline>
</glyph>
<glyph name="guilsinglright" format="2">
  <advance width="360.0"/>
  <unicode hex="203A"/>
  <outline>
    <contour>
      <point x="-32.25" y="60.0" type="line"/>
      <point x="126.25" y="60.0" type="line"/>
      <point x="333.25" y="285.0" type="line"/>
      <point x="224.25" y="540.0" type="line"/>
      <point x="85.75" y="540.0" type="line"/>
      <point x="188.75" y="300.0" type="line"/>
    </contour>
  </outline>
</glyph>
<glyph name="fraction" format="2">
  <advance width="120.0"/>
  <unicode hex="2044"/>
  <outline>
    <contour>
      <point x="-387.25" y="0.0" type="line"/>
      <point x="-248.25" y="0.0" type="line"/>
      <point x="579.25" y="900.0" type="line"/>
      <point x="440.25" y="900.0" type="line"/>
    </contour>
  </outline>
</glyph>
<glyph name="euro" format="2">
  <advance width="750.0"/>
  <unicode hex="20AC"/>
  <outline>
    <contour>
      <point x="456.75" y="-18.0" type="curve" smooth="yes"/>
      <point x="518.75" y="-18.0"/>
      <point x="581.5" y="1.75"/>
      <point x="638.0" y="40.75" type="curve"/>
      <point x="638.25" y="210.25" type="line"/>
      <point x="594.25" y="159.75"/>
      <point x="536.25" y="123.0"/>
      <point x="477.25" y="123.0" type="curve" smooth="yes"/>
      <point x="387.0" y="123.0"/>
      <point x="345.0" y="204.0"/>
      <point x="345.0" y="310.0" type="curve" smooth="yes"/>
      <point x="345.0" y="462.75"/>
      <point x="431.25" y="774.0"/>
      <point x="603.5" y="774.0" type="curve" smooth="yes"/>
      <point x="674.25" y="774.0"/>
      <point x="724.5" y="716.75"/>
      <point x="744.25" y="650.0" type="curve"/>
      <point x="827.25" y="809.75" type="line"/>
      <point x="776.25" y="880.25"/>
      <point x="698.0" y="916.5"/>
      <point x="616.25" y="916.5" type="curve" smooth="yes"/>
      <point x="348.25" y="916.5"/>
      <point x="192.0" y="559.5"/>
      <point x="192.0" y="313.25" type="curve" smooth="yes"/>
      <point x="192.0" y="126.5"/>
      <point x="281.75" y="-18.0"/>
    </contour>
    <contour>
      <point x="76.75" y="300.0" type="line"/>
      <point x="553.75" y="300.0" type="line"/>
      <point x="578.25" y="402.0" type="line"/>
      <point x="101.25" y="402.0" type="line"/>
    </contour>
    <contour>
      <point x="125.25" y="498.0" type="line"/>
      <point x="602.25" y="498.0" type="line"/>
      <point x="626.75" y="600.0" type="line"/>
      <point x="149.75" y="600.0" type="line"/>
    </contour>
  </outline>
</glyph>
<glyph name="careof" format="2">
  <advance width="960.0"/>
  <unicode hex="2105"/>
  <outline>
    <contour>
      <point x="-8.25" y="0.0" type="line"/>
      <point x="130.75" y="0.0" type="line"/>
      <point x="961.5" y="900.0" type="line"/>
      <point x="822.5" y="900.0" type="line"/>
    </contour>
    <contour>
      <point x="669.0" y="-16.5" type="curve" smooth="yes"/>
      <point x="788.5" y="-16.5"/>
      <point x="894.5" y="86.25"/>
      <point x="894.5" y="200.5" type="curve" smooth="yes"/>
      <point x="894.5" y="296.0"/>
      <point x="819.5" y="376.5"/>
      <point x="713.0" y="376.5" type="curve" smooth="yes"/>
      <point x="593.75" y="376.5"/>
      <point x="487.25" y="273.25"/>
      <point x="487.25" y="158.75" type="curve" smooth="yes"/>
      <point x="487.25" y="63.5"/>
      <point x="562.5" y="-16.5"/>
    </contour>
    <contour>
      <point x="680.0" y="91.25" type="curve" smooth="yes"/>
      <point x="634.25" y="91.25"/>
      <point x="601.75" y="126.25"/>
      <point x="601.75" y="169.0" type="curve" smooth="yes"/>
      <point x="601.75" y="224.0"/>
      <point x="651.5" y="268.75"/>
      <point x="701.5" y="268.75" type="curve" smooth="yes"/>
      <point x="747.0" y="268.75"/>
      <point x="780.25" y="233.0"/>
      <point x="780.25" y="189.75" type="curve" smooth="yes"/>
      <point x="780.25" y="135.5"/>
      <point x="729.25" y="91.25"/>
    </contour>
    <contour>
      <point x="322.25" y="523.5" type="curve" smooth="yes"/>
      <point x="353.5" y="523.5"/>
      <point x="383.75" y="530.75"/>
      <point x="412.0" y="542.25" type="curve"/>
      <point x="412.0" y="653.0" type="line"/>
      <point x="393.25" y="639.75"/>
      <point x="371.25" y="631.25"/>
      <point x="345.75" y="631.25" type="curve" smooth="yes"/>
      <point x="295.0" y="631.25"/>
      <point x="261.0" y="665.25"/>
      <point x="261.0" y="708.75" type="curve" smooth="yes"/>
      <point x="261.0" y="763.75"/>
      <point x="307.5" y="808.0"/>
      <point x="363.25" y="808.0" type="curve" smooth="yes"/>
      <point x="400.0" y="808.0"/>
      <point x="425.25" y="790.0"/>
      <point x="440.5" y="768.25" type="curve"/>
      <point x="492.75" y="870.0" type="line"/>
      <point x="461.0" y="898.25"/>
      <point x="416.25" y="915.75"/>
      <point x="368.5" y="915.75" type="curve" smooth="yes"/>
      <point x="247.25" y="915.75"/>
      <point x="141.25" y="812.75"/>
      <point x="141.25" y="698.75" type="curve" smooth="yes"/>
      <point x="141.25" y="603.25"/>
      <point x="217.0" y="523.5"/>
    </contour>
  </outline>
</glyph>
<glyph name="numero" format="2">
  <advance width="1402.5"/>
  <unicode hex="2116"/>
  <outline>
    <contour>
      <point x="737.0" y="-30.0" type="line"/>
      <point x="969.0" y="900.0" type="line"/>
      <point x="816.0" y="900.0" type="line"/>
      <point x="674.75" y="332.75" type="line"/>
      <point x="260.5" y="930.0" type="line"/>
      <point x="28.5" y="0.0" type="line"/>
      <point x="181.5" y="0.0" type="line"/>
      <point x="322.75" y="568.0" type="line"/>
    </contour>
    <contour>
      <point x="1125.0" y="102.0" type="curve" smooth="yes"/>
      <point x="1183.5" y="102.0"/>
      <point x="1234.5" y="153.0"/>
      <point x="1234.5" y="211.5" type="curve" smooth="yes"/>
      <point x="1234.5" y="260.0"/>
      <point x="1197.75" y="297.0"/>
      <point x="1149.0" y="297.0" type="curve" smooth="yes"/>
      <point x="1090.5" y="297.0"/>
      <point x="1039.5" y="246.0"/>
      <point x="1039.5" y="188.25" type="curve" smooth="yes"/>
      <point x="1039.5" y="138.5"/>
      <point x="1078.5" y="102.0"/>
    </contour>
    <contour>
      <point x="1214.5" y="403.5" type="curve" smooth="yes"/>
      <point x="1333.75" y="403.5"/>
      <point x="1440.5" y="505.5"/>
      <point x="1440.5" y="620.25" type="curve" smooth="yes"/>
      <point x="1440.5" y="720.5"/>
      <point x="1361.5" y="796.5"/>
      <point x="1259.0" y="796.5" type="curve" smooth="yes"/>
      <point x="1139.0" y="796.5"/>
      <point x="1032.5" y="694.25"/>
      <point x="1032.5" y="579.0" type="curve" smooth="yes"/>
      <point x="1032.5" y="479.75"/>
      <point x="1111.5" y="403.5"/>
    </contour>
    <contour>
      <point x="1226.75" y="511.5" type="curve" smooth="yes"/>
      <point x="1180.5" y="511.5"/>
      <point x="1145.75" y="546.25"/>
      <point x="1145.75" y="591.25" type="curve" smooth="yes"/>
      <point x="1145.75" y="642.0"/>
      <point x="1193.5" y="688.5"/>
      <point x="1246.5" y="688.5" type="curve" smooth="yes"/>
      <point x="1292.5" y="688.5"/>
      <point x="1327.5" y="654.25"/>
      <point x="1327.5" y="608.75" type="curve" smooth="yes"/>
      <point x="1327.5" y="558.25"/>
      <point x="1279.5" y="511.5"/>
    </contour>
  </outline>
</glyph>
<glyph name="trademark" format="2">
  <advance width="840.0"/>
  <unicode hex="2122"/>
  <outline>
    <contour>
      <point x="449.5" y="540.0" type="line"/>
      <point x="550.0" y="540.0" type="line"/>
      <point x="566.25" y="609.0" type="line" smooth="yes"/>
      <point x="572.0" y="632.75"/>
      <point x="576.25" y="650.0"/>
      <point x="579.5" y="669.5" type="curve"/>
      <point x="585.25" y="654.75"/>
      <point x="592.0" y="643.75"/>
      <point x="599.25" y="631.0" type="curve" smooth="yes"/>
      <point x="648.0" y="546.0" type="line"/>
      <point x="737.5" y="629.75" type="line" smooth="yes"/>
      <point x="751.75" y="643.25"/>
      <point x="762.25" y="654.0"/>
      <point x="774.75" y="667.0" type="curve"/>
      <point x="768.25" y="646.25"/>
      <point x="763.0" y="628.25"/>
      <point x="758.25" y="609.0" type="curve" smooth="yes"/>
      <point x="742.0" y="540.0" type="line"/>
      <point x="848.5" y="540.0" type="line"/>
      <point x="946.75" y="944.5" type="line"/>
      <point x="677.5" y="697.0" type="line"/>
      <point x="542.5" y="919.25" type="line"/>
    </contour>
    <contour>
      <point x="187.75" y="540.0" type="line"/>
      <point x="294.25" y="540.0" type="line"/>
      <point x="358.75" y="804.0" type="line"/>
      <point x="457.0" y="804.0" type="line"/>
      <point x="480.5" y="900.0" type="line"/>
      <point x="177.5" y="900.0" type="line"/>
      <point x="154.0" y="804.0" type="line"/>
      <point x="252.25" y="804.0" type="line"/>
    </contour>
  </outline>
</glyph>
<glyph name="dek" format="2">
  <advance width="750.0"/>
  <unicode hex="218A"/>
  <outline>
    <contour>
      <point x="341.25" y="-13.0" type="curve" smooth="yes"/>
      <point x="512.0" y="-13.0"/>
      <point x="658.25" y="133.25"/>
      <point x="658.25" y="285.0" type="curve" smooth="yes"/>
      <point x="658.25" y="314.75"/>
      <point x="653.0" y="344.25"/>
      <point x="640.5" y="378.0" type="curve"/>
      <point x="467.0" y="378.0" type="line"/>
      <point x="492.25" y="346.0"/>
      <point x="505.25" y="314.0"/>
      <point x="505.25" y="280.0" type="curve" smooth="yes"/>
      <point x="505.25" y="200.75"/>
      <point x="437.0" y="132.25"/>
      <point x="358.0" y="132.25" type="curve" smooth="yes"/>
      <point x="292.0" y="132.25"/>
      <point x="243.5" y="182.25"/>
      <point x="243.5" y="246.0" type="curve" smooth="yes"/>
      <point x="243.5" y="294.0"/>
      <point x="269.5" y="329.75"/>
      <point x="312.25" y="375.0" type="curve" smooth="yes"/>
      <point x="804.25" y="900.0" type="line"/>
      <point x="229.25" y="900.0" type="line"/>
      <point x="193.0" y="753.0" type="line"/>
      <point x="532.25" y="753.0" type="line"/>
      <point x="517.25" y="789.25" type="line"/>
      <point x="206.75" y="470.75" type="line" smooth="yes"/>
      <point x="126.5" y="388.5"/>
      <point x="84.0" y="322.75"/>
      <point x="84.0" y="234.0" type="curve" smooth="yes"/>
      <point x="84.0" y="94.75"/>
      <point x="196.75" y="-13.0"/>
    </contour>
  </outline>
</glyph>
<glyph name="el" format="2">
  <advance width="750.0"/>
  <unicode hex="218B"/>
  <outline>
    <contour>
      <point x="48.0" y="0.0" type="line"/>
      <point x="595.0" y="0.0" type="line"/>
      <point x="629.75" y="142.5" type="line"/>
      <point x="261.75" y="142.5" type="line"/>
      <point x="291.25" y="96.75" type="line"/>
      <point x="572.75" y="465.75" type="line"/>
      <point x="548.25" y="457.75"/>
      <point x="525.75" y="454.25"/>
      <point x="502.25" y="454.25" type="curve" smooth="yes"/>
      <point x="418.5" y="454.25"/>
      <point x="352.0" y="504.75"/>
      <point x="352.0" y="590.5" type="curve" smooth="yes"/>
      <point x="352.0" y="685.25"/>
      <point x="432.25" y="772.5"/>
      <point x="530.25" y="772.5" type="curve" smooth="yes"/>
      <point x="623.0" y="772.5"/>
      <point x="681.75" y="695.5"/>
      <point x="681.25" y="606.25" type="curve"/>
      <point x="803.0" y="756.25" type="line"/>
      <point x="759.5" y="859.75"/>
      <point x="654.25" y="918.0"/>
      <point x="543.75" y="918.0" type="curve" smooth="yes"/>
      <point x="363.25" y="918.0"/>
      <point x="196.5" y="757.5"/>
      <point x="196.5" y="578.0" type="curve" smooth="yes"/>
      <point x="196.5" y="468.0"/>
      <point x="263.5" y="377.5"/>
      <point x="362.75" y="343.0" type="curve"/>
      <point x="359.25" y="408.25" type="line"/>
    </contour>
  </outline>
</glyph>
<glyph name="minus" format="2">
  <advance width="750.0"/>
  <unicode hex="2212"/>
  <outline>
    <contour>
      <point x="103.25" y="384.5" type="line"/>
      <point x="688.25" y="384.5" type="line"/>
      <point x="720.75" y="515.5" type="line"/>
      <point x="135.75" y="515.5" type="line"/>
    </contour>
  </outline>
</glyph>
<glyph name="bulletoperator" format="2">
  <advance width="480.0"/>
  <unicode hex="2219"/>
  <outline>
    <contour>
      <point x="258.0" y="294.0" type="curve" smooth="yes"/>
      <point x="354.0" y="294.0"/>
      <point x="433.0" y="377.0"/>
      <point x="433.0" y="468.0" type="curve" smooth="yes"/>
      <point x="433.0" y="545.0"/>
      <point x="376.0" y="606.0"/>
      <point x="296.0" y="606.0" type="curve" smooth="yes"/>
      <point x="200.0" y="606.0"/>
      <point x="121.0" y="522.0"/>
      <point x="121.0" y="430.0" type="curve" smooth="yes"/>
      <point x="121.0" y="352.0"/>
      <point x="178.0" y="294.0"/>
    </contour>
  </outline>
</glyph>
<glyph name="approxequal" format="2">
  <advance width="750.0"/>
  <unicode hex="2248"/>
  <outline>
    <contour>
      <point x="142.5" y="468.75" type="line"/>
      <point x="183.75" y="528.25"/>
      <point x="225.75" y="560.5"/>
      <point x="285.5" y="560.5" type="curve" smooth="yes"/>
      <point x="387.75" y="560.5"/>
      <point x="460.25" y="471.0"/>
      <point x="583.75" y="471.0" type="curve" smooth="yes"/>
      <point x="659.0" y="471.0"/>
      <point x="729.5" y="506.75"/>
      <point x="783.0" y="570.5" type="curve"/>
      <point x="746.5" y="688.5" type="line"/>
      <point x="706.75" y="629.0"/>
      <point x="662.0" y="597.5"/>
      <point x="606.25" y="597.5" type="curve" smooth="yes"/>
      <point x="508.0" y="597.5"/>
      <point x="440.5" y="687.0"/>
      <point x="307.0" y="687.0" type="curve" smooth="yes"/>
      <point x="227.5" y="687.0"/>
      <point x="160.75" y="652.5"/>
      <point x="106.0" y="586.5" type="curve"/>
    </contour>
    <contour>
      <point x="78.0" y="210.75" type="line"/>
      <point x="119.25" y="270.25"/>
      <point x="161.25" y="302.5"/>
      <point x="221.0" y="302.5" type="curve" smooth="yes"/>
      <point x="323.25" y="302.5"/>
      <point x="395.75" y="213.0"/>
      <point x="519.25" y="213.0" type="curve" smooth="yes"/>
      <point x="594.5" y="213.0"/>
      <point x="665.0" y="248.75"/>
      <point x="718.5" y="312.5" type="curve"/>
      <point x="682.0" y="430.5" type="line"/>
      <point x="642.25" y="371.0"/>
      <point x="597.5" y="339.5"/>
      <point x="541.75" y="339.5" type="curve" smooth="yes"/>
      <point x="443.5" y="339.5"/>
      <point x="376.0" y="429.0"/>
      <point x="242.5" y="429.0" type="curve" smooth="yes"/>
      <point x="163.0" y="429.0"/>
      <point x="96.25" y="394.5"/>
      <point x="41.5" y="328.5" type="curve"/>
    </contour>
  </outline>
</glyph>
<glyph name="notequal" format="2">
  <advance width="750.0"/>
  <unicode hex="2260"/>
  <outline>
    <contour>
      <point x="137.25" y="150.0" type="line"/>
      <point x="247.25" y="150.0" type="line"/>
      <point x="687.25" y="750.0" type="line"/>
      <point x="577.25" y="750.0" type="line"/>
    </contour>
    <contour>
      <point x="74.0" y="265.5" type="line"/>
      <point x="659.0" y="265.5" type="line"/>
      <point x="690.0" y="391.5" type="line"/>
      <point x="105.0" y="391.5" type="line"/>
    </contour>
    <contour>
      <point x="134.5" y="508.5" type="line"/>
      <point x="719.5" y="508.5" type="line"/>
      <point x="750.5" y="634.5" type="line"/>
      <point x="165.5" y="634.5" type="line"/>
    </contour>
  </outline>
</glyph>
<glyph name="lessequal" format="2">
  <advance width="750.0"/>
  <unicode hex="2264"/>
  <outline>
    <contour>
      <point x="647.5" y="195.5" type="line"/>
      <point x="680.75" y="328.25" type="line"/>
      <point x="455.75" y="450.5" type="line" smooth="yes"/>
      <point x="423.5" y="468.5"/>
      <point x="384.5" y="485.5"/>
      <point x="347.5" y="501.5" type="curve"/>
      <point x="392.75" y="518.5"/>
      <point x="439.75" y="535.5"/>
      <point x="481.5" y="553.5" type="curve" smooth="yes"/>
      <point x="766.5" y="676.75" type="line"/>
      <point x="803.5" y="826.5" type="line"/>
      <point x="85.0" y="511.5" type="line"/>
    </contour>
    <contour>
      <point x="16.5" y="56.75" type="line"/>
      <point x="613.5" y="56.75" type="line"/>
      <point x="640.5" y="165.25" type="line"/>
      <point x="43.5" y="165.25" type="line"/>
    </contour>
  </outline>
</glyph>
<glyph name="greaterequal" format="2">
  <advance width="750.0"/>
  <unicode hex="2265"/>
  <outline>
    <contour>
      <point x="50.0" y="195.5" type="line"/>
      <point x="768.75" y="510.5" type="line"/>
      <point x="206.0" y="826.5" type="line"/>
      <point x="172.75" y="693.75" type="line"/>
      <point x="398.0" y="571.5" type="line" smooth="yes"/>
      <point x="430.0" y="553.5"/>
      <point x="469.0" y="536.5"/>
      <point x="506.0" y="520.5" type="curve"/>
      <point x="461.0" y="503.5"/>
      <point x="414.0" y="486.5"/>
      <point x="372.25" y="468.5" type="curve" smooth="yes"/>
      <point x="87.25" y="345.25" type="line"/>
    </contour>
    <contour>
      <point x="16.0" y="56.75" type="line"/>
      <point x="613.0" y="56.75" type="line"/>
      <point x="640.0" y="165.25" type="line"/>
      <point x="43.0" y="165.25" type="line"/>
    </contour>
  </outline>
</glyph>
<glyph name="leftanglebracket-math" format="2">
  <advance width="480.0"/>
  <unicode hex="27E8"/>
  <outline>
    <contour>
      <point x="169.25" y="-180.0" type="line"/>
      <point x="316.5" y="-180.0" type="line"/>
      <point x="198.75" y="369.25" type="line"/>
      <point x="615.5" y="960.0" type="line"/>
      <point x="449.25" y="960.0" type="line"/>
      <point x="47.5" y="390.0" type="line"/>
    </contour>
  </outline>
</glyph>
<glyph name="rightanglebracket-math" format="2">
  <advance width="480.0"/>
  <unicode hex="27E9"/>
  <outline>
    <contour>
      <point x="-92.5" y="-180.0" type="line"/>
      <point x="74.75" y="-180.0" type="line"/>
      <point x="476.5" y="390.0" type="line"/>
      <point x="354.75" y="960.0" type="line"/>
      <point x="208.5" y="960.0" type="line"/>
      <point x="325.75" y="413.0" type="line"/>
    </contour>
  </outline>
</glyph>
<glyph name="A.ring" format="2">
  <advance width="815.0"/>
  <anchor x="554.25" y="900.0" name="top"/>
  <outline>
    <contour>
      <point x="-61.5" y="0.0" type="line"/>
      <point x="108.5" y="0.0" type="line"/>
      <point x="393.5" y="432.0" type="line"/>
      <point x="425.75" y="480.25"/>
      <point x="451.75" y="522.0"/>
      <point x="482.0" y="582.5" type="curve"/>
      <point x="483.0" y="521.25"/>
      <point x="490.5" y="480.0"/>
      <point x="498.75" y="432.0" type="curve"/>
      <point x="570.5" y="0.0" type="line"/>
      <point x="726.5" y="0.0" type="line"/>
      <point x="569.0" y="900.0" type="line"/>
      <point x="539.5" y="900.0" type="line"/>
    </contour>
    <contour>
      <point x="165.0" y="186.75" type="line"/>
      <point x="586.5" y="186.75" type="line"/>
      <point x="571.0" y="318.5" type="line"/>
      <point x="246.75" y="318.5" type="line"/>
    </contour>
  </outline>
</glyph>
<glyph name="E.ss05" format="2">
  <advance width="750.0"/>
  <anchor x="348.0" y="0.0" name="bottom"/>
  <anchor x="520.0" y="0.0" name="ogonek"/>
  <anchor x="348.0" y="900.0" name="top"/>
  <anchor x="126.0" y="900.0" name="topleft"/>
  <outline>
    <contour>
      <point x="126.0" y="0.0" type="line"/>
      <point x="690.0" y="0.0" type="line"/>
      <point x="690.0" y="102.0" type="line"/>
      <point x="240.0" y="102.0" type="line"/>
      <point x="240.0" y="434.0" type="line"/>
      <point x="620.0" y="434.0" type="line"/>
      <point x="620.0" y="536.0" type="line"/>
      <point x="240.0" y="536.0" type="line"/>
      <point x="240.0" y="798.0" type="line"/>
      <point x="690.0" y="798.0" type="line"/>
      <point x="690.0" y="900.0" type="line"/>
      <point x="126.0" y="900.0" type="line"/>
    </contour>
  </outline>
</glyph>
<glyph name="F.ss05" format="2">
  <advance width="720.0"/>
  <outline>
    <contour>
      <point x="126.0" y="0.0" type="line"/>
      <point x="240.0" y="0.0" type="line"/>
      <point x="240.0" y="424.0" type="line"/>
      <point x="630.0" y="424.0" type="line"/>
      <point x="630.0" y="526.0" type="line"/>
      <point x="240.0" y="526.0" type="line"/>
      <point x="240.0" y="798.0" type="line"/>
      <point x="690.0" y="798.0" type="line"/>
      <point x="690.0" y="900.0" type="line"/>
      <point x="126.0" y="900.0" type="line"/>
    </contour>
  </outline>
</glyph>
